<svg width="57" height="57" viewBox="0 0 57 57" fill="none" xmlns="http://www.w3.org/2000/svg">
    <path d="M31.987 0.878727L32.5324 0.94362L33.0754 1.01933L33.616 1.10585L34.1531 1.20199L34.6865 1.30894L35.2175 1.42551L35.7449 1.55289L36.2699 1.69109L36.7913 1.8377L37.3079 1.99632L37.8221 2.16336L38.3327 2.34122L38.8384 2.52989L39.3418 2.72697L39.8404 2.93486L40.3342 3.15117L40.8243 3.3783L41.3109 3.61624L41.7926 3.86259L42.2696 4.11856L42.7417 4.38414L43.2103 4.65933L43.6728 4.94414L44.1317 5.23735L44.5846 5.54139L45.0328 5.85384L45.4761 6.1759L45.9134 6.50757L46.3459 6.84766L46.7736 7.19735L47.1952 7.55547L47.6109 7.92319L48.0206 8.30053L48.4255 8.68628L48.8243 9.08044L49.216 9.48422L49.6028 9.89641L49.9825 10.317L50.5639 10.9948L51.119 11.6894L51.65 12.3996L52.1545 13.1254L52.6339 13.8645L53.088 14.618L53.5169 15.3834L53.9194 16.1622L54.2966 16.9517L54.6486 17.752L54.9742 18.562L55.2745 19.3816L55.5485 20.2095L55.7959 21.0447L56.0182 21.8871L56.214 22.7356L56.3834 23.59L56.5264 24.4492L56.6429 25.312L56.7342 26.1785L56.7979 27.0473L56.8351 27.9186L56.8459 28.791L56.8303 29.6635L56.7883 30.5347L56.7186 31.4059L56.6225 32.2748L56.5 33.1424L56.3498 34.0053L56.1732 34.8645L55.9689 35.7189L55.7371 36.5685L55.4788 37.4109L55.1928 38.2473L54.8805 39.0753L54.5393 39.8961L54.1717 40.706L53.7752 41.5076L53.3523 42.2971L52.9018 43.077L52.3167 44.0083L51.7016 44.9096L51.0565 45.7809L50.3837 46.6209L49.6845 47.4296L48.9589 48.2071L48.208 48.9522L47.4331 49.666L46.6354 50.3462L45.8149 50.9939L44.9751 51.6092L44.1149 52.1908L43.2355 52.7388L42.3381 53.2532L41.425 53.7326L40.4963 54.1773L39.5521 54.5883L38.5958 54.9632L37.625 55.3033L36.6447 55.6061L35.6536 55.8741L34.6528 56.106L33.6437 56.3007L32.6273 56.4581L31.6049 56.5783L30.5765 56.6612L29.5445 56.7057L28.5102 56.7129L27.4734 56.6805L26.4354 56.6095L25.3974 56.5002L24.3606 56.3512L23.3262 56.1625L22.2954 55.933L21.2682 55.6638L20.2471 55.3537L19.2319 55.0028L18.2239 54.6111L17.2244 54.1773L16.2344 53.7014L15.4391 53.2844L14.6606 52.8434L13.9002 52.3795L13.1577 51.8952L12.4345 51.3881L11.7293 50.8605L11.0445 50.3125L10.3777 49.7453L9.73137 49.1589L9.10545 48.5544L8.49875 47.9319L7.91368 47.2914L7.34903 46.6341L6.806 45.9611L6.2846 45.2725L5.78483 44.5695L5.30668 43.8509L4.85256 43.1191L4.42006 42.374L4.01039 41.6157L3.62474 40.8466L3.26193 40.0643L2.92434 39.2724L2.60958 38.4696L2.32124 37.6573L2.05574 36.8353L1.81666 36.0049L1.60282 35.1673L1.4154 34.3213L1.25322 33.4693L1.11746 32.6101L1.00934 31.7448L0.927641 30.876L0.873579 30.0023L0.845947 29.1239L0.847149 28.2418L0.877183 27.3586L0.93485 26.4717L1.02135 25.5836L1.13788 24.6944L1.1499 24.6078L1.16431 24.5177L1.17873 24.4252L1.19435 24.329L1.21117 24.2305L1.22919 24.1307L1.24601 24.0274L1.26523 23.9228L1.28445 23.8171L1.30367 23.7101L1.3241 23.602L1.34572 23.4926L1.36615 23.3833L1.38777 23.2727L1.4094 23.1622L1.43222 23.0528L1.45385 22.9422L1.47667 22.8329L1.4995 22.7235L1.52233 22.6154L1.54515 22.5096L1.56798 22.4039L1.5908 22.3005L1.61363 22.1984L1.63525 22.0986L1.65808 22.0013L1.67971 21.9052L1.70133 21.8138L1.72296 21.7237L1.74338 21.6384L1.7638 21.5555L1.78423 21.4774L1.80345 21.4016L1.82267 21.3307L1.84069 21.2647L1.85751 21.2022L1.87433 21.1457L1.88995 21.0928L1.90557 21.0459L1.91998 21.0051L1.92239 20.9979L1.92479 20.9895L1.92839 20.9798L1.932 20.9702L1.9356 20.9606L1.93921 20.9486L1.94281 20.9378L1.94641 20.9246L1.95122 20.9113L1.95602 20.8981L1.95963 20.8837L1.96443 20.8693L1.96924 20.8537L1.97405 20.838L1.98005 20.8212L1.98486 20.8044L1.99086 20.7876L1.99567 20.7695L2.00168 20.7515L2.00768 20.7335L2.01249 20.7155L2.0185 20.6962L2.0245 20.677L2.03051 20.6566L2.03652 20.6374L2.04372 20.6169L2.04973 20.5965L2.05574 20.5761L2.06175 20.5544L2.06775 20.534L2.07496 20.5124L2.08097 20.4919L2.08697 20.4703L2.09418 20.4487L2.10019 20.4283L2.1062 20.4066L2.11341 20.385L2.11941 20.3634L2.12542 20.3429L2.13143 20.3213L2.41615 19.4176L2.73212 18.5295L3.07932 17.6571L3.45655 16.7991L3.86262 15.9591L4.29872 15.1347L4.76245 14.3283L5.25261 13.54L5.76921 12.7697L6.31223 12.0186L6.88049 11.2868L7.47277 10.5754L8.08788 9.88319L8.72701 9.21263L9.38777 8.56371L10.069 7.93641L10.7718 7.33195L11.4938 6.75031L12.235 6.19272L12.9943 5.65795L13.7716 5.14843L14.5657 4.66293L15.3755 4.20388L16.2008 3.77006L17.0406 3.36388L17.8948 2.98293L18.7621 2.63083L19.6416 2.30637L20.5318 2.01074L21.434 1.74396L22.3459 1.50602L23.2673 1.29813L24.1972 1.12147L25.1355 0.976066L26.081 0.861903L27.0325 0.778985L27.99 0.729715L28.9523 0.712891L29.9182 0.729715L30.8889 0.780186L31.4391 0.824649L31.987 0.878727ZM33.8227 11.4478L33.6941 11.449H33.5668L33.4418 11.4502L33.3193 11.4514L33.198 11.4526L33.079 11.4538L32.9625 11.455L32.8471 11.4574L32.7342 11.4586L32.6237 11.461L32.5144 11.4622L32.4086 11.4647L32.3041 11.4671L32.202 11.4683L32.1023 11.4707L32.0038 11.4731L31.9089 11.4755L31.8164 11.4779L31.7251 11.4815L31.6374 11.4839L31.5509 11.4863L31.468 11.4899L31.3863 11.4923L31.3082 11.4959L31.2325 11.4995L31.1592 11.5019L31.0883 11.5055L31.0198 11.5091L30.955 11.5127L30.8925 11.5163L30.8324 11.5199L30.7748 11.5247L30.7207 11.5283L30.669 11.5319L30.6198 11.5368L30.5741 11.5404L30.5309 11.5452L30.2858 11.5728L30.0467 11.604L29.8137 11.6401L29.5842 11.6798L29.3607 11.7242L29.1421 11.7723L28.9294 11.8252L28.7204 11.8816L28.5174 11.9429L28.3191 12.0078L28.1269 12.0775L27.9383 12.1508L27.7557 12.2289L27.5779 12.3107L27.4049 12.3972L27.2367 12.4885L27.0733 12.5834L26.9147 12.6832L26.7621 12.7865L26.6132 12.8947L26.469 13.0077L26.3297 13.1254L26.1963 13.2468L26.0666 13.373L25.9416 13.5028L25.8215 13.6386L25.7049 13.778L25.5944 13.9222L25.4887 14.0712L25.3866 14.225L25.2893 14.3824L25.1968 14.5459L25.1078 14.7129L25.025 14.8847L24.9457 15.0614L24.8712 15.2428L24.8003 15.4291L24.7342 15.619L24.6729 15.8149L24.6153 16.0156L24.6021 16.0636L24.5901 16.1081L24.578 16.1525L24.5672 16.1946L24.5576 16.2367L24.5468 16.2775L24.5384 16.3184L24.5288 16.3592L24.5204 16.4001L24.5132 16.4422L24.506 16.4854L24.4987 16.5299L24.4927 16.5768L24.4867 16.626L24.4807 16.6777L24.4759 16.733L24.4699 16.7907L24.4663 16.8531L24.4615 16.9192L24.4579 16.9889L24.4543 17.0646L24.4507 17.1452L24.4483 17.2317L24.4447 17.323L24.4423 17.4216L24.4399 17.5261L24.4375 17.6379L24.4351 17.758L24.4327 17.8842L24.4315 18.02L24.4291 18.163L24.4279 18.3156L24.4255 18.4767L24.4243 18.6473L24.4231 18.8288L24.4207 19.0198L24.4195 19.2217L24.4183 19.4344L24.4159 19.658L24.4147 19.8947L24.3894 23.1225H20.6411V29.2044H24.399V47.1076H31.5028V29.1359H36.5378L36.5834 28.5723L36.5858 28.5483L36.5882 28.523L36.5895 28.4954L36.5919 28.4665L36.5943 28.4365L36.5979 28.4053L36.6003 28.3716L36.6027 28.3368L36.6063 28.3019L36.6087 28.2647L36.6123 28.2274L36.6159 28.1877L36.6195 28.1481L36.6219 28.1072L36.6255 28.0652L36.6291 28.0219L36.6339 27.9786L36.6375 27.9342L36.6411 27.8897L36.6447 27.8428L36.6495 27.7972L36.6531 27.7503L36.6567 27.7035L36.6615 27.6554L36.6651 27.6073L36.6699 27.5592L36.6735 27.51L36.6784 27.4619L36.682 27.4126L36.6868 27.3634L36.6904 27.3153L36.6952 27.266L36.6988 27.2168L36.7036 27.1675L36.7084 27.1194L36.712 27.0713L36.7168 27.0233L36.7204 26.9752L36.7252 26.9283L36.7288 26.8815L36.748 26.6676L36.7661 26.4621L36.7841 26.265L36.7997 26.0775L36.8165 25.8973L36.8309 25.7242L36.8453 25.5596L36.8598 25.4022L36.873 25.2531L36.885 25.1101L36.897 24.9756L36.909 24.8458L36.9198 24.7244L36.9294 24.609L36.9391 24.4997L36.9475 24.3963L36.9559 24.299L36.9643 24.2077L36.9715 24.1223L36.9787 24.0418L36.9847 23.9661L36.9907 23.8952L36.9967 23.8303L37.0015 23.769L37.0063 23.7125L37.0099 23.6609L37.0135 23.6128L37.0171 23.5683L37.0207 23.5275L37.0232 23.4914L37.0256 23.4578L37.028 23.4277L37.0292 23.4001L37.0316 23.3749L37.0328 23.3532L37.034 23.334V23.3172L37.0352 23.3016V23.2883V23.2763L37.0364 23.1225H31.4908L31.5172 20.9534L31.5208 20.7071L31.5232 20.4727L31.5268 20.2504L31.5304 20.0401L31.5352 19.8418L31.54 19.6556L31.5485 19.4789L31.5581 19.3131L31.5701 19.158L31.5845 19.0138L31.6025 18.878L31.6241 18.7519L31.6494 18.6341L31.6782 18.5259L31.7118 18.4262L31.7503 18.3337L31.7947 18.2495L31.844 18.1714L31.8993 18.1017L31.9617 18.038L32.0302 17.9816L32.1059 17.9299L32.1888 17.8842L32.2789 17.8446L32.3786 17.8085L32.4855 17.7785L32.6021 17.752L32.727 17.7304L32.8616 17.7112L33.0069 17.6968L33.1619 17.6847L33.3277 17.6751L33.5043 17.6679L33.6917 17.6631L33.8911 17.6595L34.1038 17.6571H34.3273L34.5651 17.6559H34.815H35.0781H37.0364V11.4382L34.2191 11.4466H34.0846H33.9524L33.8227 11.4478Z" fill="white"/>
</svg>
