<?xml version="1.0" encoding="UTF-8" standalone="no"?>
<!DOCTYPE svg PUBLIC "-//W3C//DTD SVG 1.1//EN" "http://www.w3.org/Graphics/SVG/1.1/DTD/svg11.dtd">
<svg version="1.1" xmlns="http://www.w3.org/2000/svg" xmlns:xlink="http://www.w3.org/1999/xlink" preserveAspectRatio="xMidYMid meet" viewBox="0 0 640 640" width="640" height="640"><defs><path d="M326.42 98.18L333.34 98.78L340.2 99.62L346.98 100.7L353.69 102L360.32 103.53L366.87 105.28L373.33 107.25L379.7 109.44L385.96 111.83L392.13 114.43L398.19 117.23L404.15 120.23L409.98 123.42L415.7 126.81L421.3 130.37L426.76 134.12L432.1 138.04L437.3 142.14L442.36 146.41L447.27 150.84L452.03 155.43L456.64 160.18L461.09 165.08L465.37 170.12L469.49 175.32L473.44 180.65L477.21 186.11L480.8 191.71L484.2 197.44L487.42 203.29L490.44 209.26L493.26 215.34L495.88 221.54L498.3 227.84L500.5 234.25L502.48 240.76L504.25 247.35L505.79 254.04L507.1 260.82L508.18 267.68L509.15 275.87L509.78 284.01L510.07 292.11L510.04 300.15L509.68 308.12L509.01 316.03L508.02 323.86L506.73 331.61L505.13 339.27L503.24 346.82L501.07 354.27L498.6 361.61L495.86 368.83L492.84 375.91L489.56 382.87L486.02 389.68L482.22 396.34L478.16 402.84L473.87 409.18L469.33 415.34L464.56 421.33L459.56 427.13L454.34 432.74L448.9 438.15L443.24 443.35L437.39 448.33L431.33 453.1L425.07 457.63L418.63 461.92L412 465.97L405.2 469.77L398.22 473.31L391.07 476.58L383.76 479.58L376.3 482.3L368.68 484.73L360.92 486.87L353.02 488.7L344.99 490.23L336.83 491.43L334.59 491.7L332.31 491.94L330 492.14L327.66 492.32L325.3 492.46L322.9 492.58L320.49 492.66L318.05 492.72L315.6 492.74L313.13 492.74L310.65 492.71L308.15 492.65L305.65 492.56L303.14 492.45L300.63 492.31L298.12 492.14L295.61 491.94L293.1 491.72L290.6 491.47L288.1 491.2L285.62 490.9L283.15 490.57L280.7 490.22L278.26 489.84L275.85 489.44L273.45 489.02L271.09 488.57L268.75 488.09L266.44 487.6L264.16 487.08L261.92 486.54L259.72 485.97L257.55 485.38L255.43 484.77L253.35 484.14L251.32 483.49L249.34 482.81L247.41 482.12L245.54 481.4L243.72 480.67L243.67 480.64L243.61 480.62L243.54 480.59L243.46 480.56L243.38 480.53L243.3 480.49L243.2 480.45L243.1 480.41L243 480.37L242.89 480.33L242.77 480.28L242.65 480.23L242.53 480.18L242.4 480.13L242.26 480.07L242.12 480.02L241.98 479.96L241.83 479.9L241.68 479.84L241.52 479.78L241.36 479.72L241.2 479.65L241.04 479.59L240.87 479.52L240.7 479.45L240.52 479.38L240.35 479.31L240.17 479.24L239.99 479.17L239.81 479.1L239.62 479.02L239.44 478.95L239.25 478.88L239.07 478.8L238.88 478.73L238.69 478.65L238.5 478.58L238.31 478.51L238.12 478.43L237.93 478.36L233.11 476.38L228.36 474.27L223.67 472.02L219.05 469.65L214.51 467.15L210.04 464.53L205.64 461.79L201.33 458.93L197.09 455.96L192.93 452.87L188.86 449.68L184.87 446.37L180.98 442.97L177.17 439.46L173.45 435.85L169.83 432.14L166.3 428.34L162.88 424.45L159.55 420.47L156.32 416.4L153.2 412.25L150.19 408.02L147.28 403.71L144.49 399.32L141.8 394.86L139.23 390.34L136.78 385.74L134.44 381.08L132.23 376.35L130.14 371.57L128.17 366.73L126.33 361.83L124.62 356.88L123.04 351.88L121.59 346.84L120.28 341.75L119.1 336.62L118.06 331.45L117.16 326.24L116.41 321L115.42 311.73L114.86 302.54L114.72 293.42L115 284.39L115.68 275.46L116.76 266.64L118.23 257.94L120.07 249.37L122.29 240.94L124.86 232.65L127.79 224.51L131.06 216.54L134.67 208.75L138.6 201.14L142.85 193.72L147.4 186.5L152.26 179.49L157.41 172.71L162.84 166.16L168.54 159.84L174.5 153.78L180.73 147.97L187.2 142.43L193.9 137.16L200.84 132.19L208 127.5L215.36 123.12L222.94 119.06L230.7 115.32L238.65 111.91L246.78 108.85L255.07 106.13L263.53 103.78L272.13 101.79L280.88 100.19L289.76 98.97L298.76 98.15L307.88 97.74L317.1 97.75L326.42 98.18ZM290.33 185.6L287.39 185.61L284.57 185.62L281.88 185.64L279.33 185.66L276.94 185.69L274.72 185.72L272.68 185.76L270.84 185.8L269.21 185.84L267.8 185.89L266.62 185.95L263.83 186.12L261.1 186.36L258.43 186.66L255.81 187.01L253.25 187.42L250.76 187.88L248.32 188.4L245.94 188.99L243.62 189.62L241.35 190.32L239.15 191.07L237.01 191.88L234.92 192.75L232.89 193.67L230.92 194.65L229.02 195.69L227.16 196.79L225.37 197.94L223.64 199.15L221.97 200.42L220.35 201.74L218.8 203.12L217.3 204.56L215.86 206.06L214.48 207.61L213.16 209.23L211.9 210.9L210.69 212.62L209.55 214.4L208.46 216.25L207.43 218.14L206.46 220.1L205.55 222.11L204.7 224.18L203.91 226.31L203.18 228.5L202.5 230.74L201.89 233.04L201.33 235.39L200.83 237.81L200.6 239.16L200.38 240.78L200.18 242.65L199.98 244.75L199.8 247.07L199.63 249.6L199.46 252.32L199.31 255.22L199.18 258.28L199.05 261.5L198.93 264.86L198.83 268.34L198.74 271.93L198.66 275.62L198.59 279.39L198.53 283.23L198.48 287.12L198.44 291.06L198.42 295.02L198.41 299L198.41 302.98L198.42 306.95L198.44 310.88L198.48 314.78L198.52 318.62L198.58 322.39L198.65 326.08L198.73 329.68L198.82 333.16L198.93 336.52L199.05 339.74L199.18 342.81L199.32 345.72L199.47 348.44L199.63 350.97L199.81 353.3L200 355.41L200.2 357.28L200.41 358.9L200.63 360.26L201.05 362.33L201.51 364.37L202.02 366.36L202.57 368.32L203.17 370.24L203.82 372.12L204.5 373.96L205.24 375.76L206.02 377.52L206.84 379.24L207.7 380.92L208.61 382.56L209.57 384.16L210.56 385.72L211.6 387.24L212.68 388.72L213.81 390.15L214.97 391.54L216.18 392.89L217.43 394.2L218.73 395.47L220.06 396.69L221.43 397.87L222.85 399.01L224.31 400.1L225.8 401.15L227.34 402.16L228.91 403.12L230.53 404.04L232.19 404.91L233.88 405.74L235.61 406.52L237.38 407.25L239.19 407.94L241.04 408.59L242.93 409.19L244.85 409.74L246.82 410.24L248.81 410.7L250.85 411.11L252.22 411.34L253.86 411.56L255.74 411.76L257.85 411.96L260.18 412.14L262.72 412.31L265.45 412.47L268.35 412.62L271.42 412.76L274.64 412.89L278 413.01L281.49 413.11L285.08 413.2L288.76 413.28L292.53 413.35L296.37 413.41L300.26 413.46L304.2 413.5L308.16 413.52L312.13 413.53L316.11 413.53L320.07 413.52L324 413.5L327.9 413.47L331.74 413.42L335.51 413.37L339.19 413.3L342.78 413.22L346.27 413.12L349.63 413.02L352.85 412.9L355.92 412.78L358.83 412.64L361.56 412.49L364.09 412.32L366.42 412.15L368.54 411.96L370.42 411.76L372.05 411.55L373.42 411.33L375.7 410.88L377.92 410.37L380.09 409.82L382.21 409.22L384.28 408.56L386.31 407.85L388.28 407.09L390.21 406.28L392.08 405.42L393.91 404.5L395.69 403.54L397.41 402.52L399.09 401.45L400.72 400.33L402.3 399.16L403.83 397.94L405.31 396.67L406.74 395.34L408.12 393.97L409.45 392.54L410.73 391.06L411.96 389.53L413.14 387.95L414.27 386.32L415.36 384.64L416.39 382.9L417.37 381.12L418.3 379.28L419.19 377.39L420.02 375.45L420.8 373.47L421.54 371.42L422.22 369.33L422.85 367.19L423.44 365L423.97 362.75L424.45 360.46L424.89 358.11L425.27 355.72L425.61 353.27L425.69 352.45L425.76 351.33L425.83 349.94L425.9 348.27L425.96 346.36L426.02 344.22L426.07 341.85L426.11 339.29L426.16 336.53L426.19 333.61L426.23 330.53L426.26 327.31L426.28 323.96L426.3 320.51L426.32 316.96L426.33 313.34L426.33 309.65L426.33 305.92L426.33 302.16L426.33 298.38L426.31 294.6L426.3 290.84L426.28 287.12L426.26 283.44L426.23 279.82L426.2 276.28L426.16 272.84L426.12 269.51L426.08 266.3L426.03 263.24L425.98 260.33L425.93 257.6L425.87 255.05L425.81 252.71L425.74 250.59L425.67 248.71L425.6 247.07L425.52 245.71L425.44 244.62L425.35 243.84L424.98 241.33L424.55 238.87L424.07 236.48L423.54 234.14L422.95 231.85L422.3 229.62L421.61 227.45L420.85 225.33L420.05 223.27L419.18 221.26L418.27 219.31L417.3 217.41L416.27 215.57L415.19 213.79L414.05 212.06L412.86 210.39L411.62 208.77L410.32 207.2L408.96 205.69L407.55 204.24L406.08 202.84L404.56 201.5L402.99 200.21L401.35 198.97L399.67 197.79L397.92 196.67L396.12 195.59L394.27 194.58L392.36 193.62L390.39 192.71L388.37 191.85L386.29 191.05L384.16 190.31L381.97 189.62L379.72 188.98L377.42 188.4L375.06 187.87L372.65 187.39L370.18 186.97L367.65 186.6L367.02 186.54L366.12 186.47L364.97 186.41L363.59 186.35L361.98 186.29L360.16 186.23L358.14 186.18L355.94 186.12L353.57 186.07L351.04 186.02L348.36 185.98L345.55 185.93L342.62 185.89L339.59 185.85L336.46 185.81L333.26 185.77L329.99 185.74L326.66 185.71L323.3 185.69L319.91 185.66L316.5 185.64L313.09 185.62L309.7 185.61L306.33 185.6L303 185.59L299.72 185.59L296.51 185.59L293.37 185.59L290.33 185.6ZM325.74 205.71L328.6 205.73L331.4 205.74L334.13 205.76L336.78 205.79L339.34 205.82L341.8 205.85L344.15 205.9L346.37 205.94L348.47 206L350.44 206.06L352.25 206.12L353.91 206.19L356.4 206.33L358.82 206.5L361.16 206.71L363.43 206.95L365.63 207.22L367.76 207.54L369.82 207.89L371.81 208.28L373.73 208.72L375.58 209.19L377.37 209.7L379.09 210.26L380.75 210.86L382.34 211.5L383.88 212.19L385.35 212.92L386.76 213.7L388.12 214.52L389.41 215.4L390.65 216.32L391.84 217.29L392.96 218.31L394.04 219.39L395.06 220.51L396.03 221.69L396.95 222.92L397.83 224.21L398.65 225.55L399.42 226.94L400.15 228.4L400.84 229.91L401.47 231.48L402.07 233.1L402.62 234.79L403.14 236.54L403.61 238.35L404.04 240.22L404.43 242.16L404.79 244.16L405.11 246.22L405.2 246.97L405.28 247.99L405.35 249.29L405.43 250.85L405.5 252.64L405.56 254.66L405.63 256.89L405.68 259.32L405.74 261.93L405.79 264.7L405.84 267.63L405.88 270.68L405.92 273.86L405.95 277.15L405.98 280.53L406.01 283.98L406.03 287.5L406.05 291.06L406.06 294.65L406.07 298.26L406.08 301.87L406.08 305.46L406.08 309.03L406.07 312.56L406.06 316.02L406.04 319.42L406.02 322.72L406 325.92L405.97 329L405.93 331.96L405.9 334.76L405.85 337.4L405.8 339.86L405.75 342.13L405.69 344.19L405.63 346.03L405.57 347.63L405.49 348.98L405.42 350.06L405.34 350.86L405.09 352.63L404.82 354.35L404.53 356.03L404.2 357.66L403.84 359.26L403.46 360.81L403.04 362.31L402.6 363.78L402.13 365.21L401.62 366.59L401.09 367.93L400.52 369.24L399.92 370.5L399.29 371.73L398.63 372.91L397.93 374.06L397.21 375.17L396.45 376.24L395.65 377.28L394.82 378.28L393.96 379.24L393.06 380.16L392.13 381.05L391.16 381.91L390.16 382.73L389.12 383.51L388.04 384.26L386.93 384.98L385.78 385.67L384.59 386.32L383.37 386.94L382.11 387.53L380.8 388.08L379.46 388.61L378.08 389.1L376.67 389.56L375.21 390L373.71 390.4L372.17 390.78L370.59 391.12L369.45 391.33L368.04 391.52L366.38 391.7L364.48 391.87L362.36 392.03L360.02 392.18L357.49 392.32L354.78 392.45L351.89 392.57L348.85 392.68L345.67 392.78L342.36 392.87L338.94 392.94L335.41 393.01L331.81 393.07L328.12 393.11L324.39 393.15L320.61 393.18L316.79 393.19L312.97 393.2L309.14 393.19L305.32 393.17L301.53 393.15L297.78 393.11L294.08 393.06L290.45 393.01L286.9 392.94L283.45 392.86L280.11 392.77L276.89 392.67L273.8 392.56L270.88 392.45L268.11 392.32L265.53 392.17L263.13 392.02L260.95 391.86L258.99 391.69L257.26 391.51L255.78 391.32L254.57 391.12L253.07 390.81L251.6 390.46L250.16 390.08L248.75 389.67L247.38 389.22L246.03 388.74L244.72 388.22L243.45 387.67L242.2 387.08L240.99 386.46L239.81 385.81L238.66 385.12L237.55 384.4L236.46 383.64L235.41 382.85L234.4 382.03L233.41 381.17L232.46 380.28L231.55 379.36L230.66 378.4L229.81 377.41L229 376.39L228.21 375.33L227.46 374.24L226.75 373.12L226.07 371.97L225.42 370.78L224.8 369.56L224.22 368.31L223.68 367.03L223.16 365.71L222.69 364.36L222.24 362.98L221.83 361.57L221.46 360.13L221.12 358.65L220.81 357.14L220.54 355.6L220.31 354.03L220.1 352.43L219.94 350.83L219.79 349.02L219.65 347.01L219.51 344.81L219.39 342.44L219.28 339.9L219.18 337.21L219.09 334.37L219.01 331.41L218.94 328.34L218.88 325.16L218.83 321.88L218.79 318.53L218.76 315.1L218.74 311.62L218.73 308.1L218.73 304.54L218.73 300.96L218.75 297.37L218.77 293.78L218.81 290.2L218.85 286.65L218.9 283.14L218.96 279.68L219.03 276.29L219.11 272.96L219.19 269.72L219.29 266.58L219.39 263.55L219.5 260.64L219.62 257.86L219.74 255.23L219.88 252.76L220.02 250.45L220.17 248.32L220.32 246.39L220.49 244.66L220.66 243.15L220.84 241.87L221.02 240.83L221.34 239.37L221.69 237.95L222.07 236.56L222.48 235.21L222.93 233.88L223.4 232.58L223.91 231.32L224.45 230.08L225.02 228.88L225.62 227.71L226.25 226.57L226.92 225.46L227.61 224.38L228.34 223.33L229.1 222.32L229.89 221.33L230.71 220.38L231.56 219.46L232.45 218.56L233.36 217.71L234.31 216.88L235.28 216.08L236.29 215.32L237.33 214.58L238.4 213.88L239.5 213.21L240.64 212.57L241.8 211.96L243 211.38L244.22 210.84L245.48 210.33L246.77 209.84L248.09 209.39L249.44 208.97L250.82 208.59L252.23 208.23L253.67 207.91L255.15 207.62L256.65 207.36L258.19 207.13L258.99 207.03L260 206.94L261.2 206.85L262.58 206.76L264.13 206.68L265.84 206.59L267.71 206.52L269.72 206.44L271.87 206.37L274.14 206.3L276.53 206.23L279.02 206.17L281.62 206.11L284.29 206.06L287.05 206L289.88 205.96L292.76 205.91L295.7 205.87L298.67 205.84L301.68 205.81L304.71 205.78L307.75 205.76L310.8 205.74L313.84 205.72L316.86 205.71L319.86 205.71L322.82 205.71L325.74 205.71ZM308.48 240.95L305.92 241.21L302.34 241.76L298.87 242.5L295.5 243.42L292.25 244.52L289.11 245.79L286.08 247.22L283.18 248.81L280.4 250.55L277.74 252.43L275.21 254.44L272.81 256.58L270.55 258.84L268.41 261.21L266.42 263.68L264.57 266.25L262.85 268.91L261.29 271.66L259.87 274.47L258.6 277.36L257.48 280.31L256.52 283.31L255.72 286.35L255.07 289.44L254.59 292.55L254.28 295.69L254.13 298.85L254.16 302.01L254.36 305.18L254.73 308.34L255.28 311.49L256.01 314.62L256.93 317.72L258.03 320.78L259.32 323.81L260.81 326.78L262.48 329.7L264.35 332.56L266.42 335.34L268.7 338.05L271.17 340.66L273.99 343.31L276.89 345.72L279.87 347.9L282.93 349.86L286.05 351.59L289.23 353.11L292.46 354.41L295.72 355.5L299.02 356.38L302.34 357.06L305.67 357.53L309.01 357.81L312.35 357.89L315.67 357.79L318.98 357.49L322.26 357.01L325.5 356.35L328.7 355.52L331.85 354.51L334.94 353.33L337.96 351.98L340.9 350.47L343.75 348.81L346.51 346.98L349.17 345L351.71 342.87L354.14 340.6L356.44 338.19L358.6 335.63L360.62 332.94L362.48 330.12L364.19 327.17L365.72 324.09L367.08 320.9L368.25 317.58L369.23 314.15L370 310.61L370.56 306.96L370.91 303.2L371.02 299.35L370.96 296.76L370.79 294.19L370.51 291.66L370.12 289.16L369.62 286.7L369.02 284.27L368.32 281.89L367.53 279.55L366.63 277.25L365.65 275L364.58 272.81L363.41 270.66L362.17 268.57L360.84 266.54L359.43 264.56L357.95 262.65L356.39 260.8L354.76 259.02L353.06 257.31L351.29 255.66L349.46 254.09L347.56 252.6L345.61 251.18L343.6 249.84L341.54 248.59L339.43 247.42L337.27 246.33L335.06 245.34L332.81 244.44L330.52 243.63L328.19 242.92L325.82 242.3L323.42 241.79L321 241.38L318.54 241.07L316.06 240.88L313.55 240.79L311.03 240.81L308.48 240.95ZM316.8 261.52L319.27 261.88L321.77 262.4L323.51 262.87L325.2 263.4L326.86 264.01L328.46 264.69L330.02 265.44L331.53 266.26L332.99 267.14L334.4 268.08L335.76 269.07L337.06 270.13L338.32 271.24L339.52 272.4L340.66 273.61L341.75 274.86L342.78 276.16L343.75 277.51L344.66 278.89L345.51 280.31L346.3 281.77L347.02 283.26L347.68 284.78L348.28 286.33L348.81 287.9L349.27 289.5L349.66 291.12L349.99 292.76L350.24 294.41L350.42 296.08L350.53 297.76L350.57 299.45L350.53 301.15L350.41 302.86L350.22 304.56L349.95 306.27L349.6 307.97L349.17 309.67L348.66 311.37L348.06 313.05L347.38 314.72L346.62 316.38L345.62 318.3L344.53 320.12L343.36 321.86L342.1 323.5L340.78 325.05L339.38 326.51L337.91 327.88L336.38 329.16L334.79 330.35L333.15 331.45L331.46 332.45L329.73 333.36L327.95 334.18L326.14 334.9L324.3 335.53L322.43 336.07L320.54 336.51L318.63 336.86L316.7 337.11L314.77 337.27L312.83 337.34L310.88 337.31L308.95 337.18L307.01 336.96L305.1 336.64L303.19 336.23L301.31 335.72L299.46 335.11L297.63 334.41L295.84 333.61L294.08 332.71L292.37 331.71L290.7 330.62L289.09 329.43L287.53 328.14L286.04 326.75L284.6 325.26L283.24 323.67L281.95 321.99L280.74 320.2L279.42 318L278.28 315.78L277.29 313.54L276.46 311.29L275.79 309.03L275.26 306.76L274.88 304.5L274.65 302.24L274.55 299.99L274.59 297.75L274.76 295.54L275.07 293.35L275.49 291.2L276.04 289.07L276.71 286.99L277.49 284.96L278.39 282.97L279.39 281.04L280.5 279.17L281.71 277.36L283.02 275.62L284.42 273.96L285.91 272.38L287.49 270.88L289.15 269.47L290.9 268.15L292.72 266.94L294.61 265.83L296.57 264.82L298.6 263.93L300.69 263.16L302.85 262.52L305.05 262L307.31 261.62L309.62 261.37L311.97 261.27L314.37 261.32L316.8 261.52ZM327.68 259.56L327.7 260.19L327.68 260.84L327.62 261.44L327.54 261.77L327.48 261.68L327.43 261.2L327.41 260.37L327.43 259.51L327.47 258.98L327.53 258.8L327.61 259.03L327.68 259.56ZM372.02 225.15L371.24 225.24L370.48 225.37L369.75 225.53L369.05 225.73L368.39 225.96L367.78 226.23L365.6 227.54L363.8 229.09L362.35 230.84L361.27 232.75L360.52 234.77L360.12 236.86L360.04 238.97L360.29 241.07L360.85 243.1L361.71 245.03L362.86 246.81L364.3 248.39L366.02 249.74L368.01 250.8L370.26 251.54L372.77 251.91L375.4 251.84L377.8 251.34L379.96 250.44L381.85 249.19L383.47 247.66L384.81 245.89L385.84 243.92L386.56 241.83L386.95 239.64L387.01 237.42L386.71 235.21L386.04 233.07L384.99 231.05L383.56 229.2L381.71 227.57L379.45 226.21L378.83 225.94L378.17 225.71L377.47 225.51L376.74 225.35L375.98 225.23L375.2 225.14L374.41 225.09L373.61 225.07L372.81 225.09L372.02 225.15ZM327.68 198.32L327.7 198.95L327.68 199.6L327.62 200.2L327.54 200.53L327.48 200.44L327.43 199.96L327.41 199.13L327.43 198.28L327.47 197.74L327.53 197.56L327.61 197.79L327.68 198.32ZM211.92 191.85L211.83 191.92L212.15 192L212.76 192.06L213.41 192.08L214.04 192.06L214.56 191.99L214.79 191.91L214.62 191.85L214.08 191.8L213.23 191.79L212.4 191.81L211.92 191.85ZM185.54 136.4L185.69 136.47L185.38 136.54L184.76 136.61L184.06 136.63L183.35 136.61L182.73 136.54L182.43 136.47L182.57 136.4L183.13 136.36L184.06 136.34L184.98 136.36L185.54 136.4ZM241.4 136.4L241.25 136.47L241.56 136.54L242.18 136.61L242.89 136.63L243.59 136.61L244.21 136.54L244.52 136.47L244.37 136.4L243.81 136.36L242.89 136.34L241.96 136.36L241.4 136.4ZM219.33 115.69L221.6 115.7L223.33 115.72L224.47 115.73L225.01 115.75L224.92 115.78L224.17 115.8L222.72 115.83L220.81 115.85L218.72 115.87L216.49 115.88L214.18 115.88L211.85 115.88L209.56 115.88L207.35 115.87L205.29 115.85L203.43 115.83L202.04 115.8L201.34 115.78L201.3 115.75L201.88 115.73L203.06 115.72L204.82 115.7L207.11 115.69L209.93 115.69L213.23 115.68L216.53 115.69L219.33 115.69Z" id="d1a1yeaflH"></path></defs><g><g><g><use xlink:href="#d1a1yeaflH" opacity="1" fill="#ffffff" fill-opacity="1"></use><g><use xlink:href="#d1a1yeaflH" opacity="1" fill-opacity="0" stroke="#000000" stroke-width="1" stroke-opacity="0"></use></g></g></g></g></svg>