<?xml version="1.0" encoding="UTF-8" standalone="no"?>
<!DOCTYPE svg PUBLIC "-//W3C//DTD SVG 1.1//EN" "http://www.w3.org/Graphics/SVG/1.1/DTD/svg11.dtd">
<svg version="1.1" xmlns="http://www.w3.org/2000/svg" xmlns:xlink="http://www.w3.org/1999/xlink" preserveAspectRatio="xMidYMid meet" viewBox="0 0 640 640" width="640" height="640"><defs><path d="M342.85 11.86L353.6 13.17L364.24 14.87L374.76 16.91L385.16 19.31L395.43 22.05L405.56 25.14L415.55 28.58L425.37 32.32L435.04 36.4L444.55 40.79L453.89 45.5L463.04 50.5L472.01 55.82L480.79 61.4L489.35 67.29L497.73 73.43L505.88 79.87L513.82 86.56L521.52 93.51L528.98 100.71L536.21 108.16L543.19 115.85L549.9 123.75L556.36 131.91L562.56 140.27L568.47 148.83L574.1 157.62L579.43 166.6L584.48 175.78L589.22 185.14L593.64 194.68L597.75 204.4L601.54 214.28L604.99 224.34L608.1 234.55L610.87 244.89L613.29 255.38L615.34 266.01L617.04 276.77L618.56 289.62L619.55 302.39L620 315.09L619.95 327.7L619.39 340.2L618.34 352.61L616.79 364.89L614.76 377.05L612.25 389.06L609.29 400.9L605.89 412.59L602.01 424.1L597.72 435.42L592.98 446.53L587.84 457.45L582.28 468.13L576.32 478.57L569.96 488.77L563.23 498.71L556.11 508.37L548.63 517.77L540.79 526.87L532.6 535.67L524.07 544.15L515.2 552.31L506.02 560.12L496.52 567.6L486.7 574.71L476.6 581.43L466.2 587.79L455.54 593.75L444.59 599.3L433.38 604.43L421.92 609.13L410.22 613.4L398.27 617.21L386.1 620.57L373.71 623.44L361.12 625.84L348.32 627.72L344.81 628.14L341.23 628.52L337.61 628.83L333.94 629.12L330.24 629.34L326.47 629.52L322.69 629.65L318.87 629.74L315.03 629.78L311.15 629.78L307.26 629.73L303.34 629.63L299.42 629.49L295.49 629.32L291.55 629.1L287.61 628.83L283.68 628.52L279.74 628.18L275.82 627.78L271.9 627.36L268.01 626.89L264.14 626.37L260.29 625.82L256.47 625.23L252.69 624.6L248.93 623.94L245.22 623.23L241.55 622.48L237.93 621.71L234.36 620.9L230.84 620.05L227.39 619.16L223.99 618.23L220.67 617.27L217.4 616.29L214.22 615.27L211.12 614.2L208.09 613.12L205.16 611.99L202.3 610.84L202.22 610.8L202.13 610.77L202.02 610.72L201.89 610.67L201.77 610.62L201.64 610.56L201.49 610.5L201.33 610.44L201.17 610.37L201 610.31L200.81 610.23L200.62 610.15L200.44 610.07L200.23 610L200.01 609.9L199.79 609.82L199.57 609.73L199.34 609.64L199.1 609.54L198.85 609.45L198.6 609.35L198.35 609.24L198.1 609.15L197.83 609.04L197.57 608.93L197.28 608.82L197.02 608.71L196.73 608.6L196.45 608.49L196.17 608.38L195.87 608.26L195.59 608.15L195.29 608.04L195.01 607.91L194.71 607.8L194.41 607.68L194.12 607.57L193.82 607.46L193.52 607.33L193.22 607.22L185.66 604.11L178.21 600.81L170.86 597.28L163.61 593.56L156.49 589.64L149.48 585.53L142.58 581.23L135.82 576.74L129.18 572.09L122.65 567.24L116.27 562.24L110.01 557.04L103.91 551.71L97.94 546.21L92.1 540.54L86.43 534.73L80.89 528.76L75.53 522.66L70.3 516.42L65.24 510.04L60.35 503.53L55.63 496.89L51.06 490.13L46.69 483.25L42.47 476.25L38.44 469.16L34.6 461.95L30.93 454.64L27.46 447.22L24.18 439.72L21.09 432.13L18.21 424.45L15.53 416.68L13.05 408.84L10.77 400.93L8.72 392.95L6.87 384.9L5.24 376.79L3.83 368.62L2.65 360.4L1.1 345.86L0.22 331.45L0 317.15L0.44 302.98L1.51 288.98L3.2 275.14L5.5 261.5L8.39 248.05L11.87 234.83L15.9 221.83L20.5 209.06L25.62 196.56L31.29 184.34L37.45 172.41L44.11 160.77L51.25 149.44L58.87 138.45L66.95 127.81L75.46 117.54L84.4 107.63L93.75 98.12L103.52 89.01L113.67 80.32L124.17 72.05L135.06 64.26L146.28 56.9L157.83 50.03L169.71 43.67L181.88 37.8L194.35 32.45L207.1 27.65L220.1 23.38L233.37 19.7L246.86 16.58L260.58 14.07L274.5 12.15L288.62 10.87L302.92 10.23L317.38 10.24L331.99 10.92L342.85 11.86ZM270.79 148.05L266.36 148.06L262.15 148.09L258.15 148.13L254.4 148.17L250.92 148.22L247.72 148.28L244.83 148.35L242.28 148.41L240.06 148.49L238.21 148.58L233.84 148.85L229.56 149.22L225.37 149.69L221.26 150.24L217.25 150.89L213.34 151.61L209.52 152.42L205.78 153.35L202.14 154.34L198.59 155.43L195.13 156.61L191.78 157.88L188.5 159.25L185.32 160.69L182.23 162.23L179.25 163.86L176.33 165.58L173.52 167.39L170.81 169.28L168.19 171.28L165.65 173.35L163.22 175.51L160.87 177.77L158.61 180.12L156.45 182.55L154.38 185.09L152.4 187.71L150.5 190.41L148.72 193.2L147.01 196.11L145.39 199.07L143.87 202.14L142.44 205.3L141.11 208.54L139.87 211.88L138.73 215.32L137.66 218.83L136.7 222.44L135.82 226.13L135.04 229.92L134.68 232.04L134.33 234.58L134.02 237.51L133.71 240.81L133.43 244.45L133.16 248.41L132.89 252.68L132.66 257.23L132.45 262.03L132.25 267.08L132.06 272.35L131.9 277.81L131.76 283.44L131.64 289.23L131.53 295.14L131.43 301.16L131.36 307.26L131.29 313.44L131.26 319.65L131.25 325.9L131.25 332.14L131.26 338.37L131.29 344.53L131.36 350.65L131.42 356.67L131.51 362.58L131.62 368.37L131.75 374.02L131.89 379.48L132.06 384.75L132.25 389.8L132.45 394.61L132.67 399.18L132.91 403.44L133.16 407.41L133.44 411.07L133.74 414.38L134.05 417.31L134.38 419.85L134.73 421.98L135.39 425.23L136.11 428.43L136.91 431.55L137.77 434.62L138.71 437.64L139.73 440.58L140.8 443.47L141.96 446.29L143.18 449.05L144.47 451.75L145.81 454.39L147.24 456.96L148.75 459.47L150.3 461.92L151.93 464.3L153.62 466.62L155.4 468.86L157.22 471.04L159.11 473.16L161.07 475.22L163.11 477.21L165.2 479.12L167.35 480.97L169.57 482.76L171.86 484.47L174.2 486.12L176.61 487.7L179.08 489.21L181.62 490.65L184.22 492.02L186.87 493.32L189.58 494.54L192.36 495.69L195.2 496.77L198.1 497.79L201.06 498.73L204.07 499.59L207.16 500.38L210.28 501.1L213.48 501.74L215.63 502.1L218.2 502.45L221.15 502.76L224.46 503.07L228.11 503.36L232.1 503.62L236.38 503.87L240.93 504.11L245.74 504.33L250.79 504.53L256.06 504.72L261.53 504.88L267.16 505.02L272.93 505.14L278.85 505.25L284.87 505.35L290.97 505.43L297.15 505.49L303.36 505.52L309.58 505.54L315.83 505.54L322.04 505.52L328.2 505.49L334.32 505.44L340.34 505.36L346.25 505.28L352.02 505.17L357.65 505.05L363.12 504.89L368.39 504.74L373.44 504.55L378.26 504.36L382.82 504.14L387.1 503.9L391.07 503.64L394.72 503.37L398.05 503.07L401 502.76L403.55 502.43L405.7 502.08L409.28 501.38L412.76 500.58L416.16 499.72L419.49 498.78L422.73 497.74L425.92 496.63L429.01 495.43L432.03 494.16L434.96 492.82L437.83 491.37L440.63 489.87L443.32 488.27L445.96 486.59L448.51 484.83L450.99 483L453.39 481.08L455.71 479.09L457.95 477L460.12 474.86L462.2 472.61L464.21 470.29L466.14 467.89L467.99 465.41L469.76 462.86L471.47 460.22L473.09 457.49L474.63 454.7L476.08 451.82L477.48 448.85L478.78 445.81L480 442.7L481.16 439.49L482.23 436.21L483.22 432.85L484.14 429.42L484.98 425.89L485.73 422.3L486.42 418.61L487.01 414.86L487.55 411.02L487.67 409.73L487.78 407.98L487.89 405.8L488 403.18L488.1 400.18L488.19 396.82L488.27 393.11L488.33 389.09L488.41 384.76L488.46 380.18L488.52 375.35L488.57 370.3L488.6 365.05L488.63 359.64L488.66 354.07L488.68 348.39L488.68 342.6L488.68 336.75L488.68 330.85L488.68 324.93L488.64 319L488.63 313.1L488.6 307.26L488.57 301.49L488.52 295.81L488.47 290.26L488.41 284.87L488.35 279.64L488.28 274.61L488.21 269.81L488.13 265.24L488.05 260.96L487.95 256.96L487.86 253.29L487.75 249.97L487.64 247.02L487.53 244.45L487.41 242.31L487.28 240.6L487.14 239.38L486.56 235.44L485.88 231.58L485.13 227.84L484.3 224.17L483.38 220.57L482.36 217.08L481.27 213.67L480.08 210.35L478.83 207.12L477.46 203.96L476.04 200.91L474.52 197.93L472.9 195.04L471.21 192.25L469.42 189.53L467.55 186.91L465.61 184.37L463.57 181.91L461.44 179.54L459.22 177.27L456.92 175.07L454.54 172.97L452.07 170.95L449.5 169L446.87 167.15L444.12 165.39L441.3 163.7L438.4 162.12L435.4 160.61L432.31 159.18L429.15 157.83L425.88 156.58L422.54 155.42L419.11 154.34L415.58 153.33L411.97 152.42L408.27 151.59L404.49 150.84L400.62 150.18L396.65 149.6L395.66 149.51L394.25 149.4L392.45 149.3L390.29 149.21L387.76 149.11L384.91 149.02L381.74 148.94L378.29 148.85L374.57 148.77L370.6 148.69L366.4 148.63L361.99 148.55L357.4 148.49L352.65 148.42L347.74 148.36L342.72 148.3L337.59 148.25L332.37 148.2L327.1 148.17L321.79 148.13L316.44 148.09L311.09 148.06L305.77 148.05L300.49 148.03L295.27 148.02L290.12 148.02L285.09 148.02L280.16 148.02L275.4 148.03L270.79 148.05ZM335.41 179.61L339.8 179.62L344.09 179.65L348.24 179.7L352.26 179.75L356.11 179.79L359.8 179.87L363.28 179.93L366.57 180.03L369.66 180.12L372.5 180.22L375.11 180.33L379.01 180.55L382.81 180.81L386.47 181.14L390.03 181.52L393.48 181.94L396.83 182.44L400.06 182.99L403.18 183.6L406.19 184.3L409.09 185.03L411.9 185.83L414.59 186.71L417.2 187.65L419.69 188.66L422.1 189.74L424.41 190.88L426.62 192.11L428.75 193.39L430.78 194.77L432.72 196.22L434.59 197.74L436.34 199.34L438.04 201.03L439.64 202.79L441.16 204.64L442.6 206.57L443.98 208.59L445.27 210.69L446.48 212.87L447.62 215.16L448.7 217.53L449.69 219.99L450.63 222.53L451.49 225.19L452.31 227.93L453.05 230.77L453.72 233.7L454.33 236.75L454.9 239.88L455.4 243.11L455.54 244.29L455.67 245.89L455.77 247.93L455.9 250.38L456.01 253.18L456.1 256.35L456.21 259.85L456.29 263.66L456.39 267.75L456.46 272.1L456.54 276.69L456.61 281.48L456.67 286.47L456.72 291.63L456.76 296.93L456.81 302.34L456.84 307.86L456.87 313.44L456.89 319.07L456.9 324.74L456.92 330.4L456.92 336.03L456.92 341.63L456.9 347.17L456.89 352.59L456.86 357.93L456.83 363.1L456.79 368.12L456.75 372.95L456.68 377.59L456.64 381.99L456.56 386.13L456.48 389.99L456.4 393.55L456.31 396.78L456.21 399.66L456.12 402.17L455.99 404.29L455.88 405.98L455.76 407.24L455.37 410.02L454.94 412.71L454.49 415.35L453.97 417.9L453.41 420.41L452.81 422.85L452.15 425.2L451.46 427.5L450.73 429.75L449.93 431.91L449.09 434.01L448.2 436.07L447.26 438.04L446.27 439.97L445.24 441.82L444.14 443.63L443.01 445.37L441.82 447.05L440.56 448.68L439.26 450.25L437.91 451.75L436.5 453.2L435.04 454.59L433.52 455.94L431.95 457.23L430.32 458.45L428.63 459.63L426.89 460.76L425.08 461.84L423.22 462.86L421.31 463.83L419.33 464.76L417.27 465.62L415.17 466.45L413.01 467.22L410.8 467.94L408.51 468.63L406.16 469.26L403.74 469.85L401.26 470.39L399.48 470.72L397.26 471.01L394.66 471.3L391.68 471.56L388.36 471.81L384.69 472.05L380.72 472.27L376.47 472.47L371.94 472.66L367.17 472.83L362.18 472.99L356.99 473.13L351.63 473.24L346.09 473.35L340.45 473.44L334.66 473.51L328.81 473.57L322.88 473.62L316.89 473.63L310.9 473.65L304.9 473.63L298.9 473.6L292.96 473.57L287.08 473.51L281.28 473.43L275.59 473.35L270.02 473.24L264.61 473.12L259.37 472.97L254.32 472.82L249.47 472.64L244.89 472.47L240.55 472.27L236.5 472.03L232.74 471.8L229.32 471.55L226.25 471.28L223.54 471L221.21 470.7L219.32 470.39L216.96 469.9L214.66 469.35L212.4 468.75L210.19 468.11L208.04 467.41L205.92 466.65L203.87 465.84L201.88 464.97L199.92 464.05L198.02 463.08L196.17 462.06L194.37 460.98L192.63 459.85L190.92 458.65L189.27 457.41L187.69 456.13L186.13 454.78L184.64 453.38L183.22 451.94L181.82 450.43L180.49 448.88L179.22 447.28L177.98 445.62L176.8 443.91L175.69 442.15L174.62 440.35L173.6 438.48L172.63 436.57L171.72 434.61L170.87 432.6L170.06 430.53L169.32 428.41L168.62 426.25L167.97 424.04L167.39 421.78L166.86 419.46L166.37 417.09L165.95 414.67L165.59 412.21L165.26 409.7L165.01 407.19L164.77 404.35L164.55 401.2L164.33 397.75L164.15 394.03L163.97 390.05L163.82 385.83L163.68 381.37L163.55 376.73L163.44 371.92L163.35 366.93L163.27 361.78L163.21 356.53L163.16 351.15L163.13 345.69L163.11 340.17L163.11 334.59L163.11 328.97L163.14 323.34L163.17 317.71L163.24 312.09L163.3 306.53L163.38 301.02L163.47 295.59L163.58 290.28L163.71 285.05L163.83 279.97L163.99 275.05L164.15 270.29L164.32 265.73L164.51 261.37L164.7 257.25L164.92 253.37L165.13 249.75L165.37 246.41L165.61 243.38L165.87 240.67L166.14 238.3L166.42 236.29L166.7 234.66L167.2 232.37L167.75 230.14L168.35 227.96L168.99 225.84L169.7 223.76L170.44 221.72L171.24 219.74L172.08 217.8L172.98 215.92L173.92 214.08L174.9 212.29L175.96 210.55L177.04 208.86L178.18 207.21L179.37 205.63L180.61 204.07L181.9 202.58L183.23 201.14L184.63 199.73L186.05 198.4L187.54 197.09L189.07 195.84L190.65 194.65L192.28 193.49L193.96 192.39L195.68 191.34L197.47 190.33L199.29 189.38L201.17 188.47L203.09 187.62L205.06 186.82L207.08 186.05L209.15 185.35L211.27 184.69L213.44 184.09L215.65 183.53L217.91 183.02L220.23 182.57L222.58 182.16L224.99 181.8L226.25 181.64L227.83 181.5L229.71 181.36L231.88 181.22L234.31 181.1L236.99 180.95L239.92 180.84L243.08 180.72L246.45 180.61L250.01 180.5L253.76 180.39L257.66 180.3L261.74 180.2L265.92 180.12L270.25 180.03L274.69 179.97L279.21 179.89L283.82 179.82L288.48 179.78L293.2 179.73L297.95 179.68L302.72 179.65L307.5 179.62L312.27 179.59L317 179.57L321.71 179.57L326.35 179.57L330.93 179.57L335.41 179.61ZM299.85 235.25L294.23 236.12L288.79 237.28L283.5 238.72L278.41 240.45L273.48 242.44L268.73 244.68L264.18 247.18L259.82 249.9L255.65 252.85L251.69 256.01L247.92 259.36L244.38 262.91L241.02 266.62L237.9 270.5L235 274.53L232.3 278.7L229.86 283.02L227.63 287.42L225.64 291.96L223.88 296.58L222.38 301.29L221.12 306.06L220.1 310.9L219.35 315.78L218.86 320.71L218.63 325.66L218.67 330.62L218.99 335.59L219.57 340.55L220.43 345.49L221.58 350.4L223.02 355.26L224.74 360.06L226.77 364.81L229.1 369.47L231.72 374.05L234.65 378.54L237.9 382.9L241.48 387.15L245.35 391.24L249.77 395.4L254.32 399.18L258.99 402.6L263.79 405.67L268.68 408.38L273.67 410.77L278.74 412.81L283.85 414.52L289.02 415.9L294.23 416.96L299.45 417.7L304.69 418.14L309.93 418.27L315.14 418.11L320.33 417.64L325.47 416.89L330.55 415.85L335.57 414.55L340.51 412.96L345.36 411.11L350.09 409L354.7 406.63L359.17 404.02L363.5 401.15L367.67 398.05L371.65 394.71L375.47 391.15L379.07 387.37L382.46 383.35L385.63 379.13L388.54 374.71L391.23 370.08L393.63 365.25L395.76 360.25L397.59 355.04L399.13 349.66L400.34 344.11L401.22 338.38L401.77 332.49L401.94 326.45L401.84 322.38L401.58 318.35L401.14 314.38L400.53 310.46L399.74 306.61L398.8 302.79L397.7 299.06L396.46 295.39L395.05 291.78L393.52 288.25L391.84 284.82L390 281.45L388.06 278.17L385.97 274.98L383.76 271.88L381.44 268.88L378.99 265.98L376.44 263.19L373.77 260.51L371 257.92L368.13 255.46L365.15 253.12L362.09 250.89L358.94 248.79L355.71 246.83L352.4 245L349.01 243.29L345.54 241.73L342.02 240.32L338.42 239.05L334.77 237.94L331.05 236.96L327.29 236.16L323.49 235.52L319.64 235.04L315.75 234.74L311.81 234.6L307.86 234.63L303.86 234.85L299.85 235.25ZM320.78 267.68L324.7 268.49L327.43 269.23L330.08 270.06L332.68 271.02L335.19 272.08L337.64 273.26L340.01 274.55L342.3 275.93L344.51 277.4L346.64 278.95L348.68 280.62L350.66 282.36L352.54 284.18L354.33 286.07L356.04 288.03L357.65 290.07L359.17 292.19L360.6 294.36L361.93 296.58L363.17 298.87L364.3 301.21L365.34 303.59L366.28 306.02L367.11 308.49L367.83 311L368.44 313.54L368.96 316.11L369.35 318.7L369.63 321.32L369.8 323.95L369.87 326.6L369.8 329.27L369.62 331.95L369.32 334.62L368.89 337.3L368.35 339.97L367.67 342.63L366.87 345.3L365.93 347.93L364.86 350.55L363.67 353.16L362.1 356.17L360.4 359.02L358.56 361.75L356.58 364.33L354.51 366.76L352.32 369.05L350.01 371.2L347.61 373.2L345.12 375.07L342.55 376.79L339.9 378.36L337.19 379.79L334.39 381.08L331.56 382.21L328.67 383.19L325.74 384.04L322.77 384.73L319.78 385.28L316.75 385.67L313.72 385.92L310.68 386.03L307.62 385.99L304.6 385.78L301.56 385.44L298.56 384.94L295.56 384.29L292.62 383.49L289.71 382.54L286.85 381.44L284.04 380.18L281.28 378.77L278.6 377.2L275.98 375.49L273.45 373.63L271.01 371.6L268.67 369.42L266.41 367.09L264.28 364.59L262.26 361.96L260.36 359.15L258.29 355.7L256.5 352.22L254.95 348.7L253.65 345.17L252.59 341.63L251.76 338.07L251.17 334.52L250.81 330.98L250.65 327.45L250.71 323.94L250.98 320.47L251.47 317.04L252.12 313.66L252.99 310.32L254.04 307.06L255.26 303.88L256.67 300.75L258.24 297.73L259.98 294.79L261.88 291.96L263.93 289.23L266.13 286.62L268.47 284.14L270.94 281.79L273.55 279.58L276.29 277.51L279.15 275.61L282.11 273.87L285.18 272.29L288.37 270.89L291.64 269.68L295.03 268.68L298.48 267.86L302.03 267.27L305.65 266.88L309.33 266.72L313.1 266.8L316.91 267.11L320.78 267.68ZM334 265.02L333.97 266.04L333.88 266.99L333.75 267.5L333.66 267.36L333.58 266.61L333.55 265.31L333.58 263.96L333.64 263.13L333.74 262.84L333.86 263.21L333.97 264.04L334 265.02ZM402.28 210.21L401.09 210.41L399.95 210.66L398.85 210.97L397.81 211.34L396.86 211.76L393.44 213.81L390.61 216.24L388.34 218.99L386.65 221.99L385.47 225.15L384.84 228.43L384.72 231.74L385.11 235.04L385.99 238.22L387.34 241.25L389.14 244.04L391.4 246.52L394.1 248.63L397.22 250.3L400.75 251.46L404.68 252.04L408.81 251.93L412.57 251.14L415.96 249.73L418.92 247.77L421.46 245.37L423.56 242.6L425.18 239.51L426.31 236.23L426.92 232.79L427.01 229.31L426.54 225.84L425.49 222.49L423.85 219.32L421.6 216.42L418.7 213.86L415.16 211.73L414.19 211.3L413.15 210.94L412.05 210.63L410.91 210.38L409.72 210.19L408.49 210.05L407.25 209.97L406 209.94L404.74 209.97L403.51 210.07L402.28 210.21ZM334 168.97L333.97 169.99L333.88 170.93L333.75 171.45L333.66 171.31L333.58 170.56L333.55 169.25L333.58 167.92L333.64 167.07L333.74 166.79L333.86 167.15L333.97 167.98L334 168.97ZM152.29 157.94L152.79 158.07L153.75 158.16L154.77 158.2L155.76 158.16L156.57 158.05L156.93 157.93L156.67 157.83L155.82 157.76L154.49 157.74L153.18 157.77L152.43 157.83L152.29 157.94ZM111.3 70.97L110.81 71.08L109.84 71.19L108.74 71.22L107.63 71.19L106.66 71.08L106.18 70.97L106.4 70.86L107.28 70.8L108.74 70.77L110.18 70.8L111.06 70.86L111.3 70.97ZM198.43 70.97L198.91 71.08L199.89 71.19L201 71.22L202.1 71.19L203.07 71.08L203.56 70.97L203.32 70.86L202.44 70.8L201 70.77L199.54 70.8L198.66 70.86L198.43 70.97ZM167.61 38.39L170.33 38.43L172.11 38.44L172.96 38.47L172.82 38.52L171.64 38.55L169.37 38.6L166.37 38.63L163.1 38.66L159.6 38.68L155.98 38.68L152.32 38.68L148.73 38.68L145.27 38.66L142.03 38.63L139.12 38.6L136.94 38.55L135.84 38.52L135.78 38.47L136.69 38.44L138.54 38.43L141.3 38.39L144.89 38.38L149.31 38.38L154.49 38.36L159.66 38.38L164.05 38.38L167.61 38.39Z" id="a1rqSmrovi"></path><path d="M342.85 11.86L353.6 13.17L364.24 14.87L374.76 16.91L385.16 19.31L395.43 22.05L405.56 25.14L415.55 28.58L425.37 32.32L435.04 36.4L444.55 40.79L453.89 45.5L463.04 50.5L472.01 55.82L480.79 61.4L489.35 67.29L497.73 73.43L505.88 79.87L513.82 86.56L521.52 93.51L528.98 100.71L536.21 108.16L543.19 115.85L549.9 123.75L556.36 131.91L562.56 140.27L568.47 148.83L574.1 157.62L579.43 166.6L584.48 175.78L589.22 185.14L593.64 194.68L597.75 204.4L601.54 214.28L604.99 224.34L608.1 234.55L610.87 244.89L613.29 255.38L615.34 266.01L617.04 276.77L618.56 289.62L619.55 302.39L620 315.09L619.95 327.7L619.39 340.2L618.34 352.61L616.79 364.89L614.76 377.05L612.25 389.06L609.29 400.9L605.89 412.59L602.01 424.1L597.72 435.42L592.98 446.53L587.84 457.45L582.28 468.13L576.32 478.57L569.96 488.77L563.23 498.71L556.11 508.37L548.63 517.77L540.79 526.87L532.6 535.67L524.07 544.15L515.2 552.31L506.02 560.12L496.52 567.6L486.7 574.71L476.6 581.43L466.2 587.79L455.54 593.75L444.59 599.3L433.38 604.43L421.92 609.13L410.22 613.4L398.27 617.21L386.1 620.57L373.71 623.44L361.12 625.84L348.32 627.72L344.81 628.14L341.23 628.52L337.61 628.83L333.94 629.12L330.24 629.34L326.47 629.52L322.69 629.65L318.87 629.74L315.03 629.78L311.15 629.78L307.26 629.73L303.34 629.63L299.42 629.49L295.49 629.32L291.55 629.1L287.61 628.83L283.68 628.52L279.74 628.18L275.82 627.78L271.9 627.36L268.01 626.89L264.14 626.37L260.29 625.82L256.47 625.23L252.69 624.6L248.93 623.94L245.22 623.23L241.55 622.48L237.93 621.71L234.36 620.9L230.84 620.05L227.39 619.16L223.99 618.23L220.67 617.27L217.4 616.29L214.22 615.27L211.12 614.2L208.09 613.12L205.16 611.99L202.3 610.84L202.22 610.8L202.13 610.77L202.02 610.72L201.89 610.67L201.77 610.62L201.64 610.56L201.49 610.5L201.33 610.44L201.17 610.37L201 610.31L200.81 610.23L200.62 610.15L200.44 610.07L200.23 610L200.01 609.9L199.79 609.82L199.57 609.73L199.34 609.64L199.1 609.54L198.85 609.45L198.6 609.35L198.35 609.24L198.1 609.15L197.83 609.04L197.57 608.93L197.28 608.82L197.02 608.71L196.73 608.6L196.45 608.49L196.17 608.38L195.87 608.26L195.59 608.15L195.29 608.04L195.01 607.91L194.71 607.8L194.41 607.68L194.12 607.57L193.82 607.46L193.52 607.33L193.22 607.22L185.66 604.11L178.21 600.81L170.86 597.28L163.61 593.56L156.49 589.64L149.48 585.53L142.58 581.23L135.82 576.74L129.18 572.09L122.65 567.24L116.27 562.24L110.01 557.04L103.91 551.71L97.94 546.21L92.1 540.54L86.43 534.73L80.89 528.76L75.53 522.66L70.3 516.42L65.24 510.04L60.35 503.53L55.63 496.89L51.06 490.13L46.69 483.25L42.47 476.25L38.44 469.16L34.6 461.95L30.93 454.64L27.46 447.22L24.18 439.72L21.09 432.13L18.21 424.45L15.53 416.68L13.05 408.84L10.77 400.93L8.72 392.95L6.87 384.9L5.24 376.79L3.83 368.62L2.65 360.4L1.1 345.86L0.22 331.45L0 317.15L0.44 302.98L1.51 288.98L3.2 275.14L5.5 261.5L8.39 248.05L11.87 234.83L15.9 221.83L20.5 209.06L25.62 196.56L31.29 184.34L37.45 172.41L44.11 160.77L51.25 149.44L58.87 138.45L66.95 127.81L75.46 117.54L84.4 107.63L93.75 98.12L103.52 89.01L113.67 80.32L124.17 72.05L135.06 64.26L146.28 56.9L157.83 50.03L169.71 43.67L181.88 37.8L194.35 32.45L207.1 27.65L220.1 23.38L233.37 19.7L246.86 16.58L260.58 14.07L274.5 12.15L288.62 10.87L302.92 10.23L317.38 10.24L331.99 10.92L342.85 11.86ZM270.79 148.05L266.36 148.06L262.15 148.09L258.15 148.13L254.4 148.17L250.92 148.22L247.72 148.28L244.83 148.35L242.28 148.41L240.06 148.49L238.21 148.58L233.84 148.85L229.56 149.22L225.37 149.69L221.26 150.24L217.25 150.89L213.34 151.61L209.52 152.42L205.78 153.35L202.14 154.34L198.59 155.43L195.13 156.61L191.78 157.88L188.5 159.25L185.32 160.69L182.23 162.23L179.25 163.86L176.33 165.58L173.52 167.39L170.81 169.28L168.19 171.28L165.65 173.35L163.22 175.51L160.87 177.77L158.61 180.12L156.45 182.55L154.38 185.09L152.4 187.71L150.5 190.41L148.72 193.2L147.01 196.11L145.39 199.07L143.87 202.14L142.44 205.3L141.11 208.54L139.87 211.88L138.73 215.32L137.66 218.83L136.7 222.44L135.82 226.13L135.04 229.92L134.68 232.04L134.33 234.58L134.02 237.51L133.71 240.81L133.43 244.45L133.16 248.41L132.89 252.68L132.66 257.23L132.45 262.03L132.25 267.08L132.06 272.35L131.9 277.81L131.76 283.44L131.64 289.23L131.53 295.14L131.43 301.16L131.36 307.26L131.29 313.44L131.26 319.65L131.25 325.9L131.25 332.14L131.26 338.37L131.29 344.53L131.36 350.65L131.42 356.67L131.51 362.58L131.62 368.37L131.75 374.02L131.89 379.48L132.06 384.75L132.25 389.8L132.45 394.61L132.67 399.18L132.91 403.44L133.16 407.41L133.44 411.07L133.74 414.38L134.05 417.31L134.38 419.85L134.73 421.98L135.39 425.23L136.11 428.43L136.91 431.55L137.77 434.62L138.71 437.64L139.73 440.58L140.8 443.47L141.96 446.29L143.18 449.05L144.47 451.75L145.81 454.39L147.24 456.96L148.75 459.47L150.3 461.92L151.93 464.3L153.62 466.62L155.4 468.86L157.22 471.04L159.11 473.16L161.07 475.22L163.11 477.21L165.2 479.12L167.35 480.97L169.57 482.76L171.86 484.47L174.2 486.12L176.61 487.7L179.08 489.21L181.62 490.65L184.22 492.02L186.87 493.32L189.58 494.54L192.36 495.69L195.2 496.77L198.1 497.79L201.06 498.73L204.07 499.59L207.16 500.38L210.28 501.1L213.48 501.74L215.63 502.1L218.2 502.45L221.15 502.76L224.46 503.07L228.11 503.36L232.1 503.62L236.38 503.87L240.93 504.11L245.74 504.33L250.79 504.53L256.06 504.72L261.53 504.88L267.16 505.02L272.93 505.14L278.85 505.25L284.87 505.35L290.97 505.43L297.15 505.49L303.36 505.52L309.58 505.54L315.83 505.54L322.04 505.52L328.2 505.49L334.32 505.44L340.34 505.36L346.25 505.28L352.02 505.17L357.65 505.05L363.12 504.89L368.39 504.74L373.44 504.55L378.26 504.36L382.82 504.14L387.1 503.9L391.07 503.64L394.72 503.37L398.05 503.07L401 502.76L403.55 502.43L405.7 502.08L409.28 501.38L412.76 500.58L416.16 499.72L419.49 498.78L422.73 497.74L425.92 496.63L429.01 495.43L432.03 494.16L434.96 492.82L437.83 491.37L440.63 489.87L443.32 488.27L445.96 486.59L448.51 484.83L450.99 483L453.39 481.08L455.71 479.09L457.95 477L460.12 474.86L462.2 472.61L464.21 470.29L466.14 467.89L467.99 465.41L469.76 462.86L471.47 460.22L473.09 457.49L474.63 454.7L476.08 451.82L477.48 448.85L478.78 445.81L480 442.7L481.16 439.49L482.23 436.21L483.22 432.85L484.14 429.42L484.98 425.89L485.73 422.3L486.42 418.61L487.01 414.86L487.55 411.02L487.67 409.73L487.78 407.98L487.89 405.8L488 403.18L488.1 400.18L488.19 396.82L488.27 393.11L488.33 389.09L488.41 384.76L488.46 380.18L488.52 375.35L488.57 370.3L488.6 365.05L488.63 359.64L488.66 354.07L488.68 348.39L488.68 342.6L488.68 336.75L488.68 330.85L488.68 324.93L488.64 319L488.63 313.1L488.6 307.26L488.57 301.49L488.52 295.81L488.47 290.26L488.41 284.87L488.35 279.64L488.28 274.61L488.21 269.81L488.13 265.24L488.05 260.96L487.95 256.96L487.86 253.29L487.75 249.97L487.64 247.02L487.53 244.45L487.41 242.31L487.28 240.6L487.14 239.38L486.56 235.44L485.88 231.58L485.13 227.84L484.3 224.17L483.38 220.57L482.36 217.08L481.27 213.67L480.08 210.35L478.83 207.12L477.46 203.96L476.04 200.91L474.52 197.93L472.9 195.04L471.21 192.25L469.42 189.53L467.55 186.91L465.61 184.37L463.57 181.91L461.44 179.54L459.22 177.27L456.92 175.07L454.54 172.97L452.07 170.95L449.5 169L446.87 167.15L444.12 165.39L441.3 163.7L438.4 162.12L435.4 160.61L432.31 159.18L429.15 157.83L425.88 156.58L422.54 155.42L419.11 154.34L415.58 153.33L411.97 152.42L408.27 151.59L404.49 150.84L400.62 150.18L396.65 149.6L395.66 149.51L394.25 149.4L392.45 149.3L390.29 149.21L387.76 149.11L384.91 149.02L381.74 148.94L378.29 148.85L374.57 148.77L370.6 148.69L366.4 148.63L361.99 148.55L357.4 148.49L352.65 148.42L347.74 148.36L342.72 148.3L337.59 148.25L332.37 148.2L327.1 148.17L321.79 148.13L316.44 148.09L311.09 148.06L305.77 148.05L300.49 148.03L295.27 148.02L290.12 148.02L285.09 148.02L280.16 148.02L275.4 148.03L270.79 148.05ZM335.41 179.61L339.8 179.62L344.09 179.65L348.24 179.7L352.26 179.75L356.11 179.79L359.8 179.87L363.28 179.93L366.57 180.03L369.66 180.12L372.5 180.22L375.11 180.33L379.01 180.55L382.81 180.81L386.47 181.14L390.03 181.52L393.48 181.94L396.83 182.44L400.06 182.99L403.18 183.6L406.19 184.3L409.09 185.03L411.9 185.83L414.59 186.71L417.2 187.65L419.69 188.66L422.1 189.74L424.41 190.88L426.62 192.11L428.75 193.39L430.78 194.77L432.72 196.22L434.59 197.74L436.34 199.34L438.04 201.03L439.64 202.79L441.16 204.64L442.6 206.57L443.98 208.59L445.27 210.69L446.48 212.87L447.62 215.16L448.7 217.53L449.69 219.99L450.63 222.53L451.49 225.19L452.31 227.93L453.05 230.77L453.72 233.7L454.33 236.75L454.9 239.88L455.4 243.11L455.54 244.29L455.67 245.89L455.77 247.93L455.9 250.38L456.01 253.18L456.1 256.35L456.21 259.85L456.29 263.66L456.39 267.75L456.46 272.1L456.54 276.69L456.61 281.48L456.67 286.47L456.72 291.63L456.76 296.93L456.81 302.34L456.84 307.86L456.87 313.44L456.89 319.07L456.9 324.74L456.92 330.4L456.92 336.03L456.92 341.63L456.9 347.17L456.89 352.59L456.86 357.93L456.83 363.1L456.79 368.12L456.75 372.95L456.68 377.59L456.64 381.99L456.56 386.13L456.48 389.99L456.4 393.55L456.31 396.78L456.21 399.66L456.12 402.17L455.99 404.29L455.88 405.98L455.76 407.24L455.37 410.02L454.94 412.71L454.49 415.35L453.97 417.9L453.41 420.41L452.81 422.85L452.15 425.2L451.46 427.5L450.73 429.75L449.93 431.91L449.09 434.01L448.2 436.07L447.26 438.04L446.27 439.97L445.24 441.82L444.14 443.63L443.01 445.37L441.82 447.05L440.56 448.68L439.26 450.25L437.91 451.75L436.5 453.2L435.04 454.59L433.52 455.94L431.95 457.23L430.32 458.45L428.63 459.63L426.89 460.76L425.08 461.84L423.22 462.86L421.31 463.83L419.33 464.76L417.27 465.62L415.17 466.45L413.01 467.22L410.8 467.94L408.51 468.63L406.16 469.26L403.74 469.85L401.26 470.39L399.48 470.72L397.26 471.01L394.66 471.3L391.68 471.56L388.36 471.81L384.69 472.05L380.72 472.27L376.47 472.47L371.94 472.66L367.17 472.83L362.18 472.99L356.99 473.13L351.63 473.24L346.09 473.35L340.45 473.44L334.66 473.51L328.81 473.57L322.88 473.62L316.89 473.63L310.9 473.65L304.9 473.63L298.9 473.6L292.96 473.57L287.08 473.51L281.28 473.43L275.59 473.35L270.02 473.24L264.61 473.12L259.37 472.97L254.32 472.82L249.47 472.64L244.89 472.47L240.55 472.27L236.5 472.03L232.74 471.8L229.32 471.55L226.25 471.28L223.54 471L221.21 470.7L219.32 470.39L216.96 469.9L214.66 469.35L212.4 468.75L210.19 468.11L208.04 467.41L205.92 466.65L203.87 465.84L201.88 464.97L199.92 464.05L198.02 463.08L196.17 462.06L194.37 460.98L192.63 459.85L190.92 458.65L189.27 457.41L187.69 456.13L186.13 454.78L184.64 453.38L183.22 451.94L181.82 450.43L180.49 448.88L179.22 447.28L177.98 445.62L176.8 443.91L175.69 442.15L174.62 440.35L173.6 438.48L172.63 436.57L171.72 434.61L170.87 432.6L170.06 430.53L169.32 428.41L168.62 426.25L167.97 424.04L167.39 421.78L166.86 419.46L166.37 417.09L165.95 414.67L165.59 412.21L165.26 409.7L165.01 407.19L164.77 404.35L164.55 401.2L164.33 397.75L164.15 394.03L163.97 390.05L163.82 385.83L163.68 381.37L163.55 376.73L163.44 371.92L163.35 366.93L163.27 361.78L163.21 356.53L163.16 351.15L163.13 345.69L163.11 340.17L163.11 334.59L163.11 328.97L163.14 323.34L163.17 317.71L163.24 312.09L163.3 306.53L163.38 301.02L163.47 295.59L163.58 290.28L163.71 285.05L163.83 279.97L163.99 275.05L164.15 270.29L164.32 265.73L164.51 261.37L164.7 257.25L164.92 253.37L165.13 249.75L165.37 246.41L165.61 243.38L165.87 240.67L166.14 238.3L166.42 236.29L166.7 234.66L167.2 232.37L167.75 230.14L168.35 227.96L168.99 225.84L169.7 223.76L170.44 221.72L171.24 219.74L172.08 217.8L172.98 215.92L173.92 214.08L174.9 212.29L175.96 210.55L177.04 208.86L178.18 207.21L179.37 205.63L180.61 204.07L181.9 202.58L183.23 201.14L184.63 199.73L186.05 198.4L187.54 197.09L189.07 195.84L190.65 194.65L192.28 193.49L193.96 192.39L195.68 191.34L197.47 190.33L199.29 189.38L201.17 188.47L203.09 187.62L205.06 186.82L207.08 186.05L209.15 185.35L211.27 184.69L213.44 184.09L215.65 183.53L217.91 183.02L220.23 182.57L222.58 182.16L224.99 181.8L226.25 181.64L227.83 181.5L229.71 181.36L231.88 181.22L234.31 181.1L236.99 180.95L239.92 180.84L243.08 180.72L246.45 180.61L250.01 180.5L253.76 180.39L257.66 180.3L261.74 180.2L265.92 180.12L270.25 180.03L274.69 179.97L279.21 179.89L283.82 179.82L288.48 179.78L293.2 179.73L297.95 179.68L302.72 179.65L307.5 179.62L312.27 179.59L317 179.57L321.71 179.57L326.35 179.57L330.93 179.57L335.41 179.61ZM299.85 235.25L294.23 236.12L288.79 237.28L283.5 238.72L278.41 240.45L273.48 242.44L268.73 244.68L264.18 247.18L259.82 249.9L255.65 252.85L251.69 256.01L247.92 259.36L244.38 262.91L241.02 266.62L237.9 270.5L235 274.53L232.3 278.7L229.86 283.02L227.63 287.42L225.64 291.96L223.88 296.58L222.38 301.29L221.12 306.06L220.1 310.9L219.35 315.78L218.86 320.71L218.63 325.66L218.67 330.62L218.99 335.59L219.57 340.55L220.43 345.49L221.58 350.4L223.02 355.26L224.74 360.06L226.77 364.81L229.1 369.47L231.72 374.05L234.65 378.54L237.9 382.9L241.48 387.15L245.35 391.24L249.77 395.4L254.32 399.18L258.99 402.6L263.79 405.67L268.68 408.38L273.67 410.77L278.74 412.81L283.85 414.52L289.02 415.9L294.23 416.96L299.45 417.7L304.69 418.14L309.93 418.27L315.14 418.11L320.33 417.64L325.47 416.89L330.55 415.85L335.57 414.55L340.51 412.96L345.36 411.11L350.09 409L354.7 406.63L359.17 404.02L363.5 401.15L367.67 398.05L371.65 394.71L375.47 391.15L379.07 387.37L382.46 383.35L385.63 379.13L388.54 374.71L391.23 370.08L393.63 365.25L395.76 360.25L397.59 355.04L399.13 349.66L400.34 344.11L401.22 338.38L401.77 332.49L401.94 326.45L401.84 322.38L401.58 318.35L401.14 314.38L400.53 310.46L399.74 306.61L398.8 302.79L397.7 299.06L396.46 295.39L395.05 291.78L393.52 288.25L391.84 284.82L390 281.45L388.06 278.17L385.97 274.98L383.76 271.88L381.44 268.88L378.99 265.98L376.44 263.19L373.77 260.51L371 257.92L368.13 255.46L365.15 253.12L362.09 250.89L358.94 248.79L355.71 246.83L352.4 245L349.01 243.29L345.54 241.73L342.02 240.32L338.42 239.05L334.77 237.94L331.05 236.96L327.29 236.16L323.49 235.52L319.64 235.04L315.75 234.74L311.81 234.6L307.86 234.63L303.86 234.85L299.85 235.25ZM320.78 267.68L324.7 268.49L327.43 269.23L330.08 270.06L332.68 271.02L335.19 272.08L337.64 273.26L340.01 274.55L342.3 275.93L344.51 277.4L346.64 278.95L348.68 280.62L350.66 282.36L352.54 284.18L354.33 286.07L356.04 288.03L357.65 290.07L359.17 292.19L360.6 294.36L361.93 296.58L363.17 298.87L364.3 301.21L365.34 303.59L366.28 306.02L367.11 308.49L367.83 311L368.44 313.54L368.96 316.11L369.35 318.7L369.63 321.32L369.8 323.95L369.87 326.6L369.8 329.27L369.62 331.95L369.32 334.62L368.89 337.3L368.35 339.97L367.67 342.63L366.87 345.3L365.93 347.93L364.86 350.55L363.67 353.16L362.1 356.17L360.4 359.02L358.56 361.75L356.58 364.33L354.51 366.76L352.32 369.05L350.01 371.2L347.61 373.2L345.12 375.07L342.55 376.79L339.9 378.36L337.19 379.79L334.39 381.08L331.56 382.21L328.67 383.19L325.74 384.04L322.77 384.73L319.78 385.28L316.75 385.67L313.72 385.92L310.68 386.03L307.62 385.99L304.6 385.78L301.56 385.44L298.56 384.94L295.56 384.29L292.62 383.49L289.71 382.54L286.85 381.44L284.04 380.18L281.28 378.77L278.6 377.2L275.98 375.49L273.45 373.63L271.01 371.6L268.67 369.42L266.41 367.09L264.28 364.59L262.26 361.96L260.36 359.15L258.29 355.7L256.5 352.22L254.95 348.7L253.65 345.17L252.59 341.63L251.76 338.07L251.17 334.52L250.81 330.98L250.65 327.45L250.71 323.94L250.98 320.47L251.47 317.04L252.12 313.66L252.99 310.32L254.04 307.06L255.26 303.88L256.67 300.75L258.24 297.73L259.98 294.79L261.88 291.96L263.93 289.23L266.13 286.62L268.47 284.14L270.94 281.79L273.55 279.58L276.29 277.51L279.15 275.61L282.11 273.87L285.18 272.29L288.37 270.89L291.64 269.68L295.03 268.68L298.48 267.86L302.03 267.27L305.65 266.88L309.33 266.72L313.1 266.8L316.91 267.11L320.78 267.68ZM334 265.02L333.97 266.04L333.88 266.99L333.75 267.5L333.66 267.36L333.58 266.61L333.55 265.31L333.58 263.96L333.64 263.13L333.74 262.84L333.86 263.21L333.97 264.04L334 265.02ZM402.28 210.21L401.09 210.41L399.95 210.66L398.85 210.97L397.81 211.34L396.86 211.76L393.44 213.81L390.61 216.24L388.34 218.99L386.65 221.99L385.47 225.15L384.84 228.43L384.72 231.74L385.11 235.04L385.99 238.22L387.34 241.25L389.14 244.04L391.4 246.52L394.1 248.63L397.22 250.3L400.75 251.46L404.68 252.04L408.81 251.93L412.57 251.14L415.96 249.73L418.92 247.77L421.46 245.37L423.56 242.6L425.18 239.51L426.31 236.23L426.92 232.79L427.01 229.31L426.54 225.84L425.49 222.49L423.85 219.32L421.6 216.42L418.7 213.86L415.16 211.73L414.19 211.3L413.15 210.94L412.05 210.63L410.91 210.38L409.72 210.19L408.49 210.05L407.25 209.97L406 209.94L404.74 209.97L403.51 210.07L402.28 210.21ZM334 168.97L333.97 169.99L333.88 170.93L333.75 171.45L333.66 171.31L333.58 170.56L333.55 169.25L333.58 167.92L333.64 167.07L333.74 166.79L333.86 167.15L333.97 167.98L334 168.97ZM152.29 157.94L152.79 158.07L153.75 158.16L154.77 158.2L155.76 158.16L156.57 158.05L156.93 157.93L156.67 157.83L155.82 157.76L154.49 157.74L153.18 157.77L152.43 157.83L152.29 157.94ZM111.3 70.97L110.81 71.08L109.84 71.19L108.74 71.22L107.63 71.19L106.66 71.08L106.18 70.97L106.4 70.86L107.28 70.8L108.74 70.77L110.18 70.8L111.06 70.86L111.3 70.97ZM198.43 70.97L198.91 71.08L199.89 71.19L201 71.22L202.1 71.19L203.07 71.08L203.56 70.97L203.32 70.86L202.44 70.8L201 70.77L199.54 70.8L198.66 70.86L198.43 70.97ZM167.61 38.39L170.33 38.43L172.11 38.44L172.96 38.47L172.82 38.52L171.64 38.55L169.37 38.6L166.37 38.63L163.1 38.66L159.6 38.68L155.98 38.68L152.32 38.68L148.73 38.68L145.27 38.66L142.03 38.63L139.12 38.6L136.94 38.55L135.84 38.52L135.78 38.47L136.69 38.44L138.54 38.43L141.3 38.39L144.89 38.38L149.31 38.38L154.49 38.36L159.66 38.38L164.05 38.38L167.61 38.39Z" id="d16Bx80Xmw"></path></defs><g><g><g><use xlink:href="#a1rqSmrovi" opacity="1" fill="#ffffff" fill-opacity="1"></use><g><use xlink:href="#a1rqSmrovi" opacity="1" fill-opacity="0" stroke="#000000" stroke-width="1" stroke-opacity="0"></use></g></g><g><use xlink:href="#d16Bx80Xmw" opacity="1" fill="#000000" fill-opacity="0"></use><g><use xlink:href="#d16Bx80Xmw" opacity="1" fill-opacity="0" stroke="#000000" stroke-width="1" stroke-opacity="0"></use></g></g></g></g></svg>