<?xml version="1.0" encoding="UTF-8" standalone="no"?>
<!DOCTYPE svg PUBLIC "-//W3C//DTD SVG 1.1//EN" "http://www.w3.org/Graphics/SVG/1.1/DTD/svg11.dtd">
<svg version="1.1" xmlns="http://www.w3.org/2000/svg" xmlns:xlink="http://www.w3.org/1999/xlink" preserveAspectRatio="xMidYMid meet" viewBox="0 0 640 640" width="640" height="640"><defs><path d="M309.76 20L310.76 20.01L311.79 20.02L312.85 20.03L313.94 20.05L315.05 20.07L316.18 20.09L317.33 20.11L318.49 20.14L319.67 20.17L320.85 20.2L322.03 20.23L323.22 20.27L324.4 20.31L325.58 20.35L326.75 20.39L327.91 20.44L329.05 20.48L330.18 20.53L331.28 20.58L332.36 20.63L333.42 20.68L334.44 20.74L335.42 20.79L336.37 20.85L337.28 20.9L338.15 20.96L338.97 21.02L339.74 21.08L340.46 21.14L341.12 21.21L343.02 21.4L344.93 21.61L346.84 21.83L348.76 22.06L350.69 22.31L352.62 22.58L354.55 22.85L356.48 23.14L358.41 23.44L360.34 23.76L362.28 24.09L364.21 24.43L366.14 24.78L368.07 25.15L370 25.52L371.92 25.91L373.84 26.31L375.75 26.73L377.66 27.15L379.56 27.59L381.45 28.03L383.34 28.49L385.22 28.96L387.09 29.44L388.95 29.93L390.8 30.43L392.64 30.94L394.46 31.46L396.28 31.99L398.08 32.53L399.87 33.08L401.64 33.64L403.4 34.21L405.14 34.78L406.87 35.37L408.58 35.97L410.27 36.57L411.94 37.18L413.59 37.8L415.23 38.43L425.54 42.67L435.61 47.26L445.45 52.2L455.04 57.46L464.38 63.06L473.46 68.96L482.29 75.17L490.85 81.68L499.15 88.47L507.17 95.54L514.91 102.88L522.37 110.47L529.54 118.32L536.42 126.41L543 134.72L549.28 143.27L555.26 152.02L560.92 160.98L566.27 170.13L571.29 179.46L575.99 188.98L580.36 198.66L584.4 208.49L588.09 218.48L591.44 228.6L594.44 238.86L597.09 249.23L599.37 259.72L601.3 270.31L602.85 280.99L604.03 291.75L604.83 302.59L605.26 313.5L605.29 324.46L604.93 335.47L604.17 346.52L603.01 357.59L601.45 368.69L599.47 379.79L597.08 390.89L596.7 392.49L596.31 394.09L595.91 395.69L595.5 397.3L595.07 398.92L594.64 400.54L594.19 402.16L593.73 403.79L593.26 405.41L592.79 407.05L592.3 408.68L591.8 410.31L591.29 411.95L590.77 413.58L590.25 415.22L589.71 416.85L589.16 418.48L588.61 420.11L588.05 421.74L587.48 423.37L586.9 424.99L586.31 426.61L585.71 428.22L585.11 429.83L584.5 431.43L583.88 433.03L583.25 434.62L582.62 436.21L581.97 437.78L581.33 439.35L580.67 440.92L580.01 442.47L579.35 444.01L578.67 445.55L577.99 447.07L577.31 448.58L576.62 450.08L575.92 451.57L575.22 453.05L574.52 454.51L568.62 466.03L562.31 477.18L555.61 487.94L548.53 498.31L541.09 508.29L533.29 517.88L525.16 527.06L516.71 535.84L507.95 544.22L498.9 552.17L489.58 559.72L479.99 566.84L470.15 573.53L460.08 579.79L449.8 585.62L439.31 591.01L428.63 595.95L417.77 600.44L406.76 604.49L395.6 608.07L384.31 611.19L372.91 613.85L361.41 616.04L349.82 617.75L338.16 618.99L326.44 619.74L314.68 620L302.89 619.77L291.09 619.04L279.29 617.82L267.5 616.08L255.75 613.84L244.05 611.09L232.4 607.81L220.83 604.01L209.35 599.69L197.98 594.83L186.72 589.44L175.6 583.51L164.62 577.03L152.8 569.3L141.48 561.1L130.66 552.45L120.35 543.36L110.56 533.87L101.27 523.98L92.5 513.73L84.25 503.13L76.52 492.2L69.31 480.98L62.62 469.47L56.47 457.69L50.84 445.68L45.75 433.45L41.2 421.02L37.18 408.42L33.7 395.66L30.77 382.77L28.38 369.76L26.54 356.67L25.25 343.5L24.51 330.29L24.33 317.04L24.71 303.8L25.65 290.57L27.16 277.37L29.22 264.23L31.86 251.18L35.07 238.22L38.85 225.38L43.21 212.69L48.15 200.16L53.67 187.82L59.77 175.69L66.46 163.78L73.74 152.12L81.61 140.74L90.07 129.64L99.13 118.86L108.79 108.42L112.75 104.4L116.75 100.48L120.79 96.65L124.87 92.92L128.99 89.28L133.15 85.74L137.36 82.29L141.6 78.93L145.89 75.67L150.22 72.51L154.59 69.44L159.01 66.46L163.47 63.57L167.97 60.78L172.52 58.08L177.12 55.47L181.76 52.96L186.45 50.54L191.18 48.21L195.97 45.97L200.8 43.82L205.67 41.76L210.6 39.8L215.58 37.93L220.61 36.14L225.68 34.45L230.81 32.85L235.99 31.34L241.22 29.91L246.5 28.58L251.84 27.34L257.23 26.18L262.67 25.12L268.16 24.14L273.71 23.25L279.32 22.45L284.98 21.74L290.7 21.11L296.47 20.58L302.3 20.13L302.79 20.1L303.35 20.07L303.97 20.05L304.65 20.03L305.38 20.02L306.16 20.01L307 20L307.88 20L308.8 20L309.76 20ZM395.77 198.12L394.24 198.2L392.73 198.32L391.22 198.48L389.71 198.67L388.21 198.9L386.72 199.17L385.23 199.49L382.56 200.14L379.94 200.9L377.37 201.76L374.85 202.73L372.38 203.79L369.98 204.95L367.63 206.21L365.34 207.55L363.11 208.98L360.94 210.5L358.84 212.1L356.81 213.77L354.84 215.53L352.94 217.36L351.12 219.26L349.36 221.22L347.68 223.26L346.08 225.36L344.56 227.51L343.12 229.73L341.76 232L340.48 234.32L339.28 236.69L338.18 239.11L337.16 241.57L336.23 244.08L335.4 246.62L334.66 249.2L334.01 251.81L333.46 254.45L333.01 257.12L332.66 259.82L332.41 262.53L332.26 265.27L332.22 268.02L332.29 270.79L332.47 273.57L332.76 276.36L333.16 279.15L333.67 281.95L333.65 282.11L333.52 282.25L333.29 282.37L332.96 282.46L332.53 282.52L332.01 282.57L331.4 282.59L330.71 282.6L329.95 282.58L329.1 282.54L328.19 282.49L327.21 282.41L326.18 282.32L325.08 282.21L323.93 282.08L322.73 281.94L321.49 281.78L320.21 281.61L318.89 281.42L317.55 281.22L316.17 281.01L314.77 280.79L313.36 280.55L311.93 280.31L310.49 280.05L309.04 279.78L307.59 279.51L306.15 279.23L304.71 278.94L303.28 278.64L301.87 278.34L300.48 278.03L299.12 277.72L297.78 277.4L296.48 277.08L295.21 276.75L293.99 276.43L292.81 276.1L291.68 275.77L290.6 275.44L288.07 274.63L285.56 273.79L283.09 272.94L280.64 272.06L278.22 271.16L275.83 270.24L273.46 269.29L271.12 268.32L268.81 267.32L266.52 266.3L264.25 265.26L262.01 264.19L259.79 263.09L257.59 261.97L255.42 260.82L253.26 259.64L251.13 258.44L249.01 257.2L246.92 255.94L244.84 254.66L242.78 253.34L240.73 251.99L238.7 250.61L236.69 249.21L234.7 247.77L232.71 246.3L230.75 244.8L228.79 243.27L226.85 241.7L224.92 240.1L223 238.47L221.09 236.81L219.19 235.11L217.3 233.38L215.42 231.61L213.54 229.81L211.68 227.97L209.82 226.1L207.97 224.19L206.12 222.24L205.27 221.33L204.46 220.47L203.7 219.66L202.99 218.89L202.31 218.17L201.68 217.5L201.09 216.87L200.53 216.28L200.02 215.74L199.53 215.23L199.08 214.77L198.66 214.35L198.27 213.97L197.91 213.62L197.58 213.32L197.27 213.05L196.99 212.81L196.72 212.61L196.48 212.45L196.26 212.32L196.06 212.22L195.87 212.15L195.7 212.12L195.54 212.11L195.39 212.13L195.25 212.19L195.12 212.27L195 212.37L194.88 212.51L194.77 212.66L194.66 212.85L194.55 213.05L194.43 213.28L194.32 213.53L194.21 213.8L194.08 214.09L193.95 214.4L193.82 214.73L193.67 215.08L193.51 215.44L192.57 217.67L191.7 219.92L190.91 222.18L190.2 224.45L189.56 226.74L189 229.03L188.51 231.33L188.1 233.63L187.77 235.94L187.5 238.25L187.32 240.56L187.2 242.87L187.16 245.17L187.19 247.47L187.3 249.76L187.47 252.04L187.72 254.3L188.04 256.56L188.43 258.8L188.89 261.03L189.42 263.23L190.02 265.42L190.69 267.58L191.42 269.72L192.23 271.83L193.1 273.92L194.04 275.98L195.05 278L196.12 279.99L197.27 281.95L198.47 283.87L199.74 285.75L201.08 287.6L202.48 289.4L203.95 291.15L205.48 292.86L207.07 294.53L208.73 296.14L210.44 297.7L212.22 299.21L212.36 299.32L212.49 299.43L212.63 299.54L212.76 299.65L212.89 299.76L213.02 299.87L213.15 299.97L213.28 300.08L213.41 300.19L213.54 300.29L213.67 300.4L213.79 300.5L213.92 300.61L214.04 300.71L214.16 300.81L214.28 300.91L214.39 301L214.51 301.1L214.62 301.19L214.73 301.28L214.83 301.37L214.94 301.46L215.04 301.54L215.13 301.63L215.23 301.71L215.32 301.78L215.41 301.86L215.49 301.93L215.57 302L215.65 302.07L215.72 302.13L215.79 302.19L215.85 302.25L215.91 302.3L215.97 302.35L216.02 302.39L216.07 302.44L216.11 302.47L216.15 302.51L216.18 302.54L216.24 302.6L216.26 302.66L216.26 302.71L216.22 302.75L216.16 302.79L216.08 302.83L215.96 302.85L215.82 302.87L215.66 302.89L215.47 302.9L215.27 302.9L215.04 302.9L214.78 302.89L214.51 302.88L214.22 302.87L213.92 302.84L213.59 302.82L213.25 302.79L212.89 302.75L212.52 302.71L212.14 302.66L211.74 302.61L211.33 302.56L210.91 302.5L210.48 302.44L210.04 302.37L209.59 302.3L209.14 302.22L208.68 302.15L208.21 302.06L207.74 301.98L207.26 301.89L206.78 301.8L206.3 301.7L205.82 301.6L205.34 301.5L204.85 301.4L204.37 301.29L203.9 301.18L203.42 301.07L203.11 300.99L202.8 300.92L202.49 300.83L202.17 300.75L201.84 300.66L201.51 300.57L201.18 300.47L200.84 300.37L200.5 300.27L200.16 300.16L199.81 300.05L199.45 299.94L199.1 299.82L198.73 299.7L198.37 299.57L197.99 299.44L197.62 299.31L197.24 299.17L196.85 299.03L196.46 298.89L196.07 298.74L195.67 298.59L195.27 298.44L194.86 298.28L194.44 298.12L194.03 297.95L193.6 297.78L193.17 297.61L192.74 297.43L192.3 297.25L191.86 297.07L191.41 296.88L190.96 296.69L190.5 296.49L190.04 296.29L189.57 296.08L189.1 295.88L188.62 295.66L188.14 295.45L187.65 295.23L187.5 295.18L187.37 295.18L187.25 295.23L187.14 295.32L187.04 295.45L186.95 295.63L186.87 295.84L186.8 296.09L186.75 296.38L186.7 296.7L186.67 297.06L186.64 297.45L186.63 297.87L186.62 298.32L186.63 298.79L186.64 299.3L186.67 299.83L186.7 300.39L186.75 300.96L186.8 301.56L186.86 302.18L186.94 302.82L187.02 303.48L187.1 304.15L187.2 304.84L187.31 305.54L187.42 306.25L187.55 306.97L187.68 307.7L187.82 308.44L187.96 309.19L188.12 309.94L188.28 310.7L188.45 311.45L188.63 312.21L188.81 312.97L189 313.72L189.2 314.48L189.41 315.22L189.62 315.97L190.1 317.55L190.64 319.13L191.22 320.7L191.85 322.26L192.52 323.8L193.24 325.33L194 326.85L194.8 328.35L195.64 329.83L196.52 331.3L197.44 332.74L198.4 334.17L199.39 335.58L200.42 336.96L201.48 338.32L202.58 339.66L203.7 340.97L204.86 342.25L206.04 343.51L207.26 344.74L208.5 345.94L209.77 347.1L211.06 348.24L212.38 349.34L213.72 350.41L215.08 351.45L216.46 352.44L217.87 353.41L219.29 354.33L220.73 355.21L222.18 356.05L223.65 356.85L225.14 357.61L226.64 358.33L228.15 359L229.67 359.62L231.2 360.2L232.74 360.73L234.29 361.21L235.84 361.64L235.98 361.67L236.11 361.71L236.25 361.75L236.38 361.79L236.51 361.82L236.63 361.86L236.76 361.9L236.88 361.94L237 361.98L237.12 362.02L237.23 362.06L237.34 362.1L237.45 362.14L237.55 362.18L237.66 362.22L237.75 362.26L237.85 362.3L237.94 362.34L238.03 362.38L238.11 362.42L238.19 362.46L238.27 362.5L238.34 362.54L238.41 362.58L238.47 362.61L238.53 362.65L238.59 362.69L238.64 362.72L238.68 362.76L238.72 362.79L238.76 362.83L238.79 362.86L238.82 362.89L238.84 362.92L238.86 362.95L238.87 362.98L238.87 363.01L238.87 363.03L238.87 363.06L238.86 363.08L238.78 363.18L238.66 363.27L238.5 363.36L238.31 363.45L238.07 363.54L237.8 363.63L237.5 363.72L237.16 363.8L236.8 363.89L236.4 363.97L235.98 364.05L235.53 364.13L235.05 364.21L234.55 364.29L234.03 364.36L233.49 364.43L232.92 364.5L232.34 364.56L231.75 364.62L231.14 364.68L230.51 364.74L229.88 364.79L229.23 364.84L228.58 364.89L227.91 364.93L227.25 364.97L226.57 365L225.9 365.04L225.22 365.06L224.54 365.08L223.87 365.1L223.19 365.11L222.52 365.12L221.86 365.12L221.21 365.12L220.56 365.11L219.92 365.1L219.3 365.08L218.69 365.06L218.09 365.03L210.07 364.59L210.55 366.21L211.1 367.92L211.72 369.62L212.41 371.32L213.18 373.01L214.01 374.69L214.91 376.36L215.88 378.01L216.91 379.65L218 381.27L219.14 382.87L220.34 384.45L221.59 386L222.88 387.53L224.23 389.03L225.62 390.5L227.05 391.94L228.51 393.34L230.02 394.71L231.56 396.03L233.13 397.32L234.72 398.56L236.35 399.76L237.99 400.92L239.66 402.02L241.35 403.08L243.05 404.08L244.76 405.02L246.49 405.91L248.22 406.74L249.96 407.51L251.7 408.22L253.44 408.86L255.18 409.43L256.91 409.94L258.64 410.37L260.36 410.73L262.06 411.02L263.75 411.23L265.43 411.36L267.08 411.4L267.51 411.41L267.91 411.42L268.3 411.43L268.65 411.44L268.99 411.46L269.3 411.49L269.58 411.52L269.84 411.56L270.08 411.6L270.29 411.65L270.48 411.71L270.64 411.78L270.77 411.85L270.88 411.93L270.97 412.02L271.02 412.12L271.06 412.22L271.06 412.34L271.04 412.47L271 412.6L270.92 412.75L270.83 412.91L270.7 413.07L270.55 413.25L270.37 413.45L270.16 413.65L269.92 413.87L269.66 414.1L269.37 414.34L269.05 414.6L268.71 414.87L268.33 415.16L267.93 415.46L267.5 415.77L267.04 416.1L266.55 416.45L266.04 416.81L265.49 417.19L264.92 417.59L264.31 418L262.35 419.31L260.35 420.58L258.31 421.83L256.24 423.05L254.14 424.23L252 425.38L249.84 426.49L247.64 427.58L245.43 428.62L243.19 429.64L240.94 430.61L238.66 431.56L236.37 432.46L234.06 433.33L231.75 434.16L229.42 434.95L227.09 435.7L224.75 436.42L222.41 437.09L220.07 437.72L217.73 438.31L215.39 438.86L213.05 439.37L210.73 439.84L208.41 440.26L206.11 440.64L203.82 440.97L201.54 441.26L199.29 441.5L197.05 441.7L194.84 441.85L192.65 441.96L190.48 442.01L188.35 442.02L186.24 441.98L184.17 441.89L182.13 441.75L180.13 441.56L178.17 441.31L176.25 441.02L173.65 440.58L177.55 443.19L181.05 445.45L184.62 447.62L188.27 449.7L191.99 451.68L195.78 453.57L199.63 455.37L203.54 457.07L207.51 458.68L211.54 460.19L215.62 461.6L219.74 462.92L223.91 464.15L228.12 465.28L232.38 466.31L236.67 467.24L240.99 468.08L245.34 468.82L249.72 469.46L254.12 470.01L258.54 470.45L262.98 470.8L267.44 471.05L271.9 471.2L276.38 471.25L280.86 471.2L285.34 471.06L289.82 470.81L294.3 470.46L298.76 470.01L303.22 469.46L307.67 468.8L312.09 468.05L316.5 467.2L320.89 466.24L325.24 465.18L329.57 464.02L333.87 462.75L338.13 461.38L342.36 459.91L346.54 458.33L351.77 456.18L356.92 453.86L361.98 451.36L366.96 448.69L371.84 445.86L376.64 442.87L381.34 439.72L385.94 436.42L390.44 432.97L394.84 429.38L399.14 425.65L403.32 421.79L407.4 417.79L411.36 413.67L415.21 409.42L418.94 405.05L422.54 400.56L426.03 395.97L429.39 391.27L432.61 386.46L435.71 381.56L438.67 376.56L441.5 371.46L444.18 366.28L446.73 361.02L449.13 355.68L451.38 350.26L453.48 344.78L455.43 339.22L457.22 333.6L458.86 327.93L460.33 322.2L461.64 316.41L462.79 310.58L463.77 304.71L464.57 298.8L465.21 292.85L465.66 286.88L465.94 280.87L466.04 274.85L466.04 266.06L471.05 262.04L471.71 261.5L472.4 260.91L473.12 260.28L473.88 259.59L474.66 258.87L475.48 258.1L476.31 257.3L477.17 256.47L478.04 255.61L478.93 254.72L479.83 253.8L480.74 252.87L481.65 251.91L482.57 250.95L483.49 249.97L484.41 248.98L485.33 247.99L486.23 247L487.13 246.01L488.01 245.02L488.88 244.04L489.73 243.08L490.56 242.12L491.36 241.18L492.14 240.27L492.88 239.37L493.6 238.51L494.28 237.67L494.92 236.87L495.51 236.1L496.07 235.37L496.58 234.68L497.04 234.04L497.45 233.45L497.8 232.9L498.09 232.42L498.33 231.99L498.5 231.62L498.6 231.32L498.64 231.08L498.63 231.06L498.62 231.05L498.61 231.04L498.58 231.03L498.56 231.03L498.52 231.03L498.48 231.03L498.43 231.03L498.38 231.04L498.32 231.05L498.26 231.06L498.19 231.08L498.12 231.1L498.04 231.12L497.95 231.14L497.87 231.17L497.77 231.2L497.67 231.23L497.57 231.27L497.47 231.3L497.36 231.34L497.24 231.38L497.12 231.42L497 231.47L496.88 231.52L496.75 231.57L496.62 231.62L496.48 231.67L496.34 231.73L496.2 231.79L496.06 231.85L495.91 231.91L495.76 231.97L495.61 232.03L495.45 232.1L495.3 232.17L495.14 232.24L494.98 232.31L494.82 232.38L494.65 232.46L494.09 232.71L493.49 232.96L492.85 233.22L492.17 233.49L491.46 233.76L490.72 234.03L489.95 234.31L489.15 234.58L488.32 234.86L487.47 235.14L486.61 235.43L485.72 235.71L484.82 235.99L483.91 236.26L482.99 236.54L482.06 236.81L481.12 237.08L480.18 237.35L479.24 237.61L478.31 237.86L477.37 238.11L476.44 238.35L475.52 238.58L474.62 238.81L473.72 239.03L472.84 239.24L471.98 239.43L471.14 239.62L470.33 239.8L469.54 239.96L468.77 240.11L468.04 240.25L467.34 240.38L466.68 240.49L466.05 240.58L465.46 240.66L464.92 240.72L464.42 240.77L463.97 240.79L463.56 240.8L461.45 240.8L464.27 238.85L465.07 238.29L465.88 237.67L466.7 237.01L467.54 236.31L468.39 235.56L469.24 234.78L470.11 233.96L470.98 233.11L471.85 232.23L472.73 231.32L473.6 230.39L474.47 229.43L475.34 228.45L476.2 227.46L477.05 226.45L477.89 225.43L478.72 224.4L479.54 223.36L480.34 222.32L481.12 221.28L481.89 220.24L482.63 219.2L483.35 218.16L484.04 217.14L484.71 216.12L485.34 215.12L485.95 214.14L486.52 213.17L487.06 212.23L487.56 211.3L488.02 210.41L488.45 209.54L488.82 208.71L489.16 207.91L489.45 207.15L489.69 206.42L489.88 205.74L490.02 205.1L490.1 204.51L490.13 203.97L490.12 203.96L490.1 203.95L490.06 203.95L490.01 203.96L489.94 203.98L489.86 204.01L489.76 204.04L489.65 204.08L489.53 204.12L489.39 204.17L489.24 204.23L489.08 204.3L488.9 204.37L488.72 204.45L488.52 204.53L488.31 204.62L488.09 204.72L487.86 204.82L487.62 204.93L487.37 205.04L487.11 205.16L486.84 205.28L486.57 205.41L486.28 205.54L485.98 205.68L485.68 205.82L485.37 205.97L485.05 206.12L484.72 206.28L484.39 206.44L484.05 206.6L483.7 206.76L483.35 206.93L482.99 207.11L482.63 207.29L482.26 207.47L481.89 207.65L481.51 207.83L481.13 208.02L480.74 208.21L480.03 208.56L479.32 208.91L478.59 209.26L477.87 209.6L477.13 209.94L476.4 210.28L475.65 210.62L474.91 210.95L474.16 211.28L473.41 211.61L472.66 211.94L471.91 212.26L471.15 212.57L470.4 212.88L469.64 213.19L468.89 213.49L468.14 213.79L467.38 214.09L466.64 214.37L465.89 214.66L465.15 214.93L464.41 215.21L463.68 215.47L462.95 215.73L462.23 215.98L461.52 216.23L460.81 216.47L460.11 216.7L459.41 216.93L458.73 217.14L458.05 217.35L457.39 217.56L456.73 217.75L456.08 217.94L455.45 218.11L454.83 218.28L454.22 218.44L453.62 218.59L453.03 218.73L452.46 218.87L448.46 219.77L443.25 215.22L442.02 214.17L440.77 213.16L439.51 212.18L438.22 211.22L436.91 210.3L435.59 209.41L434.25 208.56L432.89 207.73L431.51 206.94L430.12 206.18L428.72 205.45L427.3 204.75L425.87 204.09L424.43 203.46L422.98 202.87L421.51 202.3L420.04 201.78L418.56 201.28L417.07 200.82L415.57 200.4L414.06 200.01L412.55 199.65L411.04 199.33L409.52 199.05L407.99 198.8L406.47 198.59L404.94 198.41L403.41 198.27L401.88 198.17L400.35 198.1L398.82 198.07L397.29 198.08L395.77 198.12ZM12.44 277.11L11.64 277.95L10.45 279.15L9.01 280.58L5.29 284.21L8.81 280.37L10.8 278.22L11.99 277.01L12.58 276.57L12.73 276.74L12.44 277.11Z" id="a1L1F6CfG"></path></defs><g><g><g><use xlink:href="#a1L1F6CfG" opacity="1" fill="#ffffff" fill-opacity="1"></use><g><use xlink:href="#a1L1F6CfG" opacity="1" fill-opacity="0" stroke="#000000" stroke-width="1" stroke-opacity="0"></use></g></g></g></g></svg>