<?xml version="1.0" encoding="UTF-8" standalone="no"?>
<!DOCTYPE svg PUBLIC "-//W3C//DTD SVG 1.1//EN" "http://www.w3.org/Graphics/SVG/1.1/DTD/svg11.dtd">
<svg version="1.1" xmlns="http://www.w3.org/2000/svg" xmlns:xlink="http://www.w3.org/1999/xlink" preserveAspectRatio="xMidYMid meet" viewBox="0 0 640 640" width="640" height="640"><defs><path d="M315.65 10.01L316.72 10.02L317.81 10.03L318.94 10.05L320.09 10.07L321.25 10.09L322.44 10.11L323.64 10.14L324.86 10.18L326.08 10.21L327.3 10.24L328.53 10.28L329.75 10.32L330.97 10.36L332.18 10.4L333.37 10.45L334.55 10.5L335.72 10.55L336.86 10.6L337.97 10.65L339.07 10.7L340.12 10.76L341.13 10.82L342.12 10.88L343.06 10.93L343.96 10.99L344.8 11.05L345.6 11.12L346.34 11.18L347.02 11.25L348.99 11.45L350.96 11.66L352.94 11.89L354.92 12.13L356.91 12.39L358.91 12.67L360.9 12.94L362.9 13.24L364.89 13.55L366.89 13.89L368.89 14.23L370.88 14.58L372.88 14.94L374.87 15.32L376.87 15.7L378.85 16.11L380.84 16.52L382.81 16.95L384.78 17.39L386.75 17.84L388.7 18.3L390.65 18.77L392.59 19.26L394.53 19.75L396.45 20.26L398.36 20.78L400.26 21.3L402.14 21.84L404.02 22.39L405.88 22.95L407.73 23.52L409.56 24.09L411.38 24.68L413.18 25.27L414.97 25.88L416.73 26.5L418.48 27.12L420.21 27.75L421.91 28.39L423.6 29.04L434.26 33.43L444.66 38.17L454.83 43.27L464.74 48.71L474.39 54.5L483.78 60.59L492.9 67.01L501.75 73.74L510.32 80.75L518.61 88.06L526.61 95.64L534.32 103.49L541.73 111.6L548.83 119.96L555.63 128.54L562.12 137.38L568.3 146.42L574.15 155.68L579.68 165.13L584.87 174.78L589.72 184.61L594.24 194.62L598.41 204.77L602.23 215.1L605.69 225.55L608.79 236.16L611.53 246.87L613.88 257.71L615.88 268.65L617.48 279.69L618.7 290.81L619.52 302.01L619.97 313.28L620 324.61L619.63 335.99L618.84 347.4L617.64 358.84L616.03 370.31L613.99 381.78L611.52 393.25L611.12 394.91L610.72 396.56L610.31 398.21L609.88 399.88L609.44 401.55L609 403.22L608.53 404.9L608.05 406.58L607.57 408.26L607.08 409.95L606.58 411.64L606.06 413.32L605.53 415.01L605 416.7L604.46 418.39L603.9 420.08L603.33 421.76L602.76 423.45L602.19 425.13L601.6 426.82L601 428.49L600.39 430.16L599.77 431.83L599.15 433.49L598.52 435.14L597.88 436.8L597.23 438.44L596.57 440.08L595.9 441.71L595.24 443.33L594.56 444.95L593.88 446.55L593.2 448.14L592.49 449.73L591.79 451.31L591.09 452.87L590.37 454.42L589.65 455.96L588.93 457.48L588.2 458.99L582.11 470.9L575.59 482.42L568.66 493.54L561.35 504.25L553.66 514.57L545.6 524.48L537.2 533.96L528.47 543.03L519.42 551.69L510.06 559.91L500.43 567.71L490.52 575.07L480.36 581.98L469.95 588.45L459.33 594.47L448.49 600.04L437.45 605.15L426.23 609.79L414.85 613.97L403.32 617.67L391.65 620.9L379.87 623.65L367.99 625.91L356.01 627.67L343.97 628.96L331.86 629.73L319.7 630L307.52 629.76L295.33 629.01L283.13 627.75L270.95 625.95L258.81 623.63L246.72 620.79L234.68 617.4L222.72 613.48L210.86 609.01L199.11 603.99L187.48 598.42L175.99 592.29L164.64 585.6L152.43 577.61L140.73 569.14L129.55 560.2L118.9 550.81L108.78 541L99.18 530.78L90.12 520.19L81.59 509.23L73.6 497.94L66.15 486.35L59.24 474.45L52.89 462.28L47.07 449.87L41.81 437.23L37.11 424.39L32.95 411.37L29.36 398.18L26.33 384.86L23.86 371.42L21.96 357.89L20.63 344.28L19.86 330.63L19.67 316.94L20.07 303.26L21.04 289.59L22.6 275.95L24.73 262.37L27.46 248.89L30.77 235.49L34.68 222.23L39.18 209.11L44.29 196.17L49.99 183.41L56.3 170.88L63.21 158.57L70.73 146.52L78.86 134.76L87.61 123.29L96.97 112.16L106.95 101.37L111.04 97.21L115.18 93.16L119.35 89.2L123.57 85.35L127.82 81.59L132.12 77.93L136.47 74.37L140.85 70.89L145.29 67.53L149.76 64.26L154.28 61.09L158.84 58.01L163.45 55.02L168.1 52.14L172.8 49.35L177.56 46.65L182.35 44.06L187.2 41.56L192.09 39.15L197.04 36.84L202.03 34.61L207.06 32.49L212.15 30.46L217.3 28.53L222.5 26.68L227.74 24.93L233.04 23.28L238.39 21.72L243.79 20.24L249.25 18.87L254.77 17.58L260.34 16.39L265.96 15.29L271.63 14.28L277.37 13.36L283.16 12.53L289.01 11.8L294.92 11.15L300.89 10.6L306.91 10.13L307.42 10.1L308 10.07L308.64 10.05L309.34 10.03L310.09 10.02L310.9 10.01L311.77 10L312.68 10L313.63 10L314.62 10L315.65 10.01ZM401.92 194.14L400.35 194.26L398.79 194.43L397.23 194.63L395.68 194.86L394.14 195.14L392.6 195.47L389.85 196.14L387.14 196.93L384.48 197.82L381.88 198.82L379.33 199.92L376.85 201.11L374.42 202.42L372.05 203.8L369.75 205.28L367.51 206.85L365.34 208.5L363.24 210.23L361.2 212.05L359.24 213.94L357.36 215.9L355.54 217.93L353.8 220.04L352.15 222.21L350.58 224.43L349.09 226.72L347.69 229.07L346.36 231.46L345.12 233.91L343.99 236.41L342.93 238.96L341.97 241.55L341.11 244.17L340.35 246.84L339.68 249.54L339.11 252.26L338.64 255.02L338.28 257.81L338.02 260.61L337.87 263.45L337.83 266.29L337.9 269.15L338.09 272.02L338.39 274.91L338.8 277.79L339.33 280.68L339.31 280.85L339.17 280.99L338.93 281.12L338.59 281.21L338.15 281.27L337.61 281.32L336.98 281.34L336.27 281.35L335.48 281.33L334.6 281.29L333.66 281.24L332.65 281.16L331.59 281.06L330.45 280.95L329.26 280.82L328.02 280.67L326.74 280.51L325.42 280.33L324.05 280.13L322.67 279.93L321.24 279.71L319.8 279.48L318.34 279.23L316.86 278.99L315.37 278.72L313.88 278.44L312.38 278.16L310.89 277.87L309.4 277.57L307.92 277.26L306.47 276.95L305.03 276.63L303.62 276.31L302.24 275.98L300.9 275.65L299.58 275.31L298.32 274.98L297.1 274.64L295.94 274.3L294.82 273.95L292.21 273.12L289.61 272.25L287.06 271.37L284.53 270.46L282.03 269.53L279.56 268.58L277.11 267.6L274.69 266.6L272.3 265.56L269.94 264.51L267.59 263.44L265.28 262.33L262.98 261.19L260.71 260.04L258.47 258.85L256.24 257.63L254.03 256.39L251.84 255.11L249.68 253.8L247.54 252.48L245.41 251.12L243.29 249.72L241.19 248.3L239.11 246.85L237.06 245.36L235 243.84L232.98 242.29L230.95 240.71L228.95 239.09L226.95 237.44L224.97 235.75L222.99 234.04L221.03 232.28L219.08 230.49L217.13 228.66L215.19 226.8L213.27 224.9L211.35 222.97L209.44 221L207.52 218.98L206.65 218.04L205.81 217.15L205.02 216.32L204.29 215.52L203.59 214.78L202.94 214.08L202.33 213.43L201.75 212.82L201.22 212.26L200.71 211.74L200.25 211.26L199.82 210.83L199.41 210.44L199.04 210.07L198.7 209.76L198.38 209.49L198.09 209.24L197.81 209.03L197.56 208.86L197.34 208.73L197.13 208.63L196.93 208.55L196.76 208.52L196.59 208.51L196.44 208.53L196.29 208.6L196.16 208.68L196.03 208.78L195.91 208.93L195.8 209.08L195.68 209.28L195.57 209.49L195.44 209.72L195.33 209.98L195.22 210.26L195.08 210.56L194.95 210.88L194.81 211.22L194.66 211.58L194.49 211.95L193.52 214.26L192.62 216.58L191.81 218.92L191.07 221.26L190.41 223.63L189.83 226L189.33 228.37L188.9 230.75L188.56 233.14L188.28 235.52L188.1 237.91L187.97 240.3L187.93 242.68L187.96 245.05L188.08 247.42L188.25 249.77L188.51 252.11L188.84 254.45L189.24 256.76L189.72 259.06L190.27 261.34L190.89 263.6L191.58 265.83L192.33 268.04L193.17 270.22L194.07 272.38L195.04 274.51L196.09 276.6L197.19 278.66L198.38 280.68L199.62 282.67L200.93 284.61L202.32 286.52L203.76 288.38L205.28 290.19L206.86 291.96L208.51 293.68L210.22 295.34L211.99 296.96L213.83 298.52L213.97 298.63L214.11 298.74L214.25 298.86L214.39 298.97L214.52 299.09L214.65 299.2L214.79 299.3L214.92 299.42L215.06 299.53L215.19 299.63L215.33 299.75L215.45 299.85L215.58 299.96L215.71 300.07L215.83 300.17L215.96 300.27L216.07 300.37L216.19 300.47L216.31 300.56L216.42 300.66L216.52 300.75L216.64 300.84L216.74 300.92L216.83 301.02L216.94 301.1L217.03 301.17L217.12 301.26L217.21 301.33L217.29 301.4L217.37 301.47L217.44 301.53L217.52 301.6L217.58 301.66L217.64 301.71L217.7 301.76L217.75 301.8L217.81 301.85L217.85 301.89L217.89 301.93L217.92 301.96L217.98 302.02L218 302.08L218 302.13L217.96 302.17L217.9 302.22L217.82 302.26L217.69 302.28L217.55 302.3L217.38 302.32L217.19 302.33L216.98 302.33L216.74 302.33L216.47 302.32L216.19 302.31L215.89 302.3L215.58 302.27L215.24 302.25L214.89 302.22L214.52 302.17L214.14 302.13L213.75 302.08L213.33 302.03L212.91 301.98L212.47 301.92L212.03 301.85L211.58 301.78L211.11 301.71L210.65 301.63L210.17 301.55L209.68 301.46L209.2 301.38L208.7 301.29L208.21 301.19L207.71 301.09L207.21 300.99L206.72 300.88L206.21 300.78L205.72 300.67L205.23 300.55L204.73 300.44L204.41 300.36L204.09 300.28L203.77 300.19L203.44 300.11L203.1 300.02L202.76 299.92L202.42 299.82L202.07 299.72L201.72 299.61L201.37 299.5L201 299.39L200.63 299.27L200.27 299.15L199.89 299.02L199.52 298.89L199.12 298.75L198.74 298.62L198.35 298.48L197.95 298.33L197.54 298.19L197.14 298.03L196.73 297.88L196.31 297.72L195.89 297.56L195.46 297.39L195.03 297.21L194.59 297.04L194.14 296.86L193.7 296.68L193.24 296.49L192.79 296.31L192.32 296.11L191.86 295.91L191.38 295.71L190.91 295.5L190.42 295.28L189.94 295.08L189.44 294.85L188.95 294.63L188.44 294.4L188.28 294.35L188.15 294.35L188.03 294.4L187.91 294.5L187.81 294.63L187.72 294.82L187.63 295.03L187.56 295.29L187.51 295.59L187.46 295.92L187.43 296.3L187.4 296.7L187.38 297.13L187.37 297.6L187.38 298.08L187.4 298.61L187.43 299.16L187.46 299.74L187.51 300.33L187.56 300.95L187.62 301.59L187.71 302.25L187.79 302.93L187.87 303.62L187.97 304.33L188.09 305.06L188.2 305.79L188.34 306.54L188.47 307.29L188.61 308.05L188.76 308.83L188.92 309.6L189.09 310.39L189.27 311.16L189.45 311.95L189.64 312.74L189.83 313.51L190.04 314.3L190.26 315.06L190.47 315.84L190.97 317.47L191.53 319.1L192.13 320.72L192.78 322.34L193.47 323.93L194.22 325.51L195 327.08L195.83 328.63L196.7 330.16L197.6 331.68L198.56 333.16L199.55 334.64L200.57 336.1L201.63 337.53L202.73 338.93L203.87 340.32L205.02 341.67L206.22 342.99L207.44 344.29L208.7 345.56L209.98 346.8L211.3 348L212.63 349.18L213.99 350.32L215.38 351.42L216.78 352.5L218.21 353.52L219.67 354.52L221.13 355.47L222.62 356.38L224.12 357.25L225.64 358.08L227.18 358.86L228.73 359.61L230.29 360.3L231.86 360.94L233.44 361.54L235.03 362.09L236.63 362.58L238.24 363.03L238.38 363.06L238.51 363.1L238.66 363.14L238.79 363.18L238.93 363.21L239.05 363.26L239.19 363.3L239.31 363.34L239.43 363.38L239.56 363.42L239.67 363.46L239.79 363.5L239.9 363.54L240 363.59L240.12 363.63L240.21 363.67L240.31 363.71L240.41 363.75L240.5 363.79L240.58 363.83L240.66 363.88L240.75 363.92L240.82 363.96L240.89 364L240.95 364.03L241.01 364.07L241.08 364.11L241.13 364.14L241.17 364.19L241.21 364.22L241.25 364.26L241.28 364.29L241.31 364.32L241.34 364.35L241.36 364.38L241.37 364.41L241.37 364.44L241.37 364.46L241.37 364.5L241.36 364.52L241.27 364.62L241.15 364.71L240.98 364.81L240.79 364.9L240.54 364.99L240.26 365.08L239.95 365.18L239.6 365.26L239.23 365.35L238.81 365.44L238.38 365.52L237.91 365.6L237.42 365.68L236.9 365.77L236.36 365.84L235.81 365.91L235.22 365.98L234.62 366.05L234.01 366.11L233.38 366.17L232.73 366.23L232.08 366.28L231.4 366.33L230.73 366.39L230.04 366.43L229.36 366.47L228.66 366.5L227.96 366.54L227.26 366.56L226.56 366.58L225.87 366.6L225.16 366.61L224.47 366.62L223.79 366.62L223.12 366.62L222.45 366.61L221.78 366.6L221.14 366.58L220.51 366.56L219.89 366.53L211.61 366.08L212.1 367.75L212.67 369.52L213.31 371.27L214.02 373.03L214.82 374.78L215.68 376.51L216.61 378.24L217.61 379.94L218.67 381.64L219.8 383.31L220.98 384.97L222.22 386.6L223.51 388.2L224.84 389.78L226.24 391.33L227.67 392.85L229.15 394.34L230.66 395.78L232.22 397.2L233.81 398.56L235.43 399.9L237.08 401.18L238.76 402.42L240.46 403.62L242.18 404.75L243.93 405.85L245.69 406.88L247.45 407.85L249.24 408.77L251.03 409.63L252.83 410.43L254.62 411.16L256.42 411.82L258.22 412.41L260.01 412.94L261.8 413.38L263.57 413.75L265.33 414.05L267.08 414.27L268.81 414.41L270.52 414.45L270.96 414.46L271.37 414.47L271.78 414.48L272.14 414.49L272.49 414.51L272.81 414.54L273.1 414.57L273.37 414.61L273.62 414.65L273.83 414.7L274.03 414.77L274.2 414.84L274.33 414.91L274.44 414.99L274.54 415.09L274.59 415.19L274.63 415.29L274.63 415.42L274.61 415.55L274.57 415.69L274.48 415.84L274.39 416.01L274.26 416.17L274.1 416.36L273.92 416.56L273.7 416.77L273.45 417L273.18 417.24L272.88 417.48L272.55 417.75L272.2 418.03L271.81 418.33L271.39 418.64L270.95 418.96L270.48 419.3L269.97 419.67L269.44 420.04L268.87 420.43L268.28 420.84L267.65 421.27L265.63 422.62L263.56 423.93L261.45 425.22L259.32 426.48L257.15 427.7L254.93 428.89L252.7 430.04L250.43 431.17L248.14 432.24L245.83 433.29L243.51 434.3L241.15 435.28L238.78 436.21L236.4 437.11L234.01 437.97L231.6 438.78L229.19 439.56L226.78 440.3L224.36 440.99L221.94 441.64L219.52 442.25L217.1 442.82L214.69 443.35L212.29 443.83L209.89 444.27L207.51 444.66L205.15 445L202.79 445.3L200.47 445.55L198.15 445.76L195.87 445.91L193.61 446.03L191.36 446.08L189.16 446.09L186.98 446.05L184.84 445.95L182.73 445.81L180.67 445.61L178.64 445.35L176.66 445.05L173.97 444.6L178 447.3L181.62 449.63L185.31 451.87L189.08 454.02L192.92 456.07L196.84 458.02L200.82 459.88L204.86 461.64L208.96 463.3L213.13 464.86L217.34 466.32L221.6 467.68L225.91 468.95L230.26 470.12L234.66 471.19L239.09 472.15L243.56 473.02L248.05 473.78L252.58 474.44L257.12 475.01L261.69 475.47L266.28 475.83L270.89 476.09L275.5 476.24L280.13 476.29L284.76 476.24L289.39 476.1L294.01 475.84L298.64 475.48L303.25 475.01L307.86 474.44L312.46 473.76L317.03 472.98L321.58 472.11L326.12 471.11L330.62 470.02L335.09 468.82L339.53 467.51L343.93 466.09L348.31 464.57L352.63 462.94L358.03 460.72L363.35 458.32L368.58 455.74L373.73 452.98L378.77 450.06L383.73 446.97L388.59 443.71L393.34 440.3L397.99 436.74L402.54 433.03L406.98 429.17L411.3 425.18L415.51 421.05L419.61 416.79L423.58 412.4L427.44 407.89L431.16 403.25L434.76 398.5L438.24 393.65L441.56 388.68L444.77 383.61L447.83 378.45L450.75 373.18L453.52 367.82L456.15 362.39L458.63 356.87L460.96 351.27L463.13 345.61L465.14 339.86L466.99 334.05L468.69 328.19L470.21 322.27L471.56 316.29L472.75 310.27L473.76 304.2L474.59 298.09L475.25 291.95L475.72 285.78L476.01 279.57L476.11 273.34L476.11 264.26L481.29 260.11L481.97 259.55L482.68 258.94L483.42 258.29L484.21 257.58L485.02 256.83L485.86 256.04L486.72 255.21L487.61 254.35L488.51 253.46L489.43 252.54L490.36 251.59L491.3 250.63L492.24 249.64L493.19 248.65L494.14 247.64L495.09 246.61L496.04 245.59L496.97 244.57L497.9 243.54L498.81 242.52L499.71 241.51L500.59 240.52L501.45 239.52L502.27 238.55L503.08 237.61L503.84 236.68L504.59 235.79L505.29 234.93L505.95 234.1L506.56 233.3L507.14 232.55L507.67 231.84L508.14 231.17L508.57 230.56L508.93 230L509.23 229.5L509.47 229.06L509.65 228.67L509.75 228.36L509.8 228.12L509.78 228.1L509.77 228.08L509.76 228.07L509.73 228.06L509.71 228.06L509.67 228.06L509.63 228.06L509.58 228.06L509.53 228.07L509.46 228.08L509.4 228.1L509.33 228.12L509.26 228.14L509.18 228.16L509.08 228.18L509 228.21L508.9 228.24L508.79 228.27L508.69 228.31L508.59 228.34L508.47 228.38L508.35 228.43L508.22 228.47L508.1 228.52L507.98 228.57L507.84 228.62L507.71 228.67L507.56 228.73L507.42 228.79L507.27 228.85L507.13 228.91L506.97 228.97L506.82 229.04L506.66 229.1L506.5 229.17L506.34 229.24L506.18 229.31L506.01 229.39L505.85 229.46L505.67 229.54L505.09 229.8L504.47 230.06L503.81 230.33L503.11 230.61L502.38 230.89L501.61 231.16L500.82 231.45L499.99 231.73L499.13 232.02L498.25 232.31L497.36 232.61L496.44 232.9L495.51 233.19L494.57 233.47L493.62 233.76L492.66 234.04L491.69 234.32L490.72 234.59L489.75 234.86L488.79 235.12L487.82 235.38L486.86 235.63L485.9 235.87L484.97 236.1L484.04 236.33L483.14 236.55L482.25 236.74L481.38 236.94L480.54 237.13L479.73 237.29L478.93 237.45L478.18 237.59L477.45 237.73L476.77 237.84L476.12 237.93L475.51 238.02L474.95 238.08L474.43 238.13L473.97 238.15L473.55 238.16L471.37 238.16L474.28 236.15L475.11 235.57L475.94 234.93L476.79 234.24L477.66 233.52L478.54 232.75L479.42 231.94L480.31 231.09L481.21 230.21L482.11 229.3L483.02 228.36L483.92 227.4L484.82 226.41L485.72 225.4L486.61 224.38L487.49 223.33L488.35 222.28L489.21 221.21L490.06 220.14L490.89 219.06L491.69 217.99L492.49 216.91L493.25 215.84L494 214.77L494.71 213.71L495.4 212.66L496.05 211.62L496.68 210.61L497.27 209.61L497.83 208.64L498.35 207.68L498.82 206.76L499.27 205.86L499.65 205L500 204.17L500.3 203.39L500.55 202.63L500.74 201.93L500.89 201.27L500.97 200.66L501 200.1L500.99 200.09L500.97 200.08L500.93 200.08L500.88 200.09L500.81 200.11L500.72 200.14L500.62 200.17L500.51 200.22L500.38 200.26L500.24 200.31L500.08 200.37L499.92 200.44L499.73 200.52L499.54 200.6L499.34 200.68L499.12 200.77L498.89 200.88L498.66 200.98L498.41 201.09L498.15 201.21L497.88 201.33L497.6 201.46L497.32 201.59L497.02 201.72L496.71 201.87L496.4 202.01L496.08 202.17L495.75 202.32L495.41 202.49L495.07 202.65L494.72 202.82L494.36 202.99L494 203.16L493.62 203.35L493.25 203.53L492.87 203.72L492.49 203.9L492.09 204.09L491.7 204.29L491.3 204.48L490.56 204.85L489.83 205.21L489.08 205.57L488.33 205.92L487.57 206.27L486.81 206.62L486.04 206.97L485.27 207.31L484.5 207.66L483.72 208L482.95 208.34L482.17 208.67L481.39 208.99L480.61 209.31L479.83 209.63L479.05 209.94L478.28 210.25L477.49 210.56L476.73 210.85L475.95 211.15L475.19 211.43L474.42 211.72L473.67 211.99L472.92 212.25L472.17 212.51L471.44 212.77L470.7 213.02L469.98 213.26L469.26 213.49L468.55 213.71L467.85 213.93L467.17 214.15L466.49 214.34L465.82 214.54L465.17 214.71L464.52 214.89L463.89 215.05L463.27 215.21L462.66 215.35L462.08 215.5L457.94 216.43L452.56 211.73L451.29 210.64L450 209.6L448.69 208.59L447.36 207.59L446.01 206.64L444.64 205.72L443.26 204.85L441.85 203.99L440.43 203.17L438.99 202.39L437.54 201.63L436.08 200.91L434.6 200.23L433.11 199.58L431.61 198.97L430.09 198.38L428.58 197.84L427.05 197.32L425.51 196.85L423.96 196.41L422.4 196.01L420.84 195.64L419.28 195.31L417.7 195.02L416.12 194.76L414.55 194.54L412.97 194.36L411.39 194.21L409.81 194.11L408.23 194.04L406.65 194.01L405.07 194.02L403.5 194.06L401.92 194.14ZM6.56 276.55L5.33 277.79L3.84 279.27L0 283.02L3.64 279.05L5.69 276.83L6.92 275.58L7.53 275.12L7.69 275.3L7.39 275.68L6.56 276.55Z" id="cbGNd2y7I"></path><path d="M315.65 10.01L316.72 10.02L317.81 10.03L318.94 10.05L320.09 10.07L321.25 10.09L322.44 10.11L323.64 10.14L324.86 10.18L326.08 10.21L327.3 10.24L328.53 10.28L329.75 10.32L330.97 10.36L332.18 10.4L333.37 10.45L334.55 10.5L335.72 10.55L336.86 10.6L337.97 10.65L339.07 10.7L340.12 10.76L341.13 10.82L342.12 10.88L343.06 10.93L343.96 10.99L344.8 11.05L345.6 11.12L346.34 11.18L347.02 11.25L348.99 11.45L350.96 11.66L352.94 11.89L354.92 12.13L356.91 12.39L358.91 12.67L360.9 12.94L362.9 13.24L364.89 13.55L366.89 13.89L368.89 14.23L370.88 14.58L372.88 14.94L374.87 15.32L376.87 15.7L378.85 16.11L380.84 16.52L382.81 16.95L384.78 17.39L386.75 17.84L388.7 18.3L390.65 18.77L392.59 19.26L394.53 19.75L396.45 20.26L398.36 20.78L400.26 21.3L402.14 21.84L404.02 22.39L405.88 22.95L407.73 23.52L409.56 24.09L411.38 24.68L413.18 25.27L414.97 25.88L416.73 26.5L418.48 27.12L420.21 27.75L421.91 28.39L423.6 29.04L434.26 33.43L444.66 38.17L454.83 43.27L464.74 48.71L474.39 54.5L483.78 60.59L492.9 67.01L501.75 73.74L510.32 80.75L518.61 88.06L526.61 95.64L534.32 103.49L541.73 111.6L548.83 119.96L555.63 128.54L562.12 137.38L568.3 146.42L574.15 155.68L579.68 165.13L584.87 174.78L589.72 184.61L594.24 194.62L598.41 204.77L602.23 215.1L605.69 225.55L608.79 236.16L611.53 246.87L613.88 257.71L615.88 268.65L617.48 279.69L618.7 290.81L619.52 302.01L619.97 313.28L620 324.61L619.63 335.99L618.84 347.4L617.64 358.84L616.03 370.31L613.99 381.78L611.52 393.25L611.12 394.91L610.72 396.56L610.31 398.21L609.88 399.88L609.44 401.55L609 403.22L608.53 404.9L608.05 406.58L607.57 408.26L607.08 409.95L606.58 411.64L606.06 413.32L605.53 415.01L605 416.7L604.46 418.39L603.9 420.08L603.33 421.76L602.76 423.45L602.19 425.13L601.6 426.82L601 428.49L600.39 430.16L599.77 431.83L599.15 433.49L598.52 435.14L597.88 436.8L597.23 438.44L596.57 440.08L595.9 441.71L595.24 443.33L594.56 444.95L593.88 446.55L593.2 448.14L592.49 449.73L591.79 451.31L591.09 452.87L590.37 454.42L589.65 455.96L588.93 457.48L588.2 458.99L582.11 470.9L575.59 482.42L568.66 493.54L561.35 504.25L553.66 514.57L545.6 524.48L537.2 533.96L528.47 543.03L519.42 551.69L510.06 559.91L500.43 567.71L490.52 575.07L480.36 581.98L469.95 588.45L459.33 594.47L448.49 600.04L437.45 605.15L426.23 609.79L414.85 613.97L403.32 617.67L391.65 620.9L379.87 623.65L367.99 625.91L356.01 627.67L343.97 628.96L331.86 629.73L319.7 630L307.52 629.76L295.33 629.01L283.13 627.75L270.95 625.95L258.81 623.63L246.72 620.79L234.68 617.4L222.72 613.48L210.86 609.01L199.11 603.99L187.48 598.42L175.99 592.29L164.64 585.6L152.43 577.61L140.73 569.14L129.55 560.2L118.9 550.81L108.78 541L99.18 530.78L90.12 520.19L81.59 509.23L73.6 497.94L66.15 486.35L59.24 474.45L52.89 462.28L47.07 449.87L41.81 437.23L37.11 424.39L32.95 411.37L29.36 398.18L26.33 384.86L23.86 371.42L21.96 357.89L20.63 344.28L19.86 330.63L19.67 316.94L20.07 303.26L21.04 289.59L22.6 275.95L24.73 262.37L27.46 248.89L30.77 235.49L34.68 222.23L39.18 209.11L44.29 196.17L49.99 183.41L56.3 170.88L63.21 158.57L70.73 146.52L78.86 134.76L87.61 123.29L96.97 112.16L106.95 101.37L111.04 97.21L115.18 93.16L119.35 89.2L123.57 85.35L127.82 81.59L132.12 77.93L136.47 74.37L140.85 70.89L145.29 67.53L149.76 64.26L154.28 61.09L158.84 58.01L163.45 55.02L168.1 52.14L172.8 49.35L177.56 46.65L182.35 44.06L187.2 41.56L192.09 39.15L197.04 36.84L202.03 34.61L207.06 32.49L212.15 30.46L217.3 28.53L222.5 26.68L227.74 24.93L233.04 23.28L238.39 21.72L243.79 20.24L249.25 18.87L254.77 17.58L260.34 16.39L265.96 15.29L271.63 14.28L277.37 13.36L283.16 12.53L289.01 11.8L294.92 11.15L300.89 10.6L306.91 10.13L307.42 10.1L308 10.07L308.64 10.05L309.34 10.03L310.09 10.02L310.9 10.01L311.77 10L312.68 10L313.63 10L314.62 10L315.65 10.01ZM401.92 194.14L400.35 194.26L398.79 194.43L397.23 194.63L395.68 194.86L394.14 195.14L392.6 195.47L389.85 196.14L387.14 196.93L384.48 197.82L381.88 198.82L379.33 199.92L376.85 201.11L374.42 202.42L372.05 203.8L369.75 205.28L367.51 206.85L365.34 208.5L363.24 210.23L361.2 212.05L359.24 213.94L357.36 215.9L355.54 217.93L353.8 220.04L352.15 222.21L350.58 224.43L349.09 226.72L347.69 229.07L346.36 231.46L345.12 233.91L343.99 236.41L342.93 238.96L341.97 241.55L341.11 244.17L340.35 246.84L339.68 249.54L339.11 252.26L338.64 255.02L338.28 257.81L338.02 260.61L337.87 263.45L337.83 266.29L337.9 269.15L338.09 272.02L338.39 274.91L338.8 277.79L339.33 280.68L339.31 280.85L339.17 280.99L338.93 281.12L338.59 281.21L338.15 281.27L337.61 281.32L336.98 281.34L336.27 281.35L335.48 281.33L334.6 281.29L333.66 281.24L332.65 281.16L331.59 281.06L330.45 280.95L329.26 280.82L328.02 280.67L326.74 280.51L325.42 280.33L324.05 280.13L322.67 279.93L321.24 279.71L319.8 279.48L318.34 279.23L316.86 278.99L315.37 278.72L313.88 278.44L312.38 278.16L310.89 277.87L309.4 277.57L307.92 277.26L306.47 276.95L305.03 276.63L303.62 276.31L302.24 275.98L300.9 275.65L299.58 275.31L298.32 274.98L297.1 274.64L295.94 274.3L294.82 273.95L292.21 273.12L289.61 272.25L287.06 271.37L284.53 270.46L282.03 269.53L279.56 268.58L277.11 267.6L274.69 266.6L272.3 265.56L269.94 264.51L267.59 263.44L265.28 262.33L262.98 261.19L260.71 260.04L258.47 258.85L256.24 257.63L254.03 256.39L251.84 255.11L249.68 253.8L247.54 252.48L245.41 251.12L243.29 249.72L241.19 248.3L239.11 246.85L237.06 245.36L235 243.84L232.98 242.29L230.95 240.71L228.95 239.09L226.95 237.44L224.97 235.75L222.99 234.04L221.03 232.28L219.08 230.49L217.13 228.66L215.19 226.8L213.27 224.9L211.35 222.97L209.44 221L207.52 218.98L206.65 218.04L205.81 217.15L205.02 216.32L204.29 215.52L203.59 214.78L202.94 214.08L202.33 213.43L201.75 212.82L201.22 212.26L200.71 211.74L200.25 211.26L199.82 210.83L199.41 210.44L199.04 210.07L198.7 209.76L198.38 209.49L198.09 209.24L197.81 209.03L197.56 208.86L197.34 208.73L197.13 208.63L196.93 208.55L196.76 208.52L196.59 208.51L196.44 208.53L196.29 208.6L196.16 208.68L196.03 208.78L195.91 208.93L195.8 209.08L195.68 209.28L195.57 209.49L195.44 209.72L195.33 209.98L195.22 210.26L195.08 210.56L194.95 210.88L194.81 211.22L194.66 211.58L194.49 211.95L193.52 214.26L192.62 216.58L191.81 218.92L191.07 221.26L190.41 223.63L189.83 226L189.33 228.37L188.9 230.75L188.56 233.14L188.28 235.52L188.1 237.91L187.97 240.3L187.93 242.68L187.96 245.05L188.08 247.42L188.25 249.77L188.51 252.11L188.84 254.45L189.24 256.76L189.72 259.06L190.27 261.34L190.89 263.6L191.58 265.83L192.33 268.04L193.17 270.22L194.07 272.38L195.04 274.51L196.09 276.6L197.19 278.66L198.38 280.68L199.62 282.67L200.93 284.61L202.32 286.52L203.76 288.38L205.28 290.19L206.86 291.96L208.51 293.68L210.22 295.34L211.99 296.96L213.83 298.52L213.97 298.63L214.11 298.74L214.25 298.86L214.39 298.97L214.52 299.09L214.65 299.2L214.79 299.3L214.92 299.42L215.06 299.53L215.19 299.63L215.33 299.75L215.45 299.85L215.58 299.96L215.71 300.07L215.83 300.17L215.96 300.27L216.07 300.37L216.19 300.47L216.31 300.56L216.42 300.66L216.52 300.75L216.64 300.84L216.74 300.92L216.83 301.02L216.94 301.1L217.03 301.17L217.12 301.26L217.21 301.33L217.29 301.4L217.37 301.47L217.44 301.53L217.52 301.6L217.58 301.66L217.64 301.71L217.7 301.76L217.75 301.8L217.81 301.85L217.85 301.89L217.89 301.93L217.92 301.96L217.98 302.02L218 302.08L218 302.13L217.96 302.17L217.9 302.22L217.82 302.26L217.69 302.28L217.55 302.3L217.38 302.32L217.19 302.33L216.98 302.33L216.74 302.33L216.47 302.32L216.19 302.31L215.89 302.3L215.58 302.27L215.24 302.25L214.89 302.22L214.52 302.17L214.14 302.13L213.75 302.08L213.33 302.03L212.91 301.98L212.47 301.92L212.03 301.85L211.58 301.78L211.11 301.71L210.65 301.63L210.17 301.55L209.68 301.46L209.2 301.38L208.7 301.29L208.21 301.19L207.71 301.09L207.21 300.99L206.72 300.88L206.21 300.78L205.72 300.67L205.23 300.55L204.73 300.44L204.41 300.36L204.09 300.28L203.77 300.19L203.44 300.11L203.1 300.02L202.76 299.92L202.42 299.82L202.07 299.72L201.72 299.61L201.37 299.5L201 299.39L200.63 299.27L200.27 299.15L199.89 299.02L199.52 298.89L199.12 298.75L198.74 298.62L198.35 298.48L197.95 298.33L197.54 298.19L197.14 298.03L196.73 297.88L196.31 297.72L195.89 297.56L195.46 297.39L195.03 297.21L194.59 297.04L194.14 296.86L193.7 296.68L193.24 296.49L192.79 296.31L192.32 296.11L191.86 295.91L191.38 295.71L190.91 295.5L190.42 295.28L189.94 295.08L189.44 294.85L188.95 294.63L188.44 294.4L188.28 294.35L188.15 294.35L188.03 294.4L187.91 294.5L187.81 294.63L187.72 294.82L187.63 295.03L187.56 295.29L187.51 295.59L187.46 295.92L187.43 296.3L187.4 296.7L187.38 297.13L187.37 297.6L187.38 298.08L187.4 298.61L187.43 299.16L187.46 299.74L187.51 300.33L187.56 300.95L187.62 301.59L187.71 302.25L187.79 302.93L187.87 303.62L187.97 304.33L188.09 305.06L188.2 305.79L188.34 306.54L188.47 307.29L188.61 308.05L188.76 308.83L188.92 309.6L189.09 310.39L189.27 311.16L189.45 311.95L189.64 312.74L189.83 313.51L190.04 314.3L190.26 315.06L190.47 315.84L190.97 317.47L191.53 319.1L192.13 320.72L192.78 322.34L193.47 323.93L194.22 325.51L195 327.08L195.83 328.63L196.7 330.16L197.6 331.68L198.56 333.16L199.55 334.64L200.57 336.1L201.63 337.53L202.73 338.93L203.87 340.32L205.02 341.67L206.22 342.99L207.44 344.29L208.7 345.56L209.98 346.8L211.3 348L212.63 349.18L213.99 350.32L215.38 351.42L216.78 352.5L218.21 353.52L219.67 354.52L221.13 355.47L222.62 356.38L224.12 357.25L225.64 358.08L227.18 358.86L228.73 359.61L230.29 360.3L231.86 360.94L233.44 361.54L235.03 362.09L236.63 362.58L238.24 363.03L238.38 363.06L238.51 363.1L238.66 363.14L238.79 363.18L238.93 363.21L239.05 363.26L239.19 363.3L239.31 363.34L239.43 363.38L239.56 363.42L239.67 363.46L239.79 363.5L239.9 363.54L240 363.59L240.12 363.63L240.21 363.67L240.31 363.71L240.41 363.75L240.5 363.79L240.58 363.83L240.66 363.88L240.75 363.92L240.82 363.96L240.89 364L240.95 364.03L241.01 364.07L241.08 364.11L241.13 364.14L241.17 364.19L241.21 364.22L241.25 364.26L241.28 364.29L241.31 364.32L241.34 364.35L241.36 364.38L241.37 364.41L241.37 364.44L241.37 364.46L241.37 364.5L241.36 364.52L241.27 364.62L241.15 364.71L240.98 364.81L240.79 364.9L240.54 364.99L240.26 365.08L239.95 365.18L239.6 365.26L239.23 365.35L238.81 365.44L238.38 365.52L237.91 365.6L237.42 365.68L236.9 365.77L236.36 365.84L235.81 365.91L235.22 365.98L234.62 366.05L234.01 366.11L233.38 366.17L232.73 366.23L232.08 366.28L231.4 366.33L230.73 366.39L230.04 366.43L229.36 366.47L228.66 366.5L227.96 366.54L227.26 366.56L226.56 366.58L225.87 366.6L225.16 366.61L224.47 366.62L223.79 366.62L223.12 366.62L222.45 366.61L221.78 366.6L221.14 366.58L220.51 366.56L219.89 366.53L211.61 366.08L212.1 367.75L212.67 369.52L213.31 371.27L214.02 373.03L214.82 374.78L215.68 376.51L216.61 378.24L217.61 379.94L218.67 381.64L219.8 383.31L220.98 384.97L222.22 386.6L223.51 388.2L224.84 389.78L226.24 391.33L227.67 392.85L229.15 394.34L230.66 395.78L232.22 397.2L233.81 398.56L235.43 399.9L237.08 401.18L238.76 402.42L240.46 403.62L242.18 404.75L243.93 405.85L245.69 406.88L247.45 407.85L249.24 408.77L251.03 409.63L252.83 410.43L254.62 411.16L256.42 411.82L258.22 412.41L260.01 412.94L261.8 413.38L263.57 413.75L265.33 414.05L267.08 414.27L268.81 414.41L270.52 414.45L270.96 414.46L271.37 414.47L271.78 414.48L272.14 414.49L272.49 414.51L272.81 414.54L273.1 414.57L273.37 414.61L273.62 414.65L273.83 414.7L274.03 414.77L274.2 414.84L274.33 414.91L274.44 414.99L274.54 415.09L274.59 415.19L274.63 415.29L274.63 415.42L274.61 415.55L274.57 415.69L274.48 415.84L274.39 416.01L274.26 416.17L274.1 416.36L273.92 416.56L273.7 416.77L273.45 417L273.18 417.24L272.88 417.48L272.55 417.75L272.2 418.03L271.81 418.33L271.39 418.64L270.95 418.96L270.48 419.3L269.97 419.67L269.44 420.04L268.87 420.43L268.28 420.84L267.65 421.27L265.63 422.62L263.56 423.93L261.45 425.22L259.32 426.48L257.15 427.7L254.93 428.89L252.7 430.04L250.43 431.17L248.14 432.24L245.83 433.29L243.51 434.3L241.15 435.28L238.78 436.21L236.4 437.11L234.01 437.97L231.6 438.78L229.19 439.56L226.78 440.3L224.36 440.99L221.94 441.64L219.52 442.25L217.1 442.82L214.69 443.35L212.29 443.83L209.89 444.27L207.51 444.66L205.15 445L202.79 445.3L200.47 445.55L198.15 445.76L195.87 445.91L193.61 446.03L191.36 446.08L189.16 446.09L186.98 446.05L184.84 445.95L182.73 445.81L180.67 445.61L178.64 445.35L176.66 445.05L173.97 444.6L178 447.3L181.62 449.63L185.31 451.87L189.08 454.02L192.92 456.07L196.84 458.02L200.82 459.88L204.86 461.64L208.96 463.3L213.13 464.86L217.34 466.32L221.6 467.68L225.91 468.95L230.26 470.12L234.66 471.19L239.09 472.15L243.56 473.02L248.05 473.78L252.58 474.44L257.12 475.01L261.69 475.47L266.28 475.83L270.89 476.09L275.5 476.24L280.13 476.29L284.76 476.24L289.39 476.1L294.01 475.84L298.64 475.48L303.25 475.01L307.86 474.44L312.46 473.76L317.03 472.98L321.58 472.11L326.12 471.11L330.62 470.02L335.09 468.82L339.53 467.51L343.93 466.09L348.31 464.57L352.63 462.94L358.03 460.72L363.35 458.32L368.58 455.74L373.73 452.98L378.77 450.06L383.73 446.97L388.59 443.71L393.34 440.3L397.99 436.74L402.54 433.03L406.98 429.17L411.3 425.18L415.51 421.05L419.61 416.79L423.58 412.4L427.44 407.89L431.16 403.25L434.76 398.5L438.24 393.65L441.56 388.68L444.77 383.61L447.83 378.45L450.75 373.18L453.52 367.82L456.15 362.39L458.63 356.87L460.96 351.27L463.13 345.61L465.14 339.86L466.99 334.05L468.69 328.19L470.21 322.27L471.56 316.29L472.75 310.27L473.76 304.2L474.59 298.09L475.25 291.95L475.72 285.78L476.01 279.57L476.11 273.34L476.11 264.26L481.29 260.11L481.97 259.55L482.68 258.94L483.42 258.29L484.21 257.58L485.02 256.83L485.86 256.04L486.72 255.21L487.61 254.35L488.51 253.46L489.43 252.54L490.36 251.59L491.3 250.63L492.24 249.64L493.19 248.65L494.14 247.64L495.09 246.61L496.04 245.59L496.97 244.57L497.9 243.54L498.81 242.52L499.71 241.51L500.59 240.52L501.45 239.52L502.27 238.55L503.08 237.61L503.84 236.68L504.59 235.79L505.29 234.93L505.95 234.1L506.56 233.3L507.14 232.55L507.67 231.84L508.14 231.17L508.57 230.56L508.93 230L509.23 229.5L509.47 229.06L509.65 228.67L509.75 228.36L509.8 228.12L509.78 228.1L509.77 228.08L509.76 228.07L509.73 228.06L509.71 228.06L509.67 228.06L509.63 228.06L509.58 228.06L509.53 228.07L509.46 228.08L509.4 228.1L509.33 228.12L509.26 228.14L509.18 228.16L509.08 228.18L509 228.21L508.9 228.24L508.79 228.27L508.69 228.31L508.59 228.34L508.47 228.38L508.35 228.43L508.22 228.47L508.1 228.52L507.98 228.57L507.84 228.62L507.71 228.67L507.56 228.73L507.42 228.79L507.27 228.85L507.13 228.91L506.97 228.97L506.82 229.04L506.66 229.1L506.5 229.17L506.34 229.24L506.18 229.31L506.01 229.39L505.85 229.46L505.67 229.54L505.09 229.8L504.47 230.06L503.81 230.33L503.11 230.61L502.38 230.89L501.61 231.16L500.82 231.45L499.99 231.73L499.13 232.02L498.25 232.31L497.36 232.61L496.44 232.9L495.51 233.19L494.57 233.47L493.62 233.76L492.66 234.04L491.69 234.32L490.72 234.59L489.75 234.86L488.79 235.12L487.82 235.38L486.86 235.63L485.9 235.87L484.97 236.1L484.04 236.33L483.14 236.55L482.25 236.74L481.38 236.94L480.54 237.13L479.73 237.29L478.93 237.45L478.18 237.59L477.45 237.73L476.77 237.84L476.12 237.93L475.51 238.02L474.95 238.08L474.43 238.13L473.97 238.15L473.55 238.16L471.37 238.16L474.28 236.15L475.11 235.57L475.94 234.93L476.79 234.24L477.66 233.52L478.54 232.75L479.42 231.94L480.31 231.09L481.21 230.21L482.11 229.3L483.02 228.36L483.92 227.4L484.82 226.41L485.72 225.4L486.61 224.38L487.49 223.33L488.35 222.28L489.21 221.21L490.06 220.14L490.89 219.06L491.69 217.99L492.49 216.91L493.25 215.84L494 214.77L494.71 213.71L495.4 212.66L496.05 211.62L496.68 210.61L497.27 209.61L497.83 208.64L498.35 207.68L498.82 206.76L499.27 205.86L499.65 205L500 204.17L500.3 203.39L500.55 202.63L500.74 201.93L500.89 201.27L500.97 200.66L501 200.1L500.99 200.09L500.97 200.08L500.93 200.08L500.88 200.09L500.81 200.11L500.72 200.14L500.62 200.17L500.51 200.22L500.38 200.26L500.24 200.31L500.08 200.37L499.92 200.44L499.73 200.52L499.54 200.6L499.34 200.68L499.12 200.77L498.89 200.88L498.66 200.98L498.41 201.09L498.15 201.21L497.88 201.33L497.6 201.46L497.32 201.59L497.02 201.72L496.71 201.87L496.4 202.01L496.08 202.17L495.75 202.32L495.41 202.49L495.07 202.65L494.72 202.82L494.36 202.99L494 203.16L493.62 203.35L493.25 203.53L492.87 203.72L492.49 203.9L492.09 204.09L491.7 204.29L491.3 204.48L490.56 204.85L489.83 205.21L489.08 205.57L488.33 205.92L487.57 206.27L486.81 206.62L486.04 206.97L485.27 207.31L484.5 207.66L483.72 208L482.95 208.34L482.17 208.67L481.39 208.99L480.61 209.31L479.83 209.63L479.05 209.94L478.28 210.25L477.49 210.56L476.73 210.85L475.95 211.15L475.19 211.43L474.42 211.72L473.67 211.99L472.92 212.25L472.17 212.51L471.44 212.77L470.7 213.02L469.98 213.26L469.26 213.49L468.55 213.71L467.85 213.93L467.17 214.15L466.49 214.34L465.82 214.54L465.17 214.71L464.52 214.89L463.89 215.05L463.27 215.21L462.66 215.35L462.08 215.5L457.94 216.43L452.56 211.73L451.29 210.64L450 209.6L448.69 208.59L447.36 207.59L446.01 206.64L444.64 205.72L443.26 204.85L441.85 203.99L440.43 203.17L438.99 202.39L437.54 201.63L436.08 200.91L434.6 200.23L433.11 199.58L431.61 198.97L430.09 198.38L428.58 197.84L427.05 197.32L425.51 196.85L423.96 196.41L422.4 196.01L420.84 195.64L419.28 195.31L417.7 195.02L416.12 194.76L414.55 194.54L412.97 194.36L411.39 194.21L409.81 194.11L408.23 194.04L406.65 194.01L405.07 194.02L403.5 194.06L401.92 194.14ZM6.56 276.55L5.33 277.79L3.84 279.27L0 283.02L3.64 279.05L5.69 276.83L6.92 275.58L7.53 275.12L7.69 275.3L7.39 275.68L6.56 276.55Z" id="c154dVzbk8"></path></defs><g><g><g><use xlink:href="#cbGNd2y7I" opacity="1" fill="#ffffff" fill-opacity="1"></use><g><use xlink:href="#cbGNd2y7I" opacity="1" fill-opacity="0" stroke="#000000" stroke-width="1" stroke-opacity="0"></use></g></g><g><use xlink:href="#c154dVzbk8" opacity="1" fill="#000000" fill-opacity="0"></use><g><use xlink:href="#c154dVzbk8" opacity="1" fill-opacity="0" stroke="#000000" stroke-width="1" stroke-opacity="0"></use></g></g></g></g></svg>