<?xml version="1.0" encoding="UTF-8" standalone="no"?>
<!DOCTYPE svg PUBLIC "-//W3C//DTD SVG 1.1//EN" "http://www.w3.org/Graphics/SVG/1.1/DTD/svg11.dtd">
<svg version="1.1" xmlns="http://www.w3.org/2000/svg" xmlns:xlink="http://www.w3.org/1999/xlink" preserveAspectRatio="xMidYMid meet" viewBox="0 0 640 640" width="640" height="640"><defs><path d="M323.03 15.06L324.14 15.07L325.29 15.1L326.45 15.11L327.64 15.14L328.84 15.16L330.06 15.18L331.29 15.21L332.54 15.25L333.78 15.28L335.02 15.32L336.27 15.35L337.5 15.39L338.73 15.44L339.95 15.49L341.15 15.53L342.33 15.57L343.5 15.64L344.64 15.68L345.73 15.73L346.81 15.79L347.84 15.84L348.84 15.9L349.81 15.96L350.71 16.03L351.58 16.09L352.38 16.15L353.14 16.21L353.83 16.27L366.8 17.77L379.57 19.81L392.13 22.34L404.5 25.39L416.64 28.92L428.56 32.93L440.23 37.4L451.65 42.31L462.82 47.67L473.72 53.45L484.34 59.65L494.67 66.25L504.71 73.22L514.44 80.59L523.85 88.31L532.94 96.39L541.7 104.8L550.1 113.55L558.14 122.61L565.82 131.97L573.14 141.62L580.06 151.55L586.58 161.74L592.72 172.18L598.43 182.88L603.71 193.79L608.56 204.92L612.98 216.26L616.94 227.78L620.43 239.49L623.46 251.36L626 263.39L628.06 275.56L629.61 287.86L630.64 300.28L631.16 312.8L631.14 325.42L630.58 338.11L629.48 350.87L627.83 363.69L627.64 364.84L627.48 365.94L627.31 366.99L627.17 368L627.01 368.97L626.86 369.91L626.72 370.82L626.58 371.7L626.45 372.54L626.31 373.34L626.18 374.13L626.06 374.89L625.92 375.64L625.8 376.35L625.68 377.06L625.54 377.76L625.42 378.43L625.3 379.1L625.17 379.75L625.04 380.4L624.91 381.05L624.78 381.69L624.64 382.33L624.51 382.98L624.36 383.62L624.21 384.28L624.07 384.94L623.91 385.61L623.75 386.3L623.58 387L623.41 387.72L623.23 388.46L623.04 389.21L622.85 389.99L622.64 390.81L622.43 391.64L622.21 392.5L621.98 393.4L621.74 394.33L621.49 395.3L617.27 410.18L612.4 424.65L606.88 438.69L600.77 452.3L594.06 465.45L586.78 478.16L578.96 490.39L570.63 502.16L561.79 513.46L552.47 524.26L542.7 534.56L532.5 544.36L521.89 553.64L510.88 562.39L499.51 570.61L487.82 578.29L475.79 585.42L463.46 591.99L450.86 597.99L438 603.41L424.91 608.25L411.62 612.5L398.12 616.13L384.47 619.16L370.69 621.56L356.77 623.33L342.77 624.46L328.68 624.95L314.54 624.78L300.38 623.94L286.21 622.43L272.05 620.23L257.92 617.34L243.84 613.75L229.86 609.46L215.98 604.45L202.22 598.7L188.61 592.21L175.17 584.99L161.92 577.01L149.88 568.96L138.37 560.46L127.38 551.52L116.91 542.17L106.98 532.43L97.58 522.33L88.71 511.87L80.36 501.08L72.57 489.99L65.31 478.61L58.6 466.95L52.43 455.06L46.81 442.93L41.73 430.6L37.21 418.08L33.24 405.41L29.83 392.58L26.97 379.62L24.68 366.57L22.95 353.43L21.79 340.24L21.18 327L21.16 313.73L21.69 300.47L22.81 287.22L24.51 274.03L26.78 260.88L29.63 247.81L33.06 234.85L37.09 222.01L41.7 209.3L46.89 196.78L52.68 184.42L59.07 172.27L66.04 160.34L73.62 148.67L81.8 137.25L90.59 126.12L99.98 115.29L109.97 104.8L114.1 100.73L118.26 96.76L122.48 92.89L126.74 89.1L131.04 85.42L135.39 81.83L139.78 78.33L144.21 74.94L148.7 71.64L153.22 68.43L157.8 65.32L162.42 62.29L167.09 59.37L171.81 56.54L176.58 53.8L181.4 51.16L186.27 48.61L191.18 46.14L196.16 43.79L201.17 41.51L206.25 39.34L211.37 37.24L216.54 35.25L221.78 33.35L227.06 31.53L232.4 29.81L237.79 28.18L243.25 26.64L248.75 25.19L254.31 23.83L259.92 22.56L265.59 21.38L271.33 20.3L277.11 19.29L282.96 18.39L288.87 17.57L294.83 16.84L300.86 16.2L306.94 15.65L313.09 15.18L313.6 15.15L314.19 15.12L314.84 15.1L315.54 15.09L316.31 15.06L317.13 15.06L318.01 15.05L318.93 15.05L319.9 15.05L320.9 15.05L321.95 15.05L323.03 15.06ZM235.99 199.13L232.6 199.13L229.34 199.13L226.22 199.14L223.24 199.14L220.41 199.15L217.74 199.15L215.23 199.17L212.87 199.18L210.69 199.18L208.66 199.19L206.82 199.2L205.15 199.22L203.68 199.23L202.38 199.24L201.28 199.26L200.38 199.28L199.67 199.29L199.17 199.31L198.88 199.33L197.33 199.51L195.78 199.73L194.26 200.01L192.75 200.33L191.25 200.69L189.77 201.11L188.29 201.56L186.85 202.07L185.41 202.61L184.01 203.2L182.61 203.83L181.24 204.5L179.89 205.22L178.57 205.96L177.27 206.75L175.99 207.58L174.73 208.46L173.5 209.36L172.3 210.3L171.12 211.28L169.97 212.29L168.86 213.34L167.76 214.41L166.71 215.52L165.69 216.67L164.69 217.85L163.74 219.06L162.81 220.29L161.92 221.56L161.06 222.86L160.24 224.17L159.46 225.53L158.71 226.9L158.02 228.3L157.35 229.72L156.72 231.17L156.15 232.65L155.6 234.15L155.11 235.66L154.66 237.2L154.49 238.09L154.32 239.48L154.18 241.34L154.03 243.63L153.89 246.35L153.76 249.46L153.64 252.94L153.53 256.75L153.43 260.89L153.33 265.3L153.25 269.98L153.18 274.9L153.11 280.03L153.05 285.33L153 290.8L152.96 296.4L152.93 302.11L152.91 307.89L152.88 313.72L152.88 319.59L152.88 325.45L152.89 331.28L152.91 337.08L152.94 342.79L152.98 348.4L153.03 353.87L153.08 359.19L153.14 364.34L153.21 369.27L153.3 373.98L153.38 378.42L153.48 382.56L153.59 386.41L153.71 389.92L153.83 393.05L153.97 395.8L154.11 398.14L154.26 400.03L154.42 401.45L154.59 402.39L154.94 403.68L155.33 404.96L155.76 406.23L156.21 407.48L156.7 408.73L157.22 409.96L157.77 411.17L158.36 412.36L158.97 413.55L159.62 414.71L160.29 415.84L160.99 416.97L161.73 418.08L162.48 419.17L163.26 420.23L164.08 421.29L164.92 422.32L165.79 423.33L166.69 424.31L167.61 425.28L168.56 426.22L169.52 427.14L170.52 428.04L171.53 428.92L172.58 429.76L173.64 430.59L174.73 431.39L175.84 432.16L176.97 432.92L178.12 433.64L179.29 434.33L180.49 435L181.69 435.64L182.93 436.26L184.18 436.84L185.45 437.39L186.73 437.92L188.04 438.42L189.35 438.88L190.7 439.31L191.01 439.41L191.35 439.5L191.73 439.59L192.14 439.67L192.59 439.76L193.1 439.83L193.68 439.91L194.36 439.97L195.12 440.03L195.99 440.09L196.97 440.15L198.08 440.2L199.33 440.25L200.72 440.3L202.28 440.33L204.02 440.38L205.93 440.42L208.04 440.44L210.35 440.48L212.88 440.5L215.64 440.53L218.63 440.55L221.87 440.58L225.39 440.6L229.17 440.61L233.23 440.63L237.59 440.64L242.25 440.65L247.22 440.66L252.54 440.67L258.19 440.67L264.18 440.69L270.54 440.69L277.27 440.7L284.39 440.7L291.89 440.7L299.81 440.7L308.15 440.7L316.91 440.7L326.11 440.7L457.07 440.7L463.58 438.37L464.8 437.92L465.99 437.44L467.18 436.95L468.34 436.44L469.47 435.92L470.59 435.37L471.69 434.8L472.78 434.2L473.84 433.59L474.89 432.95L475.9 432.31L476.91 431.64L477.89 430.94L478.85 430.23L479.79 429.5L480.72 428.76L481.62 427.98L482.5 427.2L483.36 426.38L484.21 425.55L485.04 424.71L485.83 423.84L486.61 422.95L487.38 422.05L488.11 421.12L488.83 420.18L489.52 419.22L490.21 418.23L490.87 417.23L491.5 416.21L492.11 415.17L492.71 414.12L493.28 413.03L493.83 411.95L494.37 410.83L494.88 409.7L495.37 408.55L495.83 407.37L496.28 406.19L496.7 404.98L498.72 399.03L498.94 322.81L498.95 316.72L498.97 310.94L498.98 305.46L498.99 300.25L499 295.34L499.01 290.69L499.01 286.3L499.01 282.16L499.01 278.27L499 274.61L498.99 271.17L498.98 267.96L498.95 264.95L498.92 262.14L498.89 259.52L498.84 257.09L498.79 254.83L498.75 252.73L498.68 250.79L498.61 249L498.53 247.34L498.44 245.81L498.34 244.4L498.23 243.1L498.12 241.91L497.99 240.81L497.86 239.79L497.71 238.85L497.54 237.98L497.37 237.16L497.18 236.39L496.99 235.68L496.77 234.99L496.55 234.32L496.32 233.67L496.06 233.03L495.79 232.37L495.51 231.71L495.21 231.03L494.9 230.32L494.43 229.27L493.94 228.25L493.44 227.23L492.92 226.25L492.39 225.27L491.84 224.31L491.27 223.37L490.68 222.44L490.09 221.53L489.48 220.64L488.84 219.76L488.19 218.9L487.54 218.05L486.85 217.23L486.16 216.41L485.45 215.62L484.72 214.84L483.97 214.08L483.22 213.34L482.44 212.61L481.64 211.9L480.83 211.19L480.01 210.52L479.16 209.85L478.3 209.21L477.42 208.57L476.52 207.95L475.62 207.35L474.68 206.77L473.74 206.19L472.78 205.64L471.79 205.11L470.8 204.58L469.78 204.07L468.75 203.58L467.7 203.11L466.63 202.64L465.54 202.2L464.44 201.78L463.32 201.35L458.55 199.63L330.95 199.25L325.7 199.24L320.51 199.23L315.36 199.22L310.26 199.2L305.22 199.19L300.25 199.18L295.33 199.17L290.5 199.17L285.73 199.15L281.05 199.14L276.45 199.14L271.94 199.14L267.52 199.13L263.19 199.13L258.97 199.13L254.85 199.12L250.84 199.12L246.94 199.12L243.17 199.12L239.51 199.13L235.99 199.13ZM291.95 248.69L292.06 248.75L292.2 248.82L292.34 248.91L292.5 249.01L292.68 249.12L292.88 249.23L293.09 249.36L293.32 249.51L293.56 249.65L293.82 249.81L294.1 249.98L294.39 250.17L294.68 250.36L295 250.56L295.33 250.76L295.67 250.98L296.03 251.2L296.39 251.44L296.77 251.68L297.16 251.92L297.55 252.18L297.97 252.44L298.38 252.7L298.81 252.97L299.23 253.25L299.67 253.55L300.12 253.84L300.59 254.13L301.05 254.42L301.52 254.73L301.99 255.05L302.48 255.36L302.97 255.68L303.46 256L303.96 256.31L304.44 256.64L304.96 256.97L305.47 257.31L306.03 257.68L306.6 258.06L307.21 258.46L307.86 258.89L308.52 259.31L309.21 259.78L309.93 260.24L310.68 260.73L311.43 261.23L312.21 261.74L313.02 262.28L313.85 262.82L314.68 263.36L315.54 263.94L316.41 264.51L317.3 265.08L318.2 265.68L319.12 266.28L320.03 266.89L320.97 267.5L321.91 268.12L322.86 268.76L323.83 269.38L324.79 270.01L325.75 270.66L326.73 271.29L327.69 271.93L328.67 272.57L329.64 273.22L330.62 273.85L331.58 274.5L332.55 275.14L333.51 275.77L334.47 276.4L335.43 277.03L336.37 277.65L337.29 278.26L338.22 278.87L339.13 279.47L340.05 280.08L340.98 280.69L341.92 281.31L342.87 281.94L343.84 282.58L344.82 283.22L345.81 283.87L346.81 284.53L347.81 285.19L348.82 285.86L349.83 286.52L350.84 287.19L351.87 287.86L352.88 288.53L353.91 289.21L354.92 289.88L355.94 290.54L356.94 291.21L357.96 291.87L358.96 292.53L359.94 293.19L360.93 293.84L361.91 294.48L362.87 295.12L363.82 295.74L364.76 296.36L365.69 296.96L366.59 297.56L367.48 298.14L368.35 298.71L369.2 299.28L370.03 299.82L370.85 300.36L371.63 300.87L372.4 301.37L373.13 301.86L373.84 302.33L374.52 302.78L375.18 303.2L375.8 303.62L390.51 313.29L369.47 327.17L368.59 327.76L367.69 328.36L366.78 328.95L365.84 329.58L364.87 330.21L363.9 330.86L362.91 331.5L361.91 332.17L360.9 332.84L359.87 333.52L358.83 334.2L357.79 334.89L356.72 335.59L355.67 336.28L354.6 336.99L353.54 337.69L352.47 338.39L351.39 339.1L350.33 339.81L349.26 340.52L348.2 341.21L347.14 341.92L346.08 342.62L345.03 343.31L343.98 343.99L342.95 344.68L341.93 345.35L340.92 346.02L339.93 346.66L338.94 347.31L337.98 347.96L337.02 348.58L336.1 349.19L335.18 349.8L334.29 350.39L333.43 350.96L332.58 351.51L331.77 352.04L330.97 352.57L330.21 353.08L329.45 353.58L328.68 354.08L327.9 354.59L327.12 355.11L326.34 355.63L325.55 356.15L324.74 356.68L323.94 357.2L323.14 357.73L322.33 358.27L321.52 358.8L320.72 359.33L319.91 359.86L319.11 360.39L318.3 360.92L317.51 361.45L316.71 361.97L315.93 362.49L315.15 363L314.37 363.51L313.62 364.01L312.86 364.51L312.12 365.01L311.38 365.49L310.66 365.96L309.94 366.44L309.26 366.89L308.58 367.34L307.91 367.78L307.26 368.21L306.64 368.62L306.03 369.02L305.44 369.41L304.87 369.79L304.32 370.15L303.8 370.5L303.28 370.83L302.81 371.15L302.36 371.45L301.93 371.73L301.52 372L301.11 372.27L300.7 372.54L300.3 372.79L299.91 373.05L299.5 373.31L299.12 373.56L298.73 373.81L298.36 374.05L297.99 374.28L297.62 374.51L297.26 374.73L296.9 374.95L296.56 375.17L296.23 375.38L295.9 375.57L295.58 375.78L295.27 375.96L294.97 376.15L294.67 376.32L294.39 376.49L294.11 376.65L293.86 376.81L293.6 376.95L293.36 377.09L293.14 377.22L292.92 377.34L292.71 377.45L292.51 377.55L292.34 377.65L292.17 377.73L292.01 377.81L291.88 377.88L291.76 377.93L291.65 377.98L291.55 378.01L291.46 378.04L291.4 378.05L291.35 378.06L291.33 378.05L291.24 377.77L291.17 377.03L291.11 375.85L291.05 374.27L290.99 372.29L290.94 369.96L290.89 367.29L290.84 364.32L290.81 361.05L290.78 357.51L290.76 353.73L290.73 349.74L290.72 345.55L290.7 341.2L290.7 336.71L290.7 332.1L290.7 327.39L290.7 322.61L290.71 317.78L290.72 312.94L290.73 308.08L290.76 303.26L290.78 298.49L290.82 293.8L290.84 289.2L290.88 284.74L290.93 280.41L290.96 276.25L291.01 272.29L291.07 268.55L291.12 265.06L291.18 261.83L291.24 258.9L291.31 256.28L291.37 254L291.44 252.09L291.51 250.57L291.59 249.46L291.67 248.79L291.74 248.58L291.79 248.61L291.87 248.64L291.95 248.69Z" id="b5e4Kjzhq"></path></defs><g><g><g><use xlink:href="#b5e4Kjzhq" opacity="1" fill="#fbfbfb" fill-opacity="1"></use><g><use xlink:href="#b5e4Kjzhq" opacity="1" fill-opacity="0" stroke="#000000" stroke-width="1" stroke-opacity="0"></use></g></g></g></g></svg>