<?xml version="1.0" encoding="UTF-8" standalone="no"?>
<!DOCTYPE svg PUBLIC "-//W3C//DTD SVG 1.1//EN" "http://www.w3.org/Graphics/SVG/1.1/DTD/svg11.dtd">
<svg version="1.1" xmlns="http://www.w3.org/2000/svg" xmlns:xlink="http://www.w3.org/1999/xlink" preserveAspectRatio="xMidYMid meet" viewBox="0 0 640 640" width="640" height="640"><defs><path d="M316.55 52.93L317.44 52.94L318.35 52.95L319.29 52.97L320.24 52.98L321.22 53L322.2 53.02L323.2 53.04L324.21 53.06L325.23 53.09L326.25 53.12L327.27 53.15L328.29 53.18L329.3 53.21L330.31 53.25L331.31 53.29L332.29 53.32L333.26 53.36L334.22 53.41L335.15 53.45L336.05 53.49L336.93 53.54L337.78 53.58L338.6 53.63L339.39 53.68L340.13 53.73L340.84 53.78L341.5 53.83L342.12 53.88L342.69 53.93L353.32 55.16L363.79 56.83L374.09 58.91L384.23 61.41L394.18 64.3L403.95 67.59L413.52 71.25L422.88 75.28L432.04 79.67L440.97 84.41L449.68 89.49L458.15 94.9L466.38 100.62L474.36 106.66L482.07 112.99L489.52 119.61L496.7 126.51L503.59 133.68L510.18 141.11L516.48 148.78L522.48 156.69L528.15 164.83L533.5 173.19L538.53 181.75L543.21 190.52L547.54 199.46L551.52 208.59L555.14 217.88L558.39 227.33L561.25 236.93L563.73 246.66L565.81 256.52L567.5 266.5L568.77 276.58L569.62 286.76L570.04 297.03L570.03 307.37L569.57 317.78L568.67 328.24L567.31 338.75L567.16 339.69L567.03 340.59L566.89 341.45L566.77 342.28L566.64 343.08L566.52 343.85L566.4 344.59L566.29 345.31L566.18 346L566.07 346.66L565.96 347.31L565.86 347.93L565.75 348.54L565.65 349.13L565.55 349.71L565.44 350.28L565.34 350.83L565.24 351.38L565.13 351.91L565.03 352.45L564.92 352.98L564.81 353.5L564.7 354.03L564.59 354.56L564.47 355.09L564.35 355.63L564.23 356.17L564.1 356.72L563.97 357.28L563.83 357.86L563.69 358.45L563.54 359.05L563.39 359.67L563.23 360.31L563.06 360.98L562.89 361.66L562.71 362.37L562.52 363.1L562.32 363.87L562.12 364.66L558.66 376.86L554.66 388.72L550.14 400.23L545.13 411.39L539.63 422.17L533.66 432.59L527.25 442.62L520.42 452.27L513.17 461.53L505.53 470.38L497.52 478.83L489.16 486.86L480.46 494.47L471.44 501.64L462.12 508.38L452.53 514.68L442.67 520.52L432.56 525.91L422.23 530.83L411.69 535.27L400.96 539.24L390.06 542.72L379 545.7L367.81 548.18L356.51 550.15L345.1 551.6L333.62 552.53L322.07 552.93L310.48 552.79L298.87 552.1L287.25 550.86L275.64 549.06L264.06 546.69L252.52 543.75L241.06 540.23L229.68 536.12L218.4 531.41L207.24 526.09L196.22 520.17L185.36 513.63L175.49 507.03L166.05 500.06L157.04 492.73L148.46 485.07L140.32 477.08L132.61 468.8L125.34 460.23L118.5 451.38L112.11 442.29L106.16 432.96L100.66 423.4L95.6 413.65L90.99 403.71L86.83 393.6L83.12 383.34L79.87 372.95L77.07 362.43L74.73 351.81L72.85 341.11L71.43 330.34L70.48 319.52L69.98 308.67L69.96 297.79L70.4 286.92L71.32 276.06L72.71 265.24L74.57 254.46L76.91 243.75L79.72 233.12L83.02 222.6L86.8 212.18L91.06 201.91L95.8 191.78L101.04 181.82L106.76 172.04L112.97 162.47L119.68 153.11L126.88 143.99L134.58 135.11L142.77 126.51L146.16 123.17L149.57 119.92L153.03 116.74L156.52 113.64L160.04 110.62L163.61 107.68L167.21 104.81L170.84 102.03L174.52 99.32L178.23 96.69L181.98 94.14L185.77 91.66L189.6 89.26L193.47 86.94L197.38 84.7L201.33 82.53L205.32 80.44L209.35 78.42L213.43 76.49L217.54 74.62L221.7 72.84L225.9 71.12L230.14 69.49L234.43 67.93L238.76 66.44L243.14 65.03L247.56 63.69L252.03 62.43L256.54 61.24L261.1 60.13L265.7 59.09L270.35 58.12L275.05 57.23L279.79 56.41L284.59 55.67L289.43 55L294.32 54.4L299.26 53.87L304.25 53.42L309.29 53.04L309.71 53.01L310.19 52.99L310.72 52.97L311.3 52.96L311.93 52.94L312.6 52.94L313.32 52.93L314.08 52.93L314.87 52.93L315.69 52.93L316.55 52.93ZM248.97 203.84L246.08 203.84L243.3 203.84L240.63 203.84L238.07 203.85L235.63 203.85L233.31 203.86L231.12 203.86L229.06 203.87L227.13 203.88L225.34 203.88L223.68 203.89L222.17 203.9L220.8 203.91L219.59 203.92L218.53 203.93L217.63 203.95L216.89 203.96L216.31 203.97L215.9 203.99L215.66 204L214.39 204.15L213.12 204.33L211.87 204.56L210.63 204.82L209.4 205.12L208.19 205.46L206.98 205.83L205.8 206.25L204.62 206.69L203.47 207.18L202.32 207.69L201.2 208.24L200.09 208.83L199.01 209.44L197.94 210.09L196.89 210.77L195.86 211.49L194.85 212.23L193.87 213L192.9 213.8L191.96 214.63L191.05 215.49L190.15 216.37L189.29 217.28L188.45 218.22L187.63 219.19L186.85 220.18L186.09 221.19L185.36 222.23L184.65 223.29L183.98 224.37L183.34 225.48L182.73 226.61L182.16 227.75L181.61 228.92L181.1 230.11L180.63 231.32L180.18 232.55L179.78 233.79L179.41 235.05L179.27 235.78L179.13 236.92L179.01 238.44L178.89 240.32L178.78 242.55L178.67 245.1L178.57 247.95L178.48 251.08L178.4 254.47L178.32 258.09L178.25 261.92L178.19 265.96L178.14 270.16L178.09 274.51L178.05 278.99L178.01 283.58L177.99 288.26L177.97 293L177.95 297.78L177.95 302.59L177.95 307.4L177.96 312.18L177.97 316.93L178 321.61L178.03 326.21L178.07 330.7L178.11 335.06L178.16 339.28L178.22 343.32L178.29 347.18L178.36 350.82L178.44 354.22L178.53 357.37L178.63 360.25L178.73 362.82L178.84 365.07L178.96 366.99L179.08 368.54L179.21 369.7L179.35 370.47L179.64 371.53L179.96 372.58L180.31 373.62L180.68 374.65L181.08 375.67L181.51 376.68L181.96 377.67L182.44 378.65L182.94 379.62L183.47 380.57L184.02 381.5L184.6 382.43L185.2 383.34L185.82 384.23L186.46 385.1L187.13 385.97L187.82 386.81L188.53 387.64L189.27 388.44L190.02 389.24L190.8 390.01L191.59 390.76L192.41 391.5L193.24 392.22L194.1 392.91L194.97 393.59L195.86 394.25L196.77 394.88L197.7 395.5L198.64 396.09L199.6 396.66L200.58 397.21L201.57 397.73L202.58 398.24L203.61 398.72L204.65 399.17L205.7 399.6L206.77 400.01L207.85 400.39L208.95 400.74L209.21 400.82L209.49 400.9L209.8 400.97L210.13 401.04L210.5 401.11L210.92 401.17L211.4 401.23L211.95 401.28L212.58 401.33L213.29 401.38L214.09 401.43L215 401.47L216.03 401.51L217.17 401.55L218.45 401.58L219.87 401.62L221.44 401.65L223.17 401.67L225.06 401.7L227.14 401.72L229.4 401.74L231.85 401.76L234.51 401.78L237.39 401.8L240.49 401.81L243.82 401.82L247.39 401.83L251.21 401.84L255.29 401.85L259.65 401.86L264.28 401.86L269.19 401.87L274.41 401.87L279.92 401.88L285.76 401.88L291.91 401.88L298.4 401.88L305.24 401.88L312.42 401.88L319.96 401.88L427.32 401.88L432.66 399.97L433.66 399.6L434.64 399.21L435.61 398.81L436.56 398.39L437.49 397.96L438.41 397.51L439.31 397.04L440.2 396.55L441.07 396.05L441.93 395.53L442.76 395L443.59 394.45L444.39 393.88L445.18 393.3L445.95 392.7L446.71 392.09L447.45 391.45L448.17 390.81L448.88 390.14L449.57 389.46L450.25 388.77L450.9 388.06L451.54 387.33L452.17 386.59L452.77 385.83L453.36 385.06L453.93 384.27L454.49 383.46L455.03 382.64L455.55 381.8L456.05 380.95L456.54 380.09L457.01 379.2L457.46 378.31L457.9 377.39L458.32 376.47L458.72 375.52L459.1 374.56L459.47 373.59L459.81 372.6L461.47 367.72L461.65 305.23L461.66 300.24L461.67 295.5L461.68 291.01L461.69 286.74L461.7 282.71L461.71 278.9L461.71 275.3L461.71 271.91L461.71 268.72L461.7 265.72L461.69 262.9L461.68 260.27L461.66 257.8L461.63 255.5L461.61 253.35L461.57 251.36L461.53 249.5L461.49 247.78L461.44 246.19L461.38 244.72L461.31 243.36L461.24 242.11L461.16 240.95L461.07 239.89L460.98 238.91L460.87 238.01L460.76 237.17L460.64 236.4L460.5 235.69L460.36 235.02L460.21 234.39L460.05 233.8L459.87 233.24L459.69 232.69L459.5 232.16L459.29 231.63L459.07 231.09L458.84 230.55L458.59 229.99L458.34 229.41L457.95 228.55L457.55 227.71L457.14 226.88L456.71 226.07L456.28 225.27L455.83 224.48L455.36 223.71L454.88 222.95L454.39 222.2L453.89 221.47L453.37 220.75L452.84 220.05L452.3 219.35L451.74 218.68L451.17 218.01L450.59 217.36L449.99 216.72L449.38 216.1L448.76 215.49L448.12 214.89L447.47 214.31L446.8 213.73L446.13 213.18L445.43 212.63L444.73 212.1L444.01 211.58L443.27 211.07L442.53 210.58L441.76 210.1L440.99 209.63L440.2 209.18L439.39 208.74L438.58 208.31L437.74 207.89L436.9 207.49L436.04 207.1L435.16 206.72L434.27 206.36L433.37 206.01L432.45 205.66L428.54 204.25L323.93 203.94L319.63 203.93L315.37 203.92L311.15 203.91L306.97 203.9L302.84 203.89L298.76 203.88L294.73 203.87L290.77 203.87L286.86 203.86L283.02 203.85L279.25 203.85L275.55 203.85L271.93 203.84L268.38 203.84L264.92 203.84L261.54 203.83L258.26 203.83L255.06 203.83L251.97 203.83L248.97 203.84ZM291.89 244.43L291.96 244.47L292.05 244.52L292.16 244.58L292.28 244.65L292.41 244.73L292.56 244.82L292.72 244.91L292.89 245.02L293.08 245.14L293.28 245.26L293.49 245.39L293.72 245.53L293.96 245.68L294.2 245.84L294.46 246L294.73 246.17L295.01 246.35L295.3 246.53L295.6 246.72L295.91 246.92L296.23 247.12L296.55 247.33L296.89 247.54L297.23 247.76L297.58 247.98L297.93 248.21L298.29 248.45L298.66 248.69L299.04 248.93L299.42 249.17L299.8 249.42L300.19 249.68L300.59 249.94L300.99 250.2L301.39 250.46L301.8 250.72L302.2 250.99L302.62 251.26L303.04 251.54L303.5 251.84L303.97 252.15L304.47 252.48L305 252.83L305.54 253.18L306.11 253.56L306.7 253.94L307.31 254.34L307.93 254.75L308.57 255.17L309.23 255.61L309.91 256.05L310.59 256.5L311.3 256.97L312.01 257.44L312.74 257.91L313.48 258.4L314.23 258.89L314.98 259.39L315.75 259.89L316.52 260.4L317.3 260.92L318.09 261.43L318.88 261.95L319.67 262.48L320.47 263L321.26 263.52L322.06 264.05L322.86 264.58L323.66 265.1L324.45 265.63L325.24 266.15L326.03 266.67L326.82 267.19L327.6 267.7L328.37 268.21L329.13 268.71L329.89 269.21L330.64 269.7L331.39 270.2L332.15 270.7L332.92 271.21L333.7 271.73L334.5 272.25L335.3 272.78L336.11 273.31L336.93 273.85L337.75 274.39L338.58 274.94L339.41 275.48L340.24 276.03L341.08 276.58L341.91 277.13L342.75 277.69L343.58 278.24L344.42 278.78L345.24 279.33L346.07 279.87L346.89 280.41L347.7 280.95L348.51 281.48L349.31 282.01L350.1 282.53L350.88 283.04L351.65 283.55L352.41 284.04L353.15 284.53L353.88 285.01L354.59 285.48L355.29 285.94L355.97 286.39L356.64 286.83L357.28 287.25L357.91 287.66L358.51 288.06L359.09 288.44L359.65 288.81L360.19 289.16L360.7 289.5L372.76 297.43L355.51 308.81L354.79 309.29L354.05 309.78L353.3 310.27L352.53 310.78L351.74 311.3L350.94 311.83L350.13 312.36L349.31 312.91L348.48 313.46L347.64 314.01L346.79 314.57L345.93 315.14L345.06 315.71L344.2 316.28L343.32 316.86L342.45 317.43L341.57 318.01L340.69 318.59L339.82 319.17L338.94 319.75L338.07 320.32L337.2 320.9L336.33 321.47L335.47 322.04L334.61 322.6L333.77 323.16L332.93 323.71L332.1 324.26L331.29 324.79L330.48 325.32L329.69 325.85L328.91 326.36L328.15 326.86L327.4 327.36L326.67 327.84L325.96 328.31L325.27 328.76L324.6 329.2L323.95 329.63L323.32 330.05L322.7 330.46L322.07 330.87L321.43 331.29L320.79 331.71L320.15 332.14L319.5 332.57L318.84 333L318.18 333.43L317.53 333.86L316.86 334.3L316.2 334.74L315.54 335.17L314.88 335.61L314.22 336.04L313.56 336.48L312.91 336.91L312.26 337.34L311.62 337.76L310.98 338.18L310.34 338.6L309.72 339.01L309.1 339.42L308.49 339.83L307.89 340.22L307.3 340.61L306.71 341L306.15 341.37L305.59 341.74L305.04 342.1L304.51 342.45L304 342.79L303.5 343.12L303.02 343.44L302.55 343.75L302.1 344.04L301.67 344.33L301.25 344.6L300.86 344.86L300.49 345.11L300.14 345.34L299.8 345.56L299.47 345.78L299.13 346L298.8 346.21L298.48 346.42L298.15 346.63L297.84 346.84L297.52 347.04L297.21 347.24L296.91 347.43L296.61 347.62L296.31 347.8L296.02 347.98L295.74 348.16L295.47 348.33L295.2 348.49L294.93 348.66L294.68 348.81L294.43 348.96L294.19 349.1L293.96 349.24L293.73 349.37L293.52 349.5L293.31 349.62L293.11 349.73L292.93 349.84L292.75 349.94L292.58 350.03L292.42 350.11L292.28 350.19L292.14 350.26L292.01 350.32L291.9 350.38L291.8 350.42L291.71 350.46L291.63 350.49L291.56 350.51L291.51 350.52L291.47 350.53L291.45 350.52L291.38 350.29L291.32 349.68L291.27 348.72L291.22 347.42L291.17 345.8L291.13 343.89L291.09 341.7L291.05 339.26L291.02 336.58L291 333.68L290.98 330.58L290.96 327.31L290.95 323.88L290.93 320.31L290.93 316.63L290.93 312.85L290.93 308.99L290.93 305.07L290.94 301.11L290.95 297.14L290.96 293.16L290.98 289.21L291 285.3L291.03 281.45L291.05 277.68L291.08 274.02L291.12 270.47L291.15 267.06L291.19 263.82L291.24 260.75L291.28 257.89L291.33 255.24L291.38 252.84L291.43 250.69L291.48 248.82L291.54 247.26L291.6 246.01L291.66 245.1L291.73 244.55L291.79 244.38L291.83 244.4L291.89 244.43Z" id="bYR54mT3c"></path></defs><g><g><g><use xlink:href="#bYR54mT3c" opacity="1" fill="#fbfbfb" fill-opacity="1"></use><g><use xlink:href="#bYR54mT3c" opacity="1" fill-opacity="0" stroke="#000000" stroke-width="1" stroke-opacity="0"></use></g></g></g></g></svg>