<?xml version="1.0" encoding="UTF-8" standalone="no"?>
<!DOCTYPE svg PUBLIC "-//W3C//DTD SVG 1.1//EN" "http://www.w3.org/Graphics/SVG/1.1/DTD/svg11.dtd">
<svg version="1.1" xmlns="http://www.w3.org/2000/svg" xmlns:xlink="http://www.w3.org/1999/xlink" preserveAspectRatio="xMidYMid meet" viewBox="0 0 640 640" width="640" height="640"><defs><path d="M620 320C620 485.07 485.57 619.08 320 619.08C154.43 619.08 20 485.07 20 320C20 154.93 154.43 20.92 320 20.92C485.57 20.92 620 154.93 620 320Z" id="agiXm9OMF"></path><path d="M339.14 35.22L344.84 35.6L350.51 36.08L356.17 36.69L361.76 37.4L367.32 38.22L372.82 39.17L378.27 40.22L383.64 41.4L388.97 42.68L400.3 45.89L411.37 49.54L422.25 53.59L432.88 58.05L443.27 62.9L453.4 68.13L463.28 73.72L472.89 79.69L482.24 85.97L491.29 92.61L500.06 99.54L508.54 106.81L516.72 114.36L524.58 122.2L532.15 130.31L539.38 138.69L546.28 147.32L552.84 156.16L559.06 165.25L564.94 174.57L570.44 184.09L575.59 193.79L580.35 203.66L584.76 213.72L588.75 223.92L592.36 234.28L595.57 244.78L598.38 255.37L600.76 266.1L602.73 276.92L604.26 287.83L605.35 298.82L606 309.86L606.19 320.98L605.93 332.11L605.2 343.28L604.01 354.47L602.32 365.66L600.17 376.85L597.49 388.03L595.18 396.52L592.62 404.92L589.83 413.2L586.8 421.36L583.55 429.39L580.07 437.31L576.39 445.08L572.49 452.74L568.36 460.23L564.05 467.61L559.53 474.82L554.81 481.88L549.88 488.8L544.79 495.56L539.51 502.16L534.04 508.6L528.41 514.86L522.59 520.96L516.63 526.87L510.49 532.61L504.19 538.17L497.74 543.52L491.14 548.71L484.39 553.69L477.51 558.47L470.49 563.04L463.33 567.41L456.06 571.58L448.65 575.53L441.14 579.25L433.5 582.77L425.74 586.04L417.88 589.09L409.92 591.91L401.88 594.5L393.73 596.84L385.5 598.94L377.17 600.78L368.77 602.38L360.29 603.72L337.58 606.71L339.38 499.75L341.16 393.4L359.7 370.09L361.61 367.8L363.53 365.57L365.42 363.43L367.32 361.33L369.21 359.33L371.09 357.37L372.99 355.48L374.87 353.66L376.76 351.91L378.68 350.2L380.59 348.56L382.51 346.98L384.44 345.48L386.41 344.01L388.38 342.61L390.37 341.26L392.4 339.97L394.44 338.73L396.5 337.56L398.6 336.42L400.74 335.33L402.9 334.3L405.11 333.3L407.36 332.37L409.65 331.48L411.97 330.62L414.35 329.82L416.78 329.06L419.26 328.34L421.78 327.67L424.37 327.04L427.01 326.42L429.72 325.86L432.47 325.34L435.32 324.84L438.2 324.4L441.17 323.97L444.2 323.58L447.33 323.23L450.5 322.89L452.88 322.63L455.15 322.39L457.31 322.17L459.39 321.94L461.36 321.76L463.26 321.57L465.04 321.42L466.75 321.27L468.37 321.16L469.91 321.05L471.36 320.98L472.74 320.92L474.04 320.86L475.27 320.85L476.42 320.85L477.5 320.86L478.5 320.92L479.45 320.98L480.32 321.07L481.14 321.18L481.88 321.31L482.59 321.48L483.22 321.66L483.82 321.87L484.34 322.09L484.82 322.35L485.27 322.65L485.66 322.95L485.99 323.28L486.31 323.65L486.57 324.04L486.81 324.47L487 324.92L487.16 325.38L487.29 325.9L487.39 326.42L487.46 327L487.52 327.59L487.55 328.21L487.55 328.88L487.48 331.27L487.27 333.73L486.92 336.24L486.42 338.78L485.81 341.39L485.06 344.01L484.19 346.68L483.2 349.36L482.09 352.08L480.86 354.81L479.52 357.56L478.09 360.33L476.55 363.08L474.89 365.85L473.16 368.62L471.32 371.39L469.39 374.14L467.38 376.87L465.3 379.59L463.13 382.26L460.9 384.94L458.57 387.56L456.19 390.16L453.74 392.71L451.23 395.22L448.66 397.67L446.04 400.07L443.39 402.43L440.65 404.7L437.9 406.93L435.09 409.07L432.27 411.15L429.39 413.14L426.49 415.04L423.57 416.86L420.61 418.59L417.66 420.2L414.68 421.73L411.69 423.16L408.68 424.46L406.75 425.32L404.89 426.15L403.12 426.97L401.41 427.77L399.78 428.57L398.21 429.35L396.73 430.13L395.31 430.91L393.98 431.67L392.71 432.42L391.5 433.16L390.39 433.9L389.33 434.65L388.34 435.37L387.43 436.1L386.58 436.82L385.81 437.55L385.11 438.27L384.46 438.98L383.88 439.7L383.38 440.43L382.95 441.14L382.58 441.86L382.26 442.59L382.04 443.31L381.86 444.04L381.74 444.76L381.71 445.5L381.73 446.25L381.8 446.99L381.95 447.73L382.15 448.5L382.41 449.28L382.75 450.06L383.14 450.84L383.58 451.64L384.09 452.44L384.66 453.26L385.29 454.09L385.98 454.95L386.39 455.41L386.78 455.88L387.19 456.3L387.6 456.71L388.03 457.1L388.44 457.46L388.86 457.79L389.29 458.11L389.74 458.39L390.18 458.65L390.65 458.89L391.11 459.11L391.6 459.32L392.1 459.48L392.6 459.63L393.12 459.74L393.66 459.86L394.22 459.93L394.79 459.99L395.39 460.02L396 460.02L396.65 460.02L397.3 459.99L397.99 459.93L398.7 459.86L399.42 459.76L400.18 459.63L400.96 459.48L401.78 459.33L402.62 459.15L403.49 458.93L404.39 458.7L405.33 458.46L406.3 458.18L407.3 457.9L408.34 457.59L409.42 457.25L410.52 456.9L411.67 456.53L412.86 456.14L417.36 454.5L421.8 452.72L426.17 450.82L430.47 448.79L434.69 446.64L438.85 444.35L442.92 441.95L446.92 439.44L450.84 436.82L454.67 434.09L458.41 431.25L462.07 428.31L465.64 425.28L469.09 422.16L472.48 418.94L475.75 415.63L478.91 412.25L481.98 408.77L484.93 405.24L487.78 401.62L490.51 397.93L493.13 394.18L495.62 390.37L498 386.48L500.25 382.56L502.39 378.58L504.38 374.55L506.25 370.48L507.98 366.35L509.58 362.21L511.03 358.01L512.35 353.79L513.52 349.55L514.54 345.27L515.42 340.98L516.12 336.67L516.7 332.33L517.11 328L517.35 323.65L517.43 319.3L517.43 290.64L485.17 290.64L481.25 290.66L477.37 290.71L473.54 290.81L469.74 290.95L465.99 291.14L462.29 291.34L458.63 291.61L455.02 291.9L451.45 292.24L447.94 292.61L444.48 293.02L441.06 293.46L437.68 293.97L434.35 294.49L431.08 295.04L427.86 295.64L424.68 296.27L421.56 296.94L418.49 297.65L415.48 298.39L412.53 299.17L409.61 299.99L406.75 300.84L403.94 301.74L401.19 302.65L398.49 303.61L395.87 304.6L393.29 305.62L390.76 306.68L388.29 307.78L385.87 308.89L383.53 310.06L381.22 311.25L378.99 312.48L376.82 313.73L374.7 315.03L372.65 316.35L370.66 317.7L368.73 319.08L366.85 320.51L365.96 321.25L365.07 322.02L364.2 322.74L363.3 323.49L362.43 324.19L361.56 324.9L360.68 325.59L359.83 326.27L358.99 326.94L358.15 327.59L357.32 328.23L356.52 328.86L355.7 329.47L354.92 330.07L354.14 330.64L353.38 331.2L352.63 331.76L351.91 332.28L351.2 332.78L350.51 333.28L349.83 333.75L349.18 334.21L348.54 334.64L347.93 335.05L347.34 335.44L346.78 335.81L346.24 336.16L345.72 336.48L345.23 336.78L344.77 337.06L344.32 337.32L343.91 337.54L343.54 337.74L343.19 337.93L342.87 338.08L342.58 338.21L342.33 338.3L342.11 338.38L341.93 338.41L341.76 338.43L341.63 338.41L341.5 338.36L341.37 338.28L341.24 338.17L341.09 338.02L340.96 337.85L340.83 337.65L340.7 337.41L340.57 337.15L340.46 336.87L340.33 336.55L340.2 336.2L340.09 335.83L339.96 335.44L339.84 335.03L339.73 334.58L339.62 334.12L339.51 333.64L339.4 333.13L339.3 332.61L339.21 332.05L339.1 331.5L339.01 330.9L338.93 330.31L338.84 329.68L338.77 329.04L338.69 328.39L338.62 327.72L338.54 327.04L338.49 326.33L338.43 325.62L338.38 324.9L338.34 324.15L338.3 323.41L338.26 322.65L338.23 321.89L338.21 321.11L338.19 320.31L338.19 319.53L338.19 318.71L338.13 316.48L337.98 314.17L337.74 311.81L337.41 309.39L336.98 306.9L336.46 304.38L335.87 301.81L335.18 299.19L334.42 296.53L333.58 293.85L332.65 291.14L331.66 288.41L330.61 285.66L329.47 282.91L328.28 280.14L327.04 277.37L325.72 274.6L324.36 271.84L322.93 269.09L321.46 266.36L319.93 263.65L318.35 260.97L316.74 258.31L315.08 255.69L313.39 253.11L311.64 250.58L309.88 248.09L308.09 245.67L306.25 243.29L304.41 240.99L302.54 238.76L300.64 236.6L298.71 234.52L296.79 232.51L294.84 230.6L292.89 228.77L290.92 227.06L288.95 225.43L286.98 223.92L285.01 222.53L282.74 220.93L280.47 219.41L278.24 217.94L276.01 216.52L273.8 215.17L271.58 213.85L269.37 212.6L267.16 211.39L264.93 210.26L262.72 209.14L260.47 208.1L258.22 207.1L255.95 206.13L253.66 205.24L251.36 204.37L249.02 203.55L246.64 202.79L244.24 202.04L241.79 201.36L239.3 200.7L236.77 200.11L234.18 199.53L231.54 199.01L228.87 198.51L226.12 198.06L223.31 197.64L220.45 197.25L217.51 196.91L214.5 196.6L211.39 196.3L208.23 196.06L205 195.83L201.65 195.63L198.23 195.46L194.72 195.33L191.11 195.22L187.41 195.15L183.6 195.07L179.68 195.05L175.67 195.03L172.3 195.03L169.1 195.03L166.05 195.03L163.17 195.05L160.46 195.07L157.88 195.09L155.44 195.11L153.15 195.16L151 195.22L148.97 195.28L147.08 195.35L145.31 195.46L143.65 195.57L142.13 195.7L140.7 195.85L139.38 196.02L138.17 196.22L137.06 196.45L136.03 196.71L135.1 196.97L134.27 197.28L133.5 197.62L132.82 197.99L132.22 198.38L131.68 198.83L131.2 199.29L130.79 199.81L130.44 200.37L130.12 200.95L129.88 201.6L129.66 202.27L129.49 202.99L129.36 203.75L129.25 204.57L129.17 205.44L129.12 206.36L129.08 207.32L129.06 208.34L129.06 209.44L129.06 210.58L129.12 214.65L129.32 218.74L129.66 222.84L130.12 226.93L130.7 231.02L131.4 235.11L132.22 239.2L133.17 243.25L134.25 247.31L135.42 251.34L136.7 255.36L138.12 259.33L139.62 263.29L141.24 267.22L142.95 271.1L144.77 274.95L146.7 278.76L148.71 282.52L150.83 286.23L153.04 289.88L155.33 293.48L157.71 297.03L160.18 300.51L162.75 303.91L165.39 307.26L168.1 310.53L170.89 313.73L173.77 316.85L176.71 319.88L179.72 322.82L182.8 325.68L185.96 328.45L189.18 331.11L192.45 333.67L195.8 336.14L199.18 338.51L202.64 340.74L206.15 342.87L209.7 344.9L213.31 346.8L215.76 347.99L218.2 349.12L220.61 350.22L223.03 351.28L225.39 352.28L227.75 353.23L230.08 354.14L232.38 355.01L234.65 355.83L236.9 356.59L239.11 357.32L241.28 357.99L243.42 358.62L245.52 359.2L247.6 359.72L249.63 360.18L251.6 360.61L253.55 360.98L255.45 361.31L257.29 361.57L259.09 361.8L260.86 361.96L262.55 362.09L264.2 362.15L265.78 362.17L267.33 362.11L268.81 362.02L270.23 361.87L271.58 361.67L272.89 361.41L274.11 361.11L275.27 360.74L276.36 360.31L277.4 359.83L278.35 359.29L279.24 358.69L280.04 358.04L280.79 357.34L281.44 356.57L282.01 355.76L282.38 355.09L282.68 354.4L282.92 353.73L283.07 353.04L283.17 352.34L283.2 351.65L283.15 350.94L283.05 350.25L282.87 349.55L282.63 348.82L282.31 348.12L281.94 347.41L281.49 346.68L280.99 345.96L280.41 345.23L279.76 344.51L279.08 343.77L278.3 343.04L277.46 342.3L276.57 341.57L275.6 340.83L274.58 340.09L273.5 339.34L272.35 338.6L271.12 337.84L269.86 337.09L268.52 336.35L267.1 335.59L265.64 334.84L264.13 334.08L262.53 333.32L260.9 332.56L259.19 331.81L257.42 331.05L255.6 330.29L253.7 329.53L251.77 328.76L249.76 328L247.7 327.24L245.58 326.48L242.38 325.38L239.26 324.25L236.19 323.06L233.2 321.81L230.26 320.53L227.4 319.21L224.61 317.82L221.86 316.4L219.2 314.92L216.58 313.39L214.03 311.81L211.54 310.19L209.13 308.5L206.76 306.77L204.46 304.99L202.21 303.15L200.02 301.27L197.9 299.32L195.83 297.31L193.81 295.27L191.86 293.15L189.96 290.99L188.12 288.76L186.34 286.47L184.61 284.13L182.93 281.73L181.3 279.28L179.74 276.75L178.21 274.17L176.76 271.53L175.35 268.83L173.99 266.06L172.67 263.24L171.43 260.34L170.22 257.38L169.05 254.37L167.95 251.29L166.89 248.14L165.87 244.93L164.9 241.64L159.53 223.72L200.76 226.1L203.36 226.25L205.85 226.38L208.27 226.52L210.59 226.69L212.84 226.86L215 227.03L217.1 227.21L219.11 227.42L221.06 227.62L222.94 227.84L224.74 228.09L226.51 228.35L228.2 228.63L229.85 228.9L231.43 229.22L232.99 229.55L234.48 229.91L235.95 230.28L237.38 230.69L238.77 231.12L240.13 231.56L241.47 232.03L242.79 232.55L244.07 233.07L245.36 233.64L246.62 234.24L247.87 234.85L249.11 235.52L250.36 236.21L251.6 236.93L252.83 237.72L254.09 238.51L255.34 239.35L256.62 240.24L257.9 241.15L259.2 242.12L260.54 243.12L261.88 244.18L263.28 245.28L264.69 246.41L267.79 248.92L270.75 251.34L273.56 253.7L276.21 256.01L278.74 258.27L281.14 260.52L283.39 262.79L285.51 265.08L287.52 267.4L289.41 269.78L291.16 272.24L292.81 274.8L294.36 277.46L295.81 280.25L297.13 283.18L298.37 286.29L299.51 289.58L300.57 293.07L301.53 296.77L302.41 300.71L303.2 304.91L303.93 309.38L304.58 314.14L305.18 319.21L305.7 324.6L306.16 330.33L306.55 336.44L306.9 342.91L307.2 349.79L307.46 357.08L307.67 364.79L307.85 372.97L307.98 381.61L308.09 390.74L308.17 400.37L308.22 410.54L308.28 421.23L308.3 432.47L308.3 444.31L308.32 456.73L308.32 607.3L295.16 606.71L294.56 606.69L293.91 606.67L293.2 606.63L292.46 606.58L291.66 606.5L290.84 606.43L289.97 606.34L289.06 606.23L288.11 606.11L287.13 605.97L286.1 605.84L285.06 605.67L283.98 605.5L282.87 605.31L281.73 605.13L280.56 604.92L279.37 604.7L278.17 604.48L276.92 604.26L275.67 604.01L274.39 603.75L273.11 603.51L271.79 603.23L270.47 602.95L269.13 602.68L267.79 602.38L266.44 602.08L265.06 601.78L263.68 601.47L262.31 601.15L260.93 600.83L259.54 600.5L258.16 600.17L256.77 599.83L255.39 599.5L254.02 599.14L252.64 598.81L251.27 598.46L249.91 598.1L248.55 597.73L241.08 595.63L233.66 593.31L226.36 590.8L219.13 588.1L211.99 585.22L204.94 582.15L197.99 578.9L191.15 575.48L184.42 571.87L177.78 568.1L171.26 564.16L164.85 560.03L158.54 555.76L152.37 551.33L146.31 546.72L140.38 541.98L134.56 537.07L128.89 532.02L123.34 526.83L117.93 521.48L112.67 516.01L107.52 510.38L102.54 504.64L97.68 498.76L93 492.74L88.45 486.6L84.06 480.34L79.84 473.96L75.77 467.48L71.86 460.88L68.13 454.15L64.56 447.33L61.16 440.39L57.92 433.37L54.89 426.23L52.01 419.01L49.33 411.69L46.84 404.29L44.54 396.8L42.42 389.22L40.3 380.37L38.46 371.5L36.95 362.6L35.73 353.69L34.82 344.77L34.18 335.83L33.85 326.91L33.81 317.98L34.07 309.1L34.61 300.21L35.43 291.36L36.54 282.53L37.92 273.76L39.57 265.04L41.51 256.36L43.72 247.73L46.19 239.18L48.92 230.71L51.94 222.32L55.19 214L58.72 205.78L62.49 197.66L66.53 189.64L70.82 181.74L75.36 173.95L80.14 166.28L85.15 158.75L90.42 151.35L95.92 144.1L101.66 136.98L107.63 130.03L113.84 123.24L120.27 116.63L126.92 110.18L133.8 103.91L140.9 97.83L148.23 91.96L155.77 86.27L163.53 80.8L171.48 75.54L175.89 72.76L180.41 70.08L185.03 67.48L189.76 64.99L194.57 62.59L199.5 60.28L204.5 58.07L209.59 55.95L214.76 53.92L220 52.01L225.32 50.17L230.69 48.46L236.14 46.82L241.64 45.3L247.18 43.87L252.77 42.55L258.41 41.32L264.07 40.21L269.78 39.18L275.53 38.27L281.27 37.45L287.05 36.75L292.85 36.15L298.65 35.65L304.45 35.28L310.25 34.98L316.07 34.82L321.85 34.76L327.63 34.8L333.39 34.96L339.14 35.22Z" id="cJXBfw2be"></path></defs><g><g><g><use xlink:href="#agiXm9OMF" opacity="1" fill="#ffffff" fill-opacity="1"></use></g><g><use xlink:href="#cJXBfw2be" opacity="1" fill="#78b244" fill-opacity="1"></use><g><use xlink:href="#cJXBfw2be" opacity="1" fill-opacity="0" stroke="#000000" stroke-width="1" stroke-opacity="0"></use></g></g></g></g></svg>