<?xml version="1.0" encoding="UTF-8" standalone="no"?>
<!DOCTYPE svg PUBLIC "-//W3C//DTD SVG 1.1//EN" "http://www.w3.org/Graphics/SVG/1.1/DTD/svg11.dtd">
<svg version="1.1" xmlns="http://www.w3.org/2000/svg" xmlns:xlink="http://www.w3.org/1999/xlink" preserveAspectRatio="xMidYMid meet" viewBox="0 0 640 640" width="640" height="640"><defs><path d="M271.14 163.39C290.15 151.04 319.35 146.73 342.47 152.61C392.44 165.74 423.6 217.08 410.86 265.88C401.26 303.31 370.3 331.33 333.06 336.62C332.57 336.69 330.09 337.01 325.62 337.6C325.66 335.26 325.86 323.57 326.21 302.52C326.56 281.59 326.75 269.97 326.79 267.64C330.44 263.06 332.46 260.51 332.87 260C341.29 249.81 348.55 245.89 362.66 244.52C373.24 243.34 374.81 243.54 374.81 246.48C374.81 256.86 362.07 272.34 348.94 277.83C340.32 281.55 338.36 284.1 341.49 287.82C343.25 289.98 345.02 289.98 350.31 288.22C370.1 281.36 384.6 262.35 384.6 243.34C384.6 242.71 384.6 239.58 384.6 233.93C378.25 233.93 374.73 233.93 374.02 233.93C356.78 233.93 343.25 237.46 335.22 243.73C331.3 247.06 327.58 249.61 326.99 249.61C326.4 249.61 325.81 246.67 325.81 243.15C325.81 233.54 317 217.47 308.37 211.59C298.38 204.54 290.34 202.58 272.51 202.58C257.42 202.58 257.23 202.58 257.23 207.68C257.23 225.51 268.98 244.32 284.86 252.36C295.63 257.65 305.04 259.02 307.39 255.29C309.16 252.36 304.85 249.02 295.44 245.69C281.33 240.99 273.1 232.37 268.98 217.87C268.87 217.47 268.28 215.51 267.22 211.99C275.33 212.46 279.84 212.72 280.74 212.77C292.3 213.36 295.44 214.34 301.71 219.43C315.62 230.6 316.02 232.76 316.02 288.41C316.02 291.71 316.02 308.17 316.02 337.8C313.43 337.68 311.99 337.61 311.7 337.6C309.16 337.6 302.3 336.23 296.42 334.66C263.5 325.84 237.63 299.58 228.81 266.27C218.82 227.66 235.87 185.92 271.14 163.39Z" id="b3vwB2rMKJ"></path><path d="M271.14 163.39C290.15 151.04 319.35 146.73 342.47 152.61C392.44 165.74 423.6 217.08 410.86 265.88C401.26 303.31 370.3 331.33 333.06 336.62C332.57 336.69 330.09 337.01 325.62 337.6C325.66 335.26 325.86 323.57 326.21 302.52C326.56 281.59 326.75 269.97 326.79 267.64C330.44 263.06 332.46 260.51 332.87 260C341.29 249.81 348.55 245.89 362.66 244.52C373.24 243.34 374.81 243.54 374.81 246.48C374.81 256.86 362.07 272.34 348.94 277.83C340.32 281.55 338.36 284.1 341.49 287.82C343.25 289.98 345.02 289.98 350.31 288.22C370.1 281.36 384.6 262.35 384.6 243.34C384.6 242.71 384.6 239.58 384.6 233.93C378.25 233.93 374.73 233.93 374.02 233.93C356.78 233.93 343.25 237.46 335.22 243.73C331.3 247.06 327.58 249.61 326.99 249.61C326.4 249.61 325.81 246.67 325.81 243.15C325.81 233.54 317 217.47 308.37 211.59C298.38 204.54 290.34 202.58 272.51 202.58C257.42 202.58 257.23 202.58 257.23 207.68C257.23 225.51 268.98 244.32 284.86 252.36C295.63 257.65 305.04 259.02 307.39 255.29C309.16 252.36 304.85 249.02 295.44 245.69C281.33 240.99 273.1 232.37 268.98 217.87C268.87 217.47 268.28 215.51 267.22 211.99C275.33 212.46 279.84 212.72 280.74 212.77C292.3 213.36 295.44 214.34 301.71 219.43C315.62 230.6 316.02 232.76 316.02 288.41C316.02 291.71 316.02 308.17 316.02 337.8C313.43 337.68 311.99 337.61 311.7 337.6C309.16 337.6 302.3 336.23 296.42 334.66C263.5 325.84 237.63 299.58 228.81 266.27C218.82 227.66 235.87 185.92 271.14 163.39Z" id="cFb1V4H2w"></path><path d="M279.13 458.44C275.25 462.09 273.1 464.11 272.67 464.52C263.65 472.75 257.77 475.69 252.09 474.32C241.7 471.57 245.82 453.54 260.32 439.04C269.14 430.22 283.05 423.36 289.13 424.74C292.85 425.72 294.81 423.36 303.24 408.86C315.39 388.09 321.07 381.04 325.97 381.04C327.93 381.04 329.69 381.62 329.69 382.21C329.69 383 322.25 396.13 313.03 411.41C295.2 441.39 286.58 458.44 286.58 463.93C286.58 472.75 296.57 464.13 305.98 447.08C316.76 427.68 318.72 425.32 322.64 426.7C325.38 427.87 324.6 430.22 316.95 445.7C311.08 457.66 308.92 463.34 310.68 463.34C314.01 463.34 330.67 445.9 339.1 433.56C343.21 427.68 346.94 424.15 349.29 424.15C351.44 424.15 353.21 424.93 353.21 425.72C353.21 426.7 349.68 434.14 345.37 442.57C338.12 456.48 335.37 467.26 339.1 467.26C342.63 467.07 349.29 459.62 353.4 450.8C361.44 433.36 376.72 422.78 391.42 424.54C398.87 425.32 400.44 432.97 394.36 439.43C387.89 446.29 382.21 443.75 386.52 435.91C389.66 430.03 384.76 430.81 375.16 437.87C363.2 446.49 357.72 459.23 363.4 464.91C367.71 469.22 378.1 467.46 392.01 460.21C405.33 453.35 405.92 452.76 404.75 447.27C403.38 440.61 408.86 433.75 420.23 427.87C434.14 420.82 446.68 424.93 438.45 433.95C434.53 438.45 430.42 439.04 429.24 435.51C428.65 433.95 426.5 434.34 421.8 437.08C412.98 442.18 412.19 445.31 420.03 445.12C429.44 444.53 429.05 448.64 418.86 453.74C408.67 458.83 405.14 462.17 407.1 465.3C409.45 469.22 421.21 467.26 429.83 461.38C440.02 454.52 441.39 454.33 441.39 459.23C441.39 463.93 433.95 470 422.58 474.32C415.33 477.06 412.59 477.26 406.31 475.3C402 474.12 398.28 471.77 397.5 470.2C396.71 467.85 395.14 468.04 387.5 471.38C375.16 476.86 364.57 476.86 357.32 471.57C352.62 468.04 351.25 467.85 349.29 470.2C345.96 474.32 337.14 476.67 332.04 474.9C328.91 473.73 327.73 471.77 327.73 467.07C327.73 466.66 327.73 464.64 327.73 460.99C323.15 465.11 320.6 467.39 320.09 467.85C310.49 476.47 305 478.43 300.49 474.32C298.53 472.55 296.38 471.96 295.2 472.94C292.46 475.49 285.99 476.86 282.66 475.69C277.96 473.92 276.78 470.59 277.96 464.32C278.04 463.93 278.43 461.97 279.13 458.44ZM259.34 456.87C253.07 469.02 260.32 466.28 273.65 451.39C282.86 441.2 287.76 433.95 285.6 433.95C279.92 433.95 264.04 447.86 259.34 456.87Z" id="b5J3pRsSe"></path><path d="M279.13 458.44C275.25 462.09 273.1 464.11 272.67 464.52C263.65 472.75 257.77 475.69 252.09 474.32C241.7 471.57 245.82 453.54 260.32 439.04C269.14 430.22 283.05 423.36 289.13 424.74C292.85 425.72 294.81 423.36 303.24 408.86C315.39 388.09 321.07 381.04 325.97 381.04C327.93 381.04 329.69 381.62 329.69 382.21C329.69 383 322.25 396.13 313.03 411.41C295.2 441.39 286.58 458.44 286.58 463.93C286.58 472.75 296.57 464.13 305.98 447.08C316.76 427.68 318.72 425.32 322.64 426.7C325.38 427.87 324.6 430.22 316.95 445.7C311.08 457.66 308.92 463.34 310.68 463.34C314.01 463.34 330.67 445.9 339.1 433.56C343.21 427.68 346.94 424.15 349.29 424.15C351.44 424.15 353.21 424.93 353.21 425.72C353.21 426.7 349.68 434.14 345.37 442.57C338.12 456.48 335.37 467.26 339.1 467.26C342.63 467.07 349.29 459.62 353.4 450.8C361.44 433.36 376.72 422.78 391.42 424.54C398.87 425.32 400.44 432.97 394.36 439.43C387.89 446.29 382.21 443.75 386.52 435.91C389.66 430.03 384.76 430.81 375.16 437.87C363.2 446.49 357.72 459.23 363.4 464.91C367.71 469.22 378.1 467.46 392.01 460.21C405.33 453.35 405.92 452.76 404.75 447.27C403.38 440.61 408.86 433.75 420.23 427.87C434.14 420.82 446.68 424.93 438.45 433.95C434.53 438.45 430.42 439.04 429.24 435.51C428.65 433.95 426.5 434.34 421.8 437.08C412.98 442.18 412.19 445.31 420.03 445.12C429.44 444.53 429.05 448.64 418.86 453.74C408.67 458.83 405.14 462.17 407.1 465.3C409.45 469.22 421.21 467.26 429.83 461.38C440.02 454.52 441.39 454.33 441.39 459.23C441.39 463.93 433.95 470 422.58 474.32C415.33 477.06 412.59 477.26 406.31 475.3C402 474.12 398.28 471.77 397.5 470.2C396.71 467.85 395.14 468.04 387.5 471.38C375.16 476.86 364.57 476.86 357.32 471.57C352.62 468.04 351.25 467.85 349.29 470.2C345.96 474.32 337.14 476.67 332.04 474.9C328.91 473.73 327.73 471.77 327.73 467.07C327.73 466.66 327.73 464.64 327.73 460.99C323.15 465.11 320.6 467.39 320.09 467.85C310.49 476.47 305 478.43 300.49 474.32C298.53 472.55 296.38 471.96 295.2 472.94C292.46 475.49 285.99 476.86 282.66 475.69C277.96 473.92 276.78 470.59 277.96 464.32C278.04 463.93 278.43 461.97 279.13 458.44ZM259.34 456.87C253.07 469.02 260.32 466.28 273.65 451.39C282.86 441.2 287.76 433.95 285.6 433.95C279.92 433.95 264.04 447.86 259.34 456.87Z" id="bnAI1ZyT5"></path><path d="M467.3 451.52C460.72 451.52 457.06 451.52 456.33 451.52C446.53 451.52 445.35 451.13 445.35 447.6C445.35 441.92 460.83 426.05 480.63 411.16C496.11 399.4 504.34 396.07 506.89 400.38C507.67 401.36 503.16 409.98 497.28 419.58C496.58 420.73 493.05 426.48 486.7 436.83C490.7 437.18 492.92 437.38 493.36 437.41C501.2 438.2 501.79 439.37 496.3 445.25C493.76 448 489.84 449.56 485.92 449.56C480.23 449.56 479.06 450.74 472.2 463.28C465.34 476.02 460.44 480.92 455.35 480.92C454.17 480.92 453.19 480.13 453.19 478.96C453.19 477.98 456.33 471.32 460.25 464.26C460.72 463.41 463.07 459.17 467.3 451.52ZM471.81 428.99C458.09 441.53 457.89 443.88 470.24 440.55C472.59 439.96 478.47 433.5 483.57 425.66C493.95 410.18 491.41 410.76 471.81 428.99Z" id="higwyxrL4"></path><path d="M467.3 451.52C460.72 451.52 457.06 451.52 456.33 451.52C446.53 451.52 445.35 451.13 445.35 447.6C445.35 441.92 460.83 426.05 480.63 411.16C496.11 399.4 504.34 396.07 506.89 400.38C507.67 401.36 503.16 409.98 497.28 419.58C496.58 420.73 493.05 426.48 486.7 436.83C490.7 437.18 492.92 437.38 493.36 437.41C501.2 438.2 501.79 439.37 496.3 445.25C493.76 448 489.84 449.56 485.92 449.56C480.23 449.56 479.06 450.74 472.2 463.28C465.34 476.02 460.44 480.92 455.35 480.92C454.17 480.92 453.19 480.13 453.19 478.96C453.19 477.98 456.33 471.32 460.25 464.26C460.72 463.41 463.07 459.17 467.3 451.52ZM471.81 428.99C458.09 441.53 457.89 443.88 470.24 440.55C472.59 439.96 478.47 433.5 483.57 425.66C493.95 410.18 491.41 410.76 471.81 428.99Z" id="a1YDv1A0i"></path><path d="M520.77 426.23C523.32 427.41 522.53 430.15 515.09 444.65C510.19 454.26 507.25 462.29 508.23 462.68C511.17 463.66 524.49 450.34 534.88 436.03C540.36 428.19 545.07 423.69 547.42 423.69C552.51 423.69 552.12 425.65 544.28 440.15C531.74 462.88 531.55 473.27 544.09 461.12C551.73 453.87 553.1 453.67 553.1 459.74C553.1 464.64 544.68 472.48 536.84 475.23C530.76 477.38 525.67 473.27 525.67 466.41C525.67 465.99 525.67 463.9 525.67 460.14C521.9 463.78 519.81 465.81 519.4 466.21C512.93 472.09 505.87 476.6 502.74 476.6C501.76 476.6 500 475.62 498.62 474.25C494.51 470.13 496.08 461.51 504.11 445.83C513.32 428.19 516.26 424.67 520.77 426.23Z" id="dsJB8wHLS"></path><path d="M520.77 426.23C523.32 427.41 522.53 430.15 515.09 444.65C510.19 454.26 507.25 462.29 508.23 462.68C511.17 463.66 524.49 450.34 534.88 436.03C540.36 428.19 545.07 423.69 547.42 423.69C552.51 423.69 552.12 425.65 544.28 440.15C531.74 462.88 531.55 473.27 544.09 461.12C551.73 453.87 553.1 453.67 553.1 459.74C553.1 464.64 544.68 472.48 536.84 475.23C530.76 477.38 525.67 473.27 525.67 466.41C525.67 465.99 525.67 463.9 525.67 460.14C521.9 463.78 519.81 465.81 519.4 466.21C512.93 472.09 505.87 476.6 502.74 476.6C501.76 476.6 500 475.62 498.62 474.25C494.51 470.13 496.08 461.51 504.11 445.83C513.32 428.19 516.26 424.67 520.77 426.23Z" id="dJRcJvmBK"></path><path d="M247.12 425.13C255.75 429.05 253.79 439.24 241.64 454.92C227.92 472.36 209.5 479.42 204.8 469.03C199.9 458.25 209.5 438.65 224.59 428.46C233.6 422.39 239.29 421.41 247.12 425.13ZM230.07 434.74C221.65 440.81 212.83 453.74 212.83 460.41C212.83 466.87 213.42 467.07 221.65 461.97C227.92 458.05 242.22 439.44 242.22 435.13C242.22 430.82 235.95 430.62 230.07 434.74Z" id="b3nGQ0V38"></path><path d="M247.12 425.13C255.75 429.05 253.79 439.24 241.64 454.92C227.92 472.36 209.5 479.42 204.8 469.03C199.9 458.25 209.5 438.65 224.59 428.46C233.6 422.39 239.29 421.41 247.12 425.13ZM230.07 434.74C221.65 440.81 212.83 453.74 212.83 460.41C212.83 466.87 213.42 467.07 221.65 461.97C227.92 458.05 242.22 439.44 242.22 435.13C242.22 430.82 235.95 430.62 230.07 434.74Z" id="dOXOXEojV"></path><path d="M129.43 398.21C124.53 398.41 100.62 410.36 99.84 413.5C99.45 414.67 100.82 415.85 102.78 415.85C106.11 416.04 106.11 416.24 102.39 418.98C97.49 422.51 89.84 421.92 87.1 417.42C82.01 409.38 96.51 396.84 117.48 391.16C146.09 383.71 177.83 391.16 177.83 405.46C177.83 416.63 165.49 430.35 148.44 438.19C137.46 443.28 124.14 444.85 121.98 441.32C119.44 437.21 117.08 439.76 105.91 457.98C96.12 474.05 93.76 476.4 89.26 476.6C86.12 476.6 83.77 475.62 83.77 474.25C83.77 470.13 113.16 423.69 127.27 405.66C132.37 399.19 132.57 398.21 129.43 398.21ZM139.23 397.43C140.99 398.02 142.56 398.8 142.56 399.19C142.56 399.78 138.25 406.83 132.76 415.06C127.47 423.29 122.96 430.94 122.96 432.11C122.96 435.25 138.84 431.72 147.85 426.43C169.8 413.69 169.02 399 146.28 397.23C140.4 396.84 137.27 396.84 139.23 397.43Z" id="a2IehJlj9v"></path><path d="M129.43 398.21C124.53 398.41 100.62 410.36 99.84 413.5C99.45 414.67 100.82 415.85 102.78 415.85C106.11 416.04 106.11 416.24 102.39 418.98C97.49 422.51 89.84 421.92 87.1 417.42C82.01 409.38 96.51 396.84 117.48 391.16C146.09 383.71 177.83 391.16 177.83 405.46C177.83 416.63 165.49 430.35 148.44 438.19C137.46 443.28 124.14 444.85 121.98 441.32C119.44 437.21 117.08 439.76 105.91 457.98C96.12 474.05 93.76 476.4 89.26 476.6C86.12 476.6 83.77 475.62 83.77 474.25C83.77 470.13 113.16 423.69 127.27 405.66C132.37 399.19 132.57 398.21 129.43 398.21ZM139.23 397.43C140.99 398.02 142.56 398.8 142.56 399.19C142.56 399.78 138.25 406.83 132.76 415.06C127.47 423.29 122.96 430.94 122.96 432.11C122.96 435.25 138.84 431.72 147.85 426.43C169.8 413.69 169.02 399 146.28 397.23C140.4 396.84 137.27 396.84 139.23 397.43Z" id="dR5uGjfwd"></path><path d="M182.77 423.36C189.04 422.57 189.24 423.36 184.73 430.21C181.4 435.31 181.4 435.31 189.82 429.23C200.41 421.59 209.62 420.81 209.62 427.47C209.62 432.96 200.6 446.48 196.88 446.48C193.35 446.48 192.96 438.45 196.29 435.11C197.66 433.74 198.05 432.76 197.07 432.76C194.53 432.76 174.34 452.95 167.09 462.55C160.82 471.17 154.55 474.5 152 470.39C151.61 469.6 157.1 458.83 164.15 446.48C175.32 427.47 178.26 423.94 182.77 423.36Z" id="a2HgBMoVcu"></path><path d="M182.77 423.36C189.04 422.57 189.24 423.36 184.73 430.21C181.4 435.31 181.4 435.31 189.82 429.23C200.41 421.59 209.62 420.81 209.62 427.47C209.62 432.96 200.6 446.48 196.88 446.48C193.35 446.48 192.96 438.45 196.29 435.11C197.66 433.74 198.05 432.76 197.07 432.76C194.53 432.76 174.34 452.95 167.09 462.55C160.82 471.17 154.55 474.5 152 470.39C151.61 469.6 157.1 458.83 164.15 446.48C175.32 427.47 178.26 423.94 182.77 423.36Z" id="b1sIQP86za"></path></defs><g><g><g><use xlink:href="#b3vwB2rMKJ" opacity="1" fill="#20b43d" fill-opacity="1"></use><g><use xlink:href="#b3vwB2rMKJ" opacity="1" fill-opacity="0" stroke="#000000" stroke-width="1" stroke-opacity="0"></use></g></g><g><use xlink:href="#cFb1V4H2w" opacity="1" fill="#78b244" fill-opacity="1"></use><g><use xlink:href="#cFb1V4H2w" opacity="1" fill-opacity="0" stroke="#000000" stroke-width="1" stroke-opacity="0"></use></g></g><g><use xlink:href="#b5J3pRsSe" opacity="1" fill="#161616" fill-opacity="1"></use><g><use xlink:href="#b5J3pRsSe" opacity="1" fill-opacity="0" stroke="#000000" stroke-width="1" stroke-opacity="0"></use></g></g><g><use xlink:href="#bnAI1ZyT5" opacity="1" fill="#000000" fill-opacity="0"></use><g><use xlink:href="#bnAI1ZyT5" opacity="1" fill-opacity="0" stroke="#000000" stroke-width="1" stroke-opacity="0"></use></g></g><g><use xlink:href="#higwyxrL4" opacity="1" fill="#161616" fill-opacity="1"></use><g><use xlink:href="#higwyxrL4" opacity="1" fill-opacity="0" stroke="#000000" stroke-width="1" stroke-opacity="0"></use></g></g><g><use xlink:href="#a1YDv1A0i" opacity="1" fill="#000000" fill-opacity="0"></use><g><use xlink:href="#a1YDv1A0i" opacity="1" fill-opacity="0" stroke="#000000" stroke-width="1" stroke-opacity="0"></use></g></g><g><use xlink:href="#dsJB8wHLS" opacity="1" fill="#161616" fill-opacity="1"></use><g><use xlink:href="#dsJB8wHLS" opacity="1" fill-opacity="0" stroke="#000000" stroke-width="1" stroke-opacity="0"></use></g></g><g><use xlink:href="#dJRcJvmBK" opacity="1" fill="#000000" fill-opacity="0"></use><g><use xlink:href="#dJRcJvmBK" opacity="1" fill-opacity="0" stroke="#000000" stroke-width="1" stroke-opacity="0"></use></g></g><g><use xlink:href="#b3nGQ0V38" opacity="1" fill="#161616" fill-opacity="1"></use><g><use xlink:href="#b3nGQ0V38" opacity="1" fill-opacity="0" stroke="#000000" stroke-width="1" stroke-opacity="0"></use></g></g><g><use xlink:href="#dOXOXEojV" opacity="1" fill="#000000" fill-opacity="0"></use><g><use xlink:href="#dOXOXEojV" opacity="1" fill-opacity="0" stroke="#000000" stroke-width="1" stroke-opacity="0"></use></g></g><g><use xlink:href="#a2IehJlj9v" opacity="1" fill="#161616" fill-opacity="1"></use><g><use xlink:href="#a2IehJlj9v" opacity="1" fill-opacity="0" stroke="#000000" stroke-width="1" stroke-opacity="0"></use></g></g><g><use xlink:href="#dR5uGjfwd" opacity="1" fill="#000000" fill-opacity="0"></use><g><use xlink:href="#dR5uGjfwd" opacity="1" fill-opacity="0" stroke="#000000" stroke-width="1" stroke-opacity="0"></use></g></g><g><use xlink:href="#a2HgBMoVcu" opacity="1" fill="#161616" fill-opacity="1"></use><g><use xlink:href="#a2HgBMoVcu" opacity="1" fill-opacity="0" stroke="#000000" stroke-width="1" stroke-opacity="0"></use></g></g><g><use xlink:href="#b1sIQP86za" opacity="1" fill="#000000" fill-opacity="0"></use><g><use xlink:href="#b1sIQP86za" opacity="1" fill-opacity="0" stroke="#000000" stroke-width="1" stroke-opacity="0"></use></g></g></g></g></svg>