<?xml version="1.0" encoding="UTF-8" standalone="no"?>
<!DOCTYPE svg PUBLIC "-//W3C//DTD SVG 1.1//EN" "http://www.w3.org/Graphics/SVG/1.1/DTD/svg11.dtd">
<svg version="1.1" xmlns="http://www.w3.org/2000/svg" xmlns:xlink="http://www.w3.org/1999/xlink" preserveAspectRatio="xMidYMid meet" viewBox="0 0 640 640" width="640" height="640"><defs><path d="M324.39 158.05L327.48 158.19L330.55 158.39L333.6 158.65L336.64 158.98L339.65 159.36L342.64 159.8L345.6 160.31L348.53 160.88L351.42 161.51L354.29 162.2L360.38 163.93L366.34 165.89L372.19 168.07L377.91 170.47L383.5 173.08L388.95 175.89L394.26 178.9L399.43 182.11L404.46 185.49L409.33 189.06L414.05 192.79L418.61 196.7L423.01 200.76L427.24 204.98L431.31 209.34L435.2 213.85L438.91 218.49L442.44 223.25L445.79 228.14L448.95 233.15L451.91 238.27L454.68 243.49L457.24 248.8L459.61 254.21L461.76 259.7L463.7 265.27L465.43 270.92L466.94 276.62L468.22 282.39L469.28 288.21L470.1 294.08L470.69 299.99L471.04 305.93L471.14 311.91L471 317.9L470.61 323.91L469.97 329.93L469.06 335.95L467.9 341.97L466.46 347.98L465.22 352.55L463.84 357.07L462.34 361.52L460.71 365.91L458.96 370.23L457.09 374.49L455.11 378.67L453.01 382.79L450.79 386.82L448.47 390.79L446.04 394.67L443.5 398.47L440.85 402.19L438.11 405.83L435.27 409.38L432.33 412.84L429.3 416.21L426.17 419.49L422.96 422.67L419.66 425.76L416.27 428.75L412.8 431.63L409.25 434.42L405.62 437.1L401.92 439.67L398.14 442.13L394.29 444.48L390.38 446.72L386.39 448.85L382.35 450.85L378.24 452.74L374.07 454.5L369.84 456.14L365.56 457.66L361.23 459.05L356.85 460.31L352.42 461.44L347.94 462.43L343.42 463.29L338.86 464.01L326.64 465.62L327.61 408.08L328.57 350.87L338.54 338.33L339.57 337.1L340.6 335.9L341.62 334.75L342.64 333.62L343.66 332.54L344.67 331.49L345.69 330.47L346.7 329.49L347.72 328.55L348.75 327.63L349.78 326.75L350.81 325.9L351.85 325.09L352.91 324.3L353.97 323.55L355.04 322.82L356.13 322.13L357.23 321.46L358.34 320.83L359.47 320.22L360.62 319.63L361.78 319.08L362.97 318.54L364.18 318.04L365.41 317.56L366.66 317.1L367.94 316.67L369.25 316.26L370.58 315.87L371.94 315.51L373.33 315.17L374.75 314.84L376.21 314.54L377.69 314.26L379.22 313.99L380.77 313.75L382.37 313.52L384 313.31L385.68 313.12L387.39 312.94L388.67 312.8L389.89 312.67L391.05 312.55L392.17 312.43L393.23 312.33L394.25 312.23L395.21 312.15L396.13 312.07L397 312.01L397.83 311.95L398.61 311.91L399.35 311.88L400.05 311.85L400.71 311.84L401.33 311.84L401.91 311.85L402.45 311.88L402.96 311.91L403.43 311.96L403.87 312.02L404.27 312.09L404.65 312.18L404.99 312.28L405.31 312.39L405.59 312.51L405.85 312.65L406.09 312.81L406.3 312.97L406.48 313.15L406.65 313.35L406.79 313.56L406.92 313.79L407.02 314.03L407.11 314.28L407.18 314.56L407.23 314.84L407.27 315.15L407.3 315.47L407.32 315.8L407.32 316.16L407.28 317.45L407.17 318.77L406.98 320.12L406.71 321.49L406.38 322.89L405.98 324.3L405.51 325.74L404.98 327.18L404.38 328.64L403.72 330.11L403 331.59L402.23 333.08L401.4 334.56L400.51 336.05L399.58 337.54L398.59 339.03L397.55 340.51L396.47 341.98L395.35 343.44L394.18 344.88L392.98 346.32L391.73 347.73L390.45 349.13L389.13 350.5L387.78 351.85L386.4 353.17L384.99 354.46L383.56 355.73L382.09 356.95L380.61 358.15L379.1 359.3L377.58 360.42L376.03 361.49L374.47 362.51L372.9 363.49L371.31 364.42L369.72 365.29L368.12 366.11L366.51 366.88L364.89 367.58L363.85 368.04L362.85 368.49L361.9 368.93L360.98 369.36L360.1 369.79L359.26 370.21L358.46 370.63L357.7 371.05L356.98 371.46L356.3 371.86L355.65 372.26L355.05 372.66L354.48 373.06L353.95 373.45L353.46 373.84L353 374.23L352.59 374.62L352.21 375.01L351.86 375.39L351.55 375.78L351.28 376.17L351.05 376.55L350.85 376.94L350.68 377.33L350.56 377.72L350.46 378.11L350.4 378.5L350.38 378.9L350.39 379.3L350.43 379.7L350.51 380.1L350.62 380.51L350.76 380.93L350.94 381.35L351.15 381.77L351.39 382.2L351.66 382.63L351.97 383.07L352.31 383.52L352.68 383.98L352.9 384.23L353.11 384.48L353.33 384.71L353.55 384.93L353.78 385.14L354 385.33L354.23 385.51L354.46 385.68L354.7 385.83L354.94 385.97L355.19 386.1L355.44 386.22L355.7 386.33L355.97 386.42L356.24 386.5L356.52 386.56L356.81 386.62L357.11 386.66L357.42 386.69L357.74 386.71L358.07 386.71L358.42 386.71L358.77 386.69L359.14 386.66L359.52 386.62L359.91 386.57L360.32 386.5L360.74 386.42L361.18 386.34L361.63 386.24L362.1 386.12L362.58 386L363.09 385.87L363.61 385.72L364.15 385.57L364.71 385.4L365.29 385.22L365.88 385.03L366.5 384.83L367.14 384.62L369.56 383.74L371.95 382.78L374.3 381.76L376.61 380.67L378.88 379.51L381.12 378.28L383.31 376.99L385.46 375.64L387.57 374.23L389.63 372.76L391.64 371.23L393.61 369.65L395.53 368.02L397.39 366.34L399.21 364.61L400.97 362.83L402.67 361.01L404.32 359.14L405.91 357.24L407.44 355.29L408.91 353.31L410.32 351.29L411.66 349.24L412.94 347.15L414.15 345.04L415.3 342.9L416.37 340.73L417.38 338.54L418.31 336.32L419.17 334.09L419.95 331.83L420.66 329.56L421.29 327.28L421.84 324.98L422.31 322.67L422.69 320.35L423 318.02L423.22 315.69L423.35 313.35L423.39 311.01L423.39 295.59L406.04 295.59L403.93 295.6L401.84 295.63L399.78 295.68L397.74 295.76L395.72 295.86L393.73 295.97L391.76 296.11L389.82 296.27L387.9 296.45L386.01 296.65L384.15 296.87L382.31 297.11L380.49 297.38L378.7 297.66L376.94 297.96L375.21 298.28L373.5 298.62L371.82 298.98L370.17 299.36L368.55 299.76L366.96 300.18L365.39 300.62L363.85 301.08L362.34 301.56L360.86 302.05L359.41 302.57L358 303.1L356.61 303.65L355.25 304.22L353.92 304.81L352.62 305.41L351.36 306.04L350.12 306.68L348.92 307.34L347.75 308.01L346.61 308.71L345.51 309.42L344.44 310.15L343.4 310.89L342.39 311.66L341.91 312.06L341.43 312.47L340.96 312.86L340.48 313.26L340.01 313.64L339.54 314.02L339.07 314.39L338.61 314.76L338.16 315.12L337.71 315.47L337.26 315.81L336.83 316.15L336.39 316.48L335.97 316.8L335.55 317.11L335.14 317.41L334.74 317.71L334.35 317.99L333.97 318.26L333.6 318.53L333.23 318.78L332.88 319.03L332.54 319.26L332.21 319.48L331.89 319.69L331.59 319.89L331.3 320.08L331.02 320.25L330.76 320.41L330.51 320.56L330.27 320.7L330.05 320.82L329.85 320.93L329.66 321.03L329.49 321.11L329.33 321.18L329.2 321.23L329.08 321.27L328.98 321.29L328.89 321.3L328.82 321.29L328.75 321.26L328.68 321.22L328.61 321.16L328.53 321.08L328.46 320.99L328.39 320.88L328.32 320.75L328.25 320.61L328.19 320.46L328.12 320.29L328.05 320.1L327.99 319.9L327.92 319.69L327.86 319.47L327.8 319.23L327.74 318.98L327.68 318.72L327.62 318.45L327.57 318.17L327.52 317.87L327.46 317.57L327.41 317.25L327.37 316.93L327.32 316.59L327.28 316.25L327.24 315.9L327.2 315.54L327.16 315.17L327.13 314.79L327.1 314.41L327.07 314.02L327.05 313.62L327.03 313.22L327.01 312.81L326.99 312.4L326.98 311.98L326.97 311.55L326.97 311.13L326.97 310.69L326.94 309.49L326.86 308.25L326.73 306.98L326.55 305.68L326.32 304.34L326.04 302.98L325.72 301.6L325.35 300.19L324.94 298.76L324.49 297.32L323.99 295.86L323.46 294.39L322.89 292.91L322.28 291.43L321.64 289.94L320.97 288.45L320.26 286.96L319.53 285.48L318.76 284L317.97 282.53L317.15 281.07L316.3 279.63L315.43 278.2L314.54 276.79L313.63 275.4L312.69 274.04L311.74 272.7L310.78 271.4L309.79 270.12L308.8 268.88L307.79 267.68L306.77 266.52L305.73 265.4L304.7 264.32L303.65 263.29L302.6 262.31L301.54 261.39L300.48 260.51L299.42 259.7L298.36 258.95L297.14 258.09L295.92 257.27L294.72 256.48L293.52 255.72L292.33 254.99L291.14 254.28L289.95 253.61L288.76 252.96L287.56 252.35L286.37 251.75L285.16 251.19L283.95 250.65L282.73 250.13L281.5 249.65L280.26 249.18L279 248.74L277.72 248.33L276.43 247.93L275.11 247.56L273.77 247.21L272.41 246.89L271.02 246.58L269.6 246.3L268.16 246.03L266.68 245.79L265.17 245.56L263.63 245.35L262.05 245.17L260.43 245L258.76 244.84L257.06 244.71L255.32 244.59L253.52 244.48L251.68 244.39L249.79 244.32L247.85 244.26L245.86 244.22L243.81 244.18L241.7 244.17L239.54 244.16L237.73 244.16L236.01 244.16L234.37 244.16L232.82 244.17L231.36 244.18L229.97 244.19L228.66 244.2L227.43 244.23L226.27 244.26L225.18 244.29L224.16 244.33L223.21 244.39L222.32 244.45L221.5 244.52L220.73 244.6L220.02 244.69L219.37 244.8L218.77 244.92L218.22 245.06L217.72 245.2L217.27 245.37L216.86 245.55L216.49 245.75L216.17 245.96L215.88 246.2L215.62 246.45L215.4 246.73L215.21 247.03L215.04 247.34L214.91 247.69L214.79 248.05L214.7 248.44L214.63 248.85L214.57 249.29L214.53 249.76L214.5 250.25L214.48 250.77L214.47 251.32L214.47 251.91L214.47 252.52L214.5 254.71L214.61 256.91L214.79 259.12L215.04 261.32L215.35 263.52L215.73 265.72L216.17 267.92L216.68 270.1L217.26 272.28L217.89 274.45L218.58 276.61L219.34 278.75L220.15 280.88L221.02 282.99L221.94 285.08L222.92 287.15L223.96 289.2L225.04 291.22L226.18 293.22L227.37 295.18L228.6 297.12L229.88 299.03L231.21 300.9L232.59 302.73L234.01 304.53L235.47 306.29L236.97 308.01L238.52 309.69L240.1 311.32L241.72 312.9L243.38 314.44L245.08 315.93L246.81 317.36L248.57 318.74L250.37 320.07L252.19 321.34L254.05 322.54L255.94 323.69L257.85 324.78L259.79 325.8L261.11 326.44L262.42 327.05L263.72 327.64L265.02 328.21L266.29 328.75L267.56 329.26L268.81 329.75L270.05 330.22L271.27 330.66L272.48 331.07L273.67 331.46L274.84 331.82L275.99 332.16L277.12 332.47L278.24 332.75L279.33 333L280.39 333.23L281.44 333.43L282.46 333.61L283.45 333.75L284.42 333.87L285.37 333.96L286.28 334.03L287.17 334.06L288.02 334.07L288.85 334.04L289.65 333.99L290.41 333.91L291.14 333.8L291.84 333.66L292.5 333.5L293.12 333.3L293.71 333.07L294.27 332.81L294.78 332.52L295.26 332.2L295.69 331.85L296.09 331.47L296.44 331.06L296.75 330.62L296.95 330.26L297.11 329.89L297.24 329.53L297.32 329.16L297.37 328.78L297.39 328.41L297.36 328.03L297.31 327.66L297.21 327.28L297.08 326.89L296.91 326.51L296.71 326.13L296.47 325.74L296.2 325.35L295.89 324.96L295.54 324.57L295.17 324.17L294.75 323.78L294.3 323.38L293.82 322.99L293.3 322.59L292.75 322.19L292.17 321.79L291.55 321.39L290.89 320.98L290.21 320.58L289.49 320.18L288.73 319.77L287.94 319.37L287.13 318.96L286.27 318.55L285.39 318.14L284.47 317.74L283.52 317.33L282.54 316.92L281.52 316.51L280.48 316.1L279.4 315.69L278.29 315.28L277.15 314.87L275.43 314.28L273.75 313.67L272.1 313.03L270.49 312.36L268.91 311.67L267.37 310.96L265.87 310.21L264.39 309.45L262.96 308.65L261.55 307.83L260.18 306.98L258.84 306.11L257.54 305.2L256.27 304.27L255.03 303.31L253.82 302.32L252.64 301.31L251.5 300.26L250.39 299.18L249.3 298.08L248.25 296.94L247.23 295.78L246.24 294.58L245.28 293.35L244.35 292.09L243.45 290.8L242.57 289.48L241.73 288.12L240.91 286.73L240.13 285.31L239.37 283.86L238.64 282.37L237.93 280.85L237.26 279.29L236.61 277.7L235.98 276.08L235.39 274.42L234.82 272.73L234.27 271L233.75 269.23L230.86 259.59L253.04 260.87L254.44 260.95L255.78 261.02L257.08 261.1L258.33 261.19L259.54 261.28L260.7 261.37L261.83 261.47L262.91 261.58L263.96 261.69L264.97 261.81L265.94 261.94L266.89 262.08L267.8 262.23L268.69 262.38L269.54 262.55L270.38 262.73L271.18 262.92L271.97 263.12L272.74 263.34L273.49 263.57L274.22 263.81L274.94 264.06L275.65 264.34L276.34 264.62L277.03 264.93L277.71 265.25L278.38 265.58L279.05 265.94L279.72 266.31L280.39 266.7L281.05 267.12L281.73 267.55L282.4 268L283.09 268.48L283.78 268.97L284.48 269.49L285.2 270.03L285.92 270.6L286.67 271.19L287.43 271.8L289.1 273.15L290.69 274.45L292.2 275.72L293.63 276.96L294.99 278.18L296.28 279.39L297.49 280.61L298.63 281.84L299.71 283.09L300.73 284.37L301.67 285.69L302.56 287.07L303.39 288.5L304.17 290L304.88 291.58L305.55 293.25L306.16 295.02L306.73 296.9L307.25 298.89L307.72 301.01L308.15 303.27L308.54 305.67L308.89 308.23L309.21 310.96L309.49 313.86L309.74 316.94L309.95 320.23L310.14 323.71L310.3 327.41L310.44 331.33L310.55 335.48L310.65 339.88L310.72 344.53L310.78 349.44L310.82 354.62L310.85 360.09L310.88 365.84L310.89 371.89L310.89 378.26L310.9 384.94L310.9 465.94L303.82 465.62L303.5 465.61L303.15 465.6L302.77 465.58L302.37 465.55L301.94 465.51L301.5 465.47L301.03 465.42L300.54 465.36L300.03 465.3L299.5 465.22L298.95 465.15L298.39 465.06L297.81 464.97L297.21 464.87L296.6 464.77L295.97 464.66L295.33 464.54L294.68 464.42L294.01 464.3L293.34 464.17L292.65 464.03L291.96 463.9L291.25 463.75L290.54 463.6L289.82 463.45L289.1 463.29L288.37 463.13L287.63 462.97L286.89 462.8L286.15 462.63L285.41 462.46L284.66 462.28L283.92 462.1L283.17 461.92L282.43 461.74L281.69 461.55L280.95 461.37L280.21 461.18L279.48 460.99L278.75 460.79L274.73 459.66L270.74 458.41L266.81 457.06L262.92 455.61L259.08 454.06L255.29 452.41L251.55 450.66L247.87 448.82L244.25 446.88L240.68 444.85L237.17 442.73L233.72 440.51L230.33 438.21L227.01 435.83L223.75 433.35L220.56 430.8L217.43 428.16L214.38 425.44L211.39 422.65L208.48 419.77L205.65 416.83L202.88 413.8L200.2 410.71L197.59 407.55L195.07 404.31L192.62 401.01L190.26 397.64L187.99 394.21L185.8 390.72L183.7 387.17L181.69 383.55L179.77 379.88L177.94 376.15L176.2 372.37L174.57 368.53L173.02 364.65L171.58 360.71L170.24 356.73L169 352.7L167.86 348.62L166.72 343.86L165.73 339.09L164.92 334.3L164.26 329.51L163.77 324.71L163.43 319.9L163.25 315.1L163.23 310.3L163.37 305.52L163.66 300.74L164.1 295.98L164.7 291.23L165.44 286.51L166.33 281.82L167.37 277.15L168.56 272.51L169.89 267.91L171.36 263.35L172.98 258.84L174.73 254.36L176.63 249.94L178.66 245.57L180.83 241.26L183.14 237.01L185.58 232.82L188.15 228.69L190.85 224.64L193.68 220.66L196.64 216.76L199.73 212.93L202.94 209.19L206.28 205.54L209.74 201.98L213.32 198.51L217.02 195.14L220.84 191.87L224.78 188.71L228.84 185.65L233.01 182.71L237.29 179.88L239.66 178.38L242.09 176.94L244.58 175.54L247.12 174.2L249.71 172.91L252.36 171.67L255.05 170.48L257.79 169.34L260.57 168.25L263.39 167.22L266.25 166.23L269.14 165.31L272.07 164.43L275.03 163.61L278.01 162.84L281.02 162.13L284.05 161.47L287.1 160.87L290.17 160.32L293.26 159.83L296.35 159.39L299.46 159.01L302.58 158.69L305.7 158.42L308.82 158.22L311.94 158.06L315.07 157.97L318.18 157.94L321.29 157.96L324.39 158.05Z" id="blM9Wy6aI"></path></defs><g><g><g><use xlink:href="#blM9Wy6aI" opacity="1" fill="#78b244" fill-opacity="1"></use></g></g></g></svg>