<?xml version="1.0" encoding="UTF-8" standalone="no"?>
<!DOCTYPE svg PUBLIC "-//W3C//DTD SVG 1.1//EN" "http://www.w3.org/Graphics/SVG/1.1/DTD/svg11.dtd">
<svg version="1.1" xmlns="http://www.w3.org/2000/svg" xmlns:xlink="http://www.w3.org/1999/xlink" preserveAspectRatio="xMidYMid meet" viewBox="0 0 640 640" width="640" height="640"><defs><path d="M38.81 541.59L38.81 50.37L605.15 50.37L605.15 541.59L38.81 541.59ZM311.94 147.17L308.82 147.32L305.69 147.53L302.57 147.8L299.46 148.12L296.35 148.5L293.25 148.94L290.17 149.43L287.1 149.98L284.05 150.58L281.02 151.24L278.01 151.95L275.02 152.72L272.07 153.54L269.14 154.41L266.25 155.34L263.39 156.32L260.57 157.36L257.79 158.45L255.05 159.58L252.35 160.77L249.71 162.02L247.11 163.31L244.57 164.65L242.09 166.05L239.66 167.49L237.29 168.99L233 171.82L228.83 174.76L224.78 177.82L220.84 180.98L217.02 184.25L213.32 187.62L209.74 191.09L206.28 194.65L202.94 198.3L199.73 202.04L196.64 205.86L193.68 209.77L190.85 213.75L188.14 217.8L185.57 221.93L183.13 226.12L180.83 230.37L178.66 234.68L176.63 239.05L174.73 243.47L172.97 247.95L171.36 252.46L169.88 257.02L168.55 261.62L167.37 266.26L166.33 270.93L165.44 275.62L164.69 280.34L164.1 285.09L163.66 289.85L163.37 294.63L163.23 299.41L163.25 304.21L163.43 309.01L163.76 313.82L164.26 318.62L164.91 323.41L165.73 328.2L166.71 332.97L167.86 337.73L169 341.81L170.24 345.84L171.58 349.82L173.02 353.76L174.56 357.64L176.2 361.48L177.93 365.26L179.76 368.99L181.68 372.66L183.69 376.27L185.8 379.83L187.98 383.32L190.26 386.75L192.62 390.12L195.06 393.42L197.59 396.65L200.2 399.82L202.88 402.91L205.64 405.93L208.48 408.88L211.39 411.76L214.37 414.55L217.43 417.27L220.55 419.91L223.75 422.46L227.01 424.93L230.33 427.32L233.72 429.62L237.17 431.84L240.68 433.96L244.24 435.99L247.87 437.93L251.55 439.77L255.29 441.52L259.07 443.17L262.91 444.72L266.8 446.17L270.74 447.52L274.72 448.77L278.75 449.9L279.48 450.1L280.21 450.29L280.94 450.48L281.68 450.66L282.42 450.85L283.17 451.03L283.91 451.21L284.66 451.39L285.4 451.57L286.15 451.74L286.89 451.91L287.63 452.08L288.36 452.24L289.09 452.4L289.82 452.56L290.54 452.71L291.25 452.86L291.95 453L292.65 453.14L293.33 453.28L294.01 453.41L294.67 453.53L295.33 453.65L295.97 453.77L296.59 453.88L297.21 453.98L297.8 454.08L298.38 454.17L298.95 454.25L299.5 454.33L300.02 454.41L300.53 454.47L301.02 454.53L301.49 454.58L301.94 454.62L302.36 454.66L302.76 454.69L303.14 454.71L303.49 454.72L303.82 454.72L310.89 455.05L310.89 374.05L310.89 367.37L310.88 361L310.87 354.95L310.85 349.19L310.82 343.73L310.78 338.55L310.72 333.64L310.64 328.99L310.55 324.59L310.43 320.44L310.3 316.52L310.14 312.82L309.95 309.33L309.73 306.05L309.48 302.97L309.2 300.07L308.89 297.34L308.54 294.78L308.15 292.38L307.72 290.12L307.24 288L306.73 286L306.16 284.13L305.55 282.36L304.88 280.69L304.16 279.11L303.39 277.61L302.56 276.18L301.67 274.8L300.72 273.48L299.71 272.2L298.63 270.95L297.49 269.72L296.27 268.5L294.99 267.29L293.63 266.07L292.2 264.83L290.69 263.56L289.1 262.26L287.43 260.91L286.67 260.3L285.92 259.71L285.19 259.14L284.48 258.6L283.77 258.08L283.08 257.59L282.4 257.11L281.72 256.66L281.05 256.23L280.38 255.81L279.71 255.42L279.05 255.05L278.38 254.69L277.71 254.35L277.03 254.03L276.34 253.73L275.64 253.44L274.94 253.17L274.22 252.92L273.49 252.67L272.74 252.45L271.97 252.23L271.18 252.03L270.37 251.84L269.54 251.66L268.68 251.49L267.8 251.34L266.88 251.19L265.94 251.05L264.96 250.92L263.95 250.8L262.91 250.69L261.82 250.58L260.7 250.48L259.54 250.39L258.33 250.3L257.08 250.21L255.78 250.13L254.43 250.06L253.04 249.98L230.86 248.7L233.75 258.34L234.27 260.11L234.81 261.84L235.38 263.53L235.98 265.19L236.6 266.81L237.25 268.4L237.93 269.96L238.63 271.48L239.36 272.97L240.12 274.42L240.91 275.84L241.73 277.23L242.57 278.58L243.44 279.91L244.34 281.2L245.28 282.46L246.24 283.69L247.23 284.88L248.25 286.05L249.3 287.19L250.38 288.29L251.49 289.37L252.64 290.42L253.82 291.43L255.02 292.42L256.26 293.38L257.54 294.31L258.84 295.22L260.18 296.09L261.55 296.94L262.95 297.76L264.39 298.55L265.86 299.32L267.37 300.06L268.91 300.78L270.49 301.47L272.1 302.14L273.74 302.77L275.42 303.39L277.14 303.98L278.28 304.39L279.39 304.8L280.47 305.21L281.52 305.62L282.53 306.03L283.52 306.44L284.47 306.85L285.38 307.25L286.27 307.66L287.12 308.07L287.94 308.47L288.73 308.88L289.48 309.29L290.2 309.69L290.89 310.09L291.54 310.5L292.16 310.9L292.75 311.3L293.3 311.7L293.82 312.1L294.3 312.49L294.75 312.89L295.16 313.28L295.54 313.68L295.88 314.07L296.19 314.46L296.47 314.85L296.71 315.23L296.91 315.62L297.08 316L297.21 316.39L297.3 316.77L297.36 317.14L297.38 317.52L297.37 317.89L297.32 318.26L297.23 318.63L297.11 319L296.95 319.37L296.75 319.73L296.44 320.17L296.09 320.58L295.69 320.96L295.25 321.31L294.78 321.63L294.26 321.92L293.71 322.18L293.12 322.41L292.49 322.6L291.83 322.77L291.14 322.91L290.41 323.02L289.64 323.1L288.85 323.15L288.02 323.18L287.16 323.17L286.28 323.14L285.36 323.07L284.42 322.98L283.45 322.86L282.46 322.72L281.44 322.54L280.39 322.34L279.32 322.11L278.23 321.86L277.12 321.58L275.99 321.27L274.84 320.93L273.67 320.57L272.48 320.18L271.27 319.77L270.05 319.33L268.81 318.86L267.56 318.37L266.29 317.86L265.01 317.32L263.72 316.75L262.42 316.16L261.11 315.55L259.79 314.91L257.85 313.89L255.93 312.8L254.05 311.65L252.19 310.44L250.36 309.18L248.57 307.85L246.8 306.47L245.08 305.03L243.38 303.55L241.72 302.01L240.1 300.43L238.52 298.8L236.97 297.12L235.47 295.4L234.01 293.64L232.59 291.84L231.21 290.01L229.88 288.14L228.6 286.23L227.36 284.29L226.18 282.33L225.04 280.33L223.95 278.31L222.92 276.26L221.94 274.19L221.02 272.1L220.15 269.99L219.33 267.86L218.58 265.72L217.89 263.56L217.25 261.39L216.68 259.21L216.17 257.03L215.72 254.83L215.35 252.63L215.03 250.43L214.79 248.23L214.61 246.02L214.5 243.82L214.47 241.63L214.47 241.01L214.47 240.43L214.48 239.88L214.5 239.36L214.53 238.87L214.57 238.4L214.62 237.96L214.7 237.55L214.79 237.16L214.9 236.79L215.04 236.45L215.2 236.14L215.39 235.84L215.62 235.56L215.87 235.31L216.16 235.07L216.49 234.86L216.86 234.66L217.27 234.48L217.72 234.31L218.22 234.16L218.77 234.03L219.37 233.91L220.02 233.8L220.73 233.71L221.49 233.63L222.32 233.56L223.21 233.49L224.16 233.44L225.18 233.4L226.27 233.36L227.43 233.34L228.66 233.31L229.97 233.3L231.35 233.29L232.82 233.28L234.37 233.27L236 233.27L237.73 233.27L239.54 233.27L241.7 233.27L243.81 233.29L245.85 233.33L247.85 233.37L249.79 233.43L251.68 233.5L253.52 233.59L255.31 233.7L257.06 233.82L258.76 233.95L260.42 234.1L262.04 234.28L263.62 234.46L265.17 234.67L266.68 234.9L268.16 235.14L269.6 235.41L271.02 235.69L272.41 236L273.77 236.32L275.11 236.67L276.42 237.04L277.72 237.43L278.99 237.85L280.25 238.29L281.5 238.76L282.73 239.24L283.95 239.76L285.16 240.3L286.36 240.86L287.56 241.45L288.75 242.07L289.94 242.72L291.13 243.39L292.32 244.1L293.52 244.83L294.71 245.59L295.92 246.38L297.13 247.2L298.36 248.05L299.42 248.81L300.48 249.62L301.54 250.49L302.59 251.42L303.65 252.4L304.69 253.43L305.73 254.51L306.76 255.63L307.78 256.79L308.79 257.99L309.79 259.23L310.77 260.51L311.74 261.81L312.69 263.15L313.62 264.51L314.54 265.9L315.43 267.31L316.3 268.74L317.14 270.18L317.96 271.64L318.76 273.11L319.52 274.59L320.26 276.07L320.97 277.56L321.64 279.05L322.28 280.54L322.89 282.02L323.46 283.5L323.99 284.97L324.48 286.43L324.93 287.87L325.35 289.3L325.71 290.71L326.04 292.09L326.31 293.45L326.54 294.79L326.72 296.09L326.86 297.36L326.94 298.6L326.96 299.8L326.96 300.23L326.97 300.66L326.98 301.09L326.99 301.5L327.01 301.92L327.02 302.33L327.05 302.73L327.07 303.13L327.1 303.52L327.13 303.9L327.16 304.28L327.2 304.64L327.24 305L327.28 305.36L327.32 305.7L327.36 306.03L327.41 306.36L327.46 306.68L327.51 306.98L327.57 307.28L327.62 307.56L327.68 307.83L327.74 308.09L327.8 308.34L327.86 308.58L327.92 308.8L327.98 309.01L328.05 309.21L328.12 309.4L328.18 309.57L328.25 309.72L328.32 309.86L328.39 309.99L328.46 310.1L328.53 310.19L328.6 310.27L328.67 310.33L328.75 310.37L328.82 310.4L328.89 310.41L328.97 310.4L329.07 310.38L329.19 310.34L329.33 310.29L329.48 310.22L329.66 310.14L329.84 310.04L330.05 309.93L330.27 309.81L330.5 309.67L330.75 309.52L331.02 309.36L331.3 309.18L331.59 309L331.89 308.8L332.21 308.59L332.54 308.37L332.88 308.13L333.23 307.89L333.59 307.64L333.96 307.37L334.35 307.1L334.74 306.81L335.14 306.52L335.55 306.22L335.97 305.91L336.39 305.59L336.82 305.26L337.26 304.92L337.71 304.58L338.16 304.23L338.61 303.87L339.07 303.5L339.54 303.13L340 302.75L340.48 302.36L340.95 301.97L341.43 301.58L341.91 301.17L342.39 300.77L343.4 300L344.43 299.26L345.51 298.53L346.61 297.82L347.75 297.12L348.92 296.45L350.12 295.79L351.35 295.15L352.62 294.52L353.92 293.92L355.24 293.33L356.6 292.76L357.99 292.21L359.41 291.68L360.86 291.16L362.34 290.67L363.85 290.19L365.39 289.73L366.95 289.29L368.55 288.87L370.17 288.47L371.82 288.09L373.5 287.73L375.21 287.39L376.94 287.07L378.7 286.77L380.49 286.48L382.3 286.22L384.14 285.98L386.01 285.76L387.9 285.56L389.82 285.38L391.76 285.22L393.73 285.08L395.72 284.96L397.73 284.87L399.77 284.79L401.84 284.74L403.92 284.71L406.03 284.7L423.39 284.7L423.39 300.12L423.34 302.46L423.21 304.8L422.99 307.13L422.69 309.46L422.3 311.78L421.83 314.09L421.28 316.38L420.66 318.67L419.95 320.94L419.17 323.2L418.31 325.43L417.37 327.65L416.37 329.84L415.3 332.01L414.15 334.15L412.94 336.26L411.66 338.34L410.32 340.4L408.91 342.42L407.44 344.4L405.91 346.34L404.32 348.25L402.67 350.12L400.96 351.94L399.2 353.72L397.39 355.45L395.52 357.13L393.61 358.76L391.64 360.34L389.62 361.87L387.56 363.33L385.46 364.75L383.31 366.1L381.11 367.39L378.88 368.61L376.6 369.78L374.29 370.87L371.94 371.89L369.56 372.85L367.14 373.73L366.5 373.94L365.88 374.14L365.28 374.33L364.7 374.51L364.15 374.68L363.61 374.83L363.08 374.98L362.58 375.11L362.1 375.23L361.63 375.35L361.17 375.44L360.74 375.53L360.31 375.61L359.91 375.67L359.51 375.73L359.13 375.77L358.77 375.8L358.41 375.82L358.07 375.82L357.74 375.82L357.42 375.8L357.11 375.77L356.81 375.73L356.52 375.67L356.24 375.6L355.96 375.53L355.7 375.43L355.44 375.33L355.18 375.21L354.94 375.08L354.69 374.94L354.46 374.79L354.23 374.62L354 374.44L353.77 374.25L353.55 374.04L353.33 373.82L353.11 373.59L352.89 373.34L352.68 373.09L352.31 372.63L351.97 372.18L351.66 371.74L351.39 371.31L351.14 370.88L350.93 370.45L350.76 370.04L350.61 369.62L350.5 369.21L350.43 368.81L350.38 368.4L350.37 368.01L350.4 367.61L350.46 367.22L350.55 366.82L350.68 366.44L350.85 366.05L351.04 365.66L351.28 365.27L351.55 364.89L351.86 364.5L352.2 364.12L352.58 363.73L353 363.34L353.45 362.95L353.95 362.56L354.48 362.17L355.04 361.77L355.65 361.37L356.29 360.97L356.97 360.57L357.7 360.16L358.46 359.74L359.26 359.32L360.09 358.9L360.97 358.47L361.89 358.04L362.85 357.59L363.85 357.15L364.89 356.69L366.5 355.99L368.11 355.22L369.72 354.4L371.31 353.53L372.9 352.6L374.47 351.62L376.03 350.59L377.57 349.52L379.1 348.41L380.6 347.26L382.09 346.06L383.55 344.84L384.99 343.57L386.4 342.28L387.78 340.96L389.13 339.61L390.44 338.24L391.73 336.84L392.97 335.43L394.18 333.99L395.35 332.55L396.47 331.09L397.55 329.61L398.59 328.14L399.57 326.65L400.51 325.16L401.39 323.67L402.22 322.19L403 320.7L403.72 319.22L404.38 317.75L404.97 316.29L405.51 314.84L405.98 313.41L406.38 312L406.71 310.6L406.97 309.23L407.16 307.88L407.28 306.56L407.32 305.27L407.31 304.91L407.3 304.58L407.27 304.26L407.23 303.95L407.17 303.66L407.1 303.39L407.02 303.14L406.91 302.9L406.79 302.67L406.64 302.46L406.48 302.26L406.29 302.08L406.08 301.91L405.85 301.76L405.59 301.62L405.3 301.5L404.99 301.38L404.64 301.29L404.27 301.2L403.86 301.13L403.42 301.07L402.95 301.02L402.45 300.99L401.9 300.96L401.32 300.95L400.7 300.95L400.05 300.96L399.35 300.98L398.61 301.02L397.83 301.06L397 301.12L396.13 301.18L395.21 301.26L394.24 301.34L393.23 301.44L392.17 301.54L391.05 301.66L389.88 301.78L388.66 301.91L387.39 302.05L385.68 302.23L384 302.42L382.37 302.63L380.77 302.86L379.21 303.1L377.69 303.37L376.2 303.65L374.75 303.95L373.33 304.27L371.94 304.62L370.58 304.98L369.24 305.37L367.94 305.78L366.66 306.21L365.41 306.67L364.18 307.15L362.97 307.65L361.78 308.18L360.61 308.74L359.47 309.32L358.34 309.93L357.22 310.57L356.12 311.24L355.04 311.93L353.96 312.66L352.9 313.41L351.85 314.2L350.81 315.01L349.77 315.86L348.74 316.74L347.72 317.65L346.7 318.6L345.68 319.58L344.67 320.6L343.65 321.65L342.64 322.73L341.62 323.85L340.59 325.01L339.57 326.21L338.53 327.44L328.57 339.98L327.61 397.19L326.64 454.72L338.86 453.12L343.42 452.4L347.94 451.54L352.41 450.55L356.84 449.42L361.23 448.16L365.56 446.77L369.84 445.25L374.06 443.61L378.23 441.85L382.34 439.96L386.39 437.95L390.37 435.83L394.29 433.59L398.14 431.24L401.91 428.78L405.62 426.21L409.25 423.53L412.8 420.74L416.27 417.86L419.65 414.87L422.95 411.78L426.17 408.6L429.29 405.32L432.33 401.95L435.27 398.49L438.11 394.94L440.85 391.3L443.49 387.58L446.03 383.78L448.46 379.9L450.79 375.93L453 371.89L455.1 367.78L457.09 363.6L458.96 359.34L460.71 355.02L462.33 350.63L463.84 346.18L465.21 341.66L466.46 337.09L467.89 331.08L469.06 325.06L469.96 319.04L470.61 313.02L471 307.01L471.14 301.02L471.03 295.04L470.68 289.1L470.1 283.19L469.27 277.32L468.22 271.5L466.93 265.73L465.43 260.03L463.7 254.38L461.76 248.81L459.6 243.32L457.24 237.91L454.67 232.6L451.91 227.38L448.94 222.26L445.78 217.25L442.44 212.36L438.91 207.6L435.19 202.96L431.3 198.45L427.24 194.09L423.01 189.87L418.61 185.81L414.05 181.9L409.33 178.17L404.45 174.6L399.43 171.21L394.26 168.01L388.94 165L383.49 162.19L377.91 159.58L372.19 157.18L366.34 155L360.37 153.04L354.28 151.31L351.42 150.62L348.52 149.99L345.59 149.42L342.63 148.91L339.65 148.47L336.63 148.08L333.6 147.76L330.54 147.5L327.47 147.3L324.39 147.15L321.29 147.07L318.18 147.05L315.06 147.08L311.94 147.17Z" id="djb6S0nHW"></path></defs><g><g><g><use xlink:href="#djb6S0nHW" opacity="1" fill="#20b43d" fill-opacity="1"></use></g></g></g></svg>